<?xml version="1.0" encoding="utf-8"?>
<!-- Generator: Adobe Illustrator 22.1.0, SVG Export Plug-In . SVG Version: 6.00 Build 0)  -->
<svg version="1.1" id="Layer_1" xmlns="http://www.w3.org/2000/svg" xmlns:xlink="http://www.w3.org/1999/xlink" x="0px" y="0px"
	 viewBox="0 0 476.7 154" style="enable-background:new 0 0 476.7 154;" xml:space="preserve">
<style type="text/css">
	.st0{enable-background:new    ;}
	.st1{fill:#FFFFFF;}
</style>
<title>logo-white</title>
<g class="st0">
	<path class="st1" d="M153.6,32.1c0-1,0.1-2,0.3-3s0.5-2,1-2.8s1-1.5,1.5-2.4c0.5-0.8,1.1-1.6,1.7-2.4c0.6-0.8,1.3-1.5,1.9-2.2
		c0.7-0.7,1.4-1.4,2.2-2c0,0,0.1-0.1,0.3-0.2s0.4-0.2,0.6-0.4c0.2-0.1,0.4-0.2,0.5-0.3c0.2-0.1,0.3-0.2,0.3-0.2
		c0.1-0.1,0.3-0.2,0.4-0.3c0.1-0.1,0.3-0.2,0.5-0.3s0.4-0.2,0.7-0.3s0.6-0.3,1-0.5c0.9-0.3,1.9-0.5,2.8-0.7c0.9-0.2,1.9-0.3,2.9-0.3
		c0.7,0,1.4,0.1,2,0.2c0.6,0.1,1.3,0.3,1.9,0.5c1.7,0.6,3.2,1.3,4.5,2c1.3,0.7,2.6,1.6,3.8,2.7l0.2,0.3c0.3,0.2,0.5,0.5,0.8,1
		c0.2,0.4,0.4,1,0.6,1.5c0.2,0.6,0.4,1.2,0.5,1.8c0.2,0.6,0.3,1.2,0.4,1.8c0.1,0.6,0.1,1,0.2,1.5c0,0.4,0,0.7,0,0.8
		c0,1-0.2,1.9-0.4,2.8s-0.5,1.8-0.9,2.7c-0.3,0.8-0.6,1.6-1,2.4c-0.4,0.8-1,1.5-1.7,2.2c-0.1,0.1-0.2,0.2-0.4,0.4s-0.4,0.4-0.7,0.6
		c-0.2,0.2-0.5,0.4-0.7,0.6s-0.4,0.3-0.4,0.4c0,0-0.2,0.1-0.3,0.3c-0.2,0.2-0.3,0.3-0.3,0.3s-0.1,0.1-0.2,0.2
		c-0.1,0.1-0.2,0.2-0.3,0.3s-0.2,0.2-0.3,0.3s-0.1,0.1-0.2,0.1c-1.1,1-2.5,1.8-4.2,2.5c-1.7,0.6-3.4,0.9-5.1,0.9c-0.3,0-0.7,0-1.2,0
		s-0.8-0.1-1.1-0.1c0,0-0.2,0-0.6-0.1c-0.3-0.1-0.8-0.2-1.2-0.3c-0.5-0.1-1-0.2-1.5-0.3s-0.9-0.2-1.2-0.3c-0.9-0.2-1.7-0.6-2.4-1
		c-0.7-0.5-1.4-1-2.2-1.4c0,0-0.1,0-0.2-0.1c-0.1-0.1-0.1-0.1-0.1-0.1c-0.8-0.7-1.4-1.4-2-2.1c-0.5-0.7-1.1-1.4-1.6-2.3
		c0,0-0.1-0.2-0.2-0.4c-0.1-0.2-0.2-0.4-0.2-0.5s0-0.2-0.1-0.4s-0.2-0.4-0.2-0.7s-0.2-0.5-0.2-0.7c-0.1-0.2-0.1-0.3-0.1-0.4
		l-0.2-0.3L153.6,32.1L153.6,32.1z M154.7,30.4c0,0.1-0.1,0.2-0.2,0.3c-0.1,0.1-0.1,0.2-0.1,0.2s0,0.1,0,0.3c0,0.2,0,0.3,0,0.3
		s0,0.2,0,0.4c0,0.2,0,0.3,0,0.3l3.1-2.4l0.7-0.3v-1.3L154.7,30.4z M158.6,25.7c-0.8,0.3-1.5,0.8-2.1,1.2c-0.6,0.5-1.2,1-1.7,1.5
		c0,0-0.1,0.1-0.2,0.1c-0.1,0.1-0.2,0.1-0.2,0.2c0,0,0,0.2-0.1,0.4s-0.1,0.5-0.1,0.6v0.1h0.1l3.7-2.3c0,0,0-0.1,0.1-0.3
		c0-0.1,0.1-0.2,0.1-0.3c0-0.1,0-0.2,0.1-0.5s0.1-0.5,0.1-0.6v-0.1H158.6z M154.3,33c0,0.2,0,0.4,0.1,0.7c0,0.3,0.1,0.5,0.3,0.7
		c0.3-0.2,0.7-0.5,0.9-0.7c0.3-0.2,0.6-0.5,0.8-0.7c0.3-0.2,0.6-0.4,0.9-0.7c0.3-0.2,0.7-0.4,1.1-0.6v-0.3v-0.3c0,0,0-0.1,0-0.2
		s0-0.3-0.1-0.4c0-0.1,0-0.3-0.1-0.4c0-0.1,0-0.2,0-0.3c-0.7,0.3-1.3,0.7-1.9,1.2c-0.6,0.5-1.1,1-1.6,1.5c0,0-0.1,0.1-0.2,0.2
		C154.4,32.8,154.3,32.9,154.3,33L154.3,33z M159.1,23.1c0,0-0.1,0.1-0.4,0.3c-0.2,0.2-0.5,0.4-0.8,0.6s-0.6,0.5-0.9,0.7
		c-0.3,0.2-0.5,0.4-0.7,0.6c-0.3,0.3-0.6,0.6-0.9,1c-0.3,0.4-0.4,0.8-0.4,1.2v0.1c0.6-0.5,1.2-0.9,1.8-1.3s1.3-0.8,1.9-1.1
		c0-0.1,0.1-0.2,0.1-0.3c0-0.1,0.1-0.3,0.2-0.4c0.1-0.2,0.1-0.3,0.2-0.4c0-0.1,0.1-0.2,0.1-0.3c0,0,0.1-0.1,0.1-0.3
		c0-0.2,0.1-0.2,0.1-0.3v-0.1V23L159.1,23.1z M155,35.5c0,0,0,0.1,0.1,0.2c0.1,0.1,0.1,0.2,0.2,0.3c0.1,0.1,0.1,0.2,0.2,0.3
		c0.1,0.1,0.1,0.2,0.1,0.2c0.1-0.1,0.2-0.2,0.4-0.4s0.4-0.4,0.6-0.6c0.2-0.2,0.4-0.4,0.6-0.6c0.2-0.2,0.3-0.3,0.4-0.4
		c0,0,0.1-0.1,0.2-0.2c0.1-0.1,0.2-0.2,0.4-0.3c0.1-0.1,0.2-0.2,0.3-0.3s0.2-0.2,0.2-0.2c0-0.1,0-0.2,0-0.3s0-0.3-0.1-0.4
		s0-0.3-0.1-0.4c0-0.1,0-0.2,0-0.3c-0.2,0-0.3,0-0.3,0s0,0.1-0.2,0.1c-0.1,0.1-0.2,0.2-0.4,0.3c-0.2,0.2-0.4,0.3-0.7,0.5
		c-0.2,0.2-0.5,0.4-0.7,0.5c-0.2,0.2-0.3,0.3-0.4,0.4c-0.2,0.2-0.4,0.3-0.5,0.5c-0.2,0.2-0.2,0.4-0.2,0.6v0.5H155z M155.8,36.9
		c0,0,0.1,0.1,0.1,0.2c0.1,0.1,0.1,0.2,0.2,0.3c0.1,0.1,0.2,0.2,0.2,0.3c0.1,0.1,0.1,0.2,0.1,0.2s0.1,0,0.1,0.1l0.1,0.1l2.6-2.7
		v-0.1v-0.1c0-0.1-0.1-0.3-0.2-0.6c-0.1-0.3-0.1-0.5-0.2-0.5c0,0,0,0-0.1,0s-0.2,0.1-0.4,0.2c-0.2,0.2-0.4,0.3-0.6,0.5
		s-0.4,0.4-0.6,0.6c-0.2,0.2-0.3,0.3-0.4,0.4l-0.1,0.1c0,0.1-0.1,0.1-0.2,0.2c-0.1,0.1-0.1,0.2-0.2,0.2c-0.1,0.1-0.1,0.1-0.1,0.1
		s0,0-0.1,0.1C155.9,36.9,155.8,36.9,155.8,36.9z M160.4,21c-0.8,0.4-1.4,0.9-2,1.4s-1.1,1.1-1.5,1.7h0.1c0.2-0.2,0.5-0.4,0.9-0.6
		s0.8-0.5,1.1-0.8c0.4-0.3,0.7-0.5,0.9-0.8C160.3,21.7,160.4,21.4,160.4,21L160.4,21z M157.1,38.7c0,0.1,0.1,0.2,0.2,0.3
		c0.1,0.1,0.3,0.3,0.4,0.4c0.2,0.2,0.3,0.3,0.5,0.4c0.2,0.1,0.3,0.2,0.3,0.2h0.1c0,0,0-0.1,0.1-0.1c0-0.1,0.1-0.1,0.1-0.1
		c0-0.1,0.2-0.2,0.3-0.4c0.2-0.2,0.3-0.4,0.4-0.4c0-0.1,0.1-0.1,0.2-0.2c0.1-0.1,0.2-0.2,0.3-0.3s0.2-0.2,0.3-0.4
		c0.1-0.1,0.2-0.2,0.2-0.2c0-0.1-0.1-0.2-0.2-0.4c-0.1-0.2-0.2-0.3-0.3-0.5s-0.2-0.3-0.3-0.5s-0.2-0.3-0.3-0.3
		c-0.1,0.1-0.2,0.1-0.3,0.3s-0.3,0.2-0.4,0.4s-0.3,0.3-0.4,0.4c-0.1,0.1-0.2,0.2-0.3,0.3s-0.2,0.2-0.3,0.3s-0.3,0.3-0.4,0.4
		S157.1,38.6,157.1,38.7C157.1,38.6,157.1,38.7,157.1,38.7z M158.9,40.5L158.9,40.5c0,0.1,0.1,0.1,0.2,0.2c0.1,0.1,0.2,0.1,0.2,0.2
		c0.1,0.1,0.2,0.1,0.3,0.2c0.1,0.1,0.2,0.2,0.4,0.2l0.4,0.3h0.4l1.7-1.7l-1.5-1.6c0,0.1-0.2,0.2-0.4,0.3s-0.3,0.2-0.4,0.3
		c-0.1,0.1-0.2,0.2-0.3,0.3s-0.3,0.3-0.4,0.5c-0.1,0.2-0.3,0.3-0.4,0.5C159,40.3,158.9,40.4,158.9,40.5z M159.1,21.3l1.7-0.9l2.2-3
		v-0.1c-0.8,0.6-1.5,1.2-2.1,1.8c-0.6,0.6-1.2,1.3-1.8,1.9L159.1,21.3L159.1,21.3z M161.2,42.1c0,0.1,0.1,0.2,0.3,0.3
		s0.4,0.2,0.7,0.3s0.6,0.2,1,0.4c0.1,0,0.2,0,0.3-0.1c0,0,0.1-0.1,0.3-0.2c0,0,0.1-0.1,0.3-0.2c0.1-0.1,0.3-0.3,0.4-0.4
		c0.1-0.1,0.3-0.3,0.4-0.4c0.1-0.1,0.2-0.2,0.3-0.2c-0.1,0-0.3-0.1-0.6-0.3s-0.5-0.2-0.5-0.3c0,0-0.2-0.1-0.4-0.2
		c-0.2-0.1-0.3-0.2-0.4-0.2c0,0-0.1,0-0.2-0.1c-0.1,0-0.1,0-0.1,0s-0.1,0.1-0.3,0.2c-0.1,0.1-0.2,0.2-0.3,0.3c0,0-0.1,0.1-0.2,0.2
		c-0.1,0.1-0.2,0.2-0.3,0.3s-0.2,0.2-0.3,0.3s-0.2,0.2-0.2,0.2S161.3,42.1,161.2,42.1C161.2,41.9,161.2,42,161.2,42.1L161.2,42.1z
		 M164.3,43.2C164.3,43.3,164.3,43.3,164.3,43.2l2.2,0.6l0.1-0.1l0.1-0.1c0,0,0.1-0.1,0.2-0.3c0.1-0.2,0.2-0.2,0.2-0.3
		c0.1-0.1,0.2-0.2,0.5-0.4c0.2-0.2,0.4-0.3,0.5-0.4c0-0.1-0.2-0.1-0.4-0.2s-0.5,0-0.7,0c-0.2-0.1-0.5-0.1-0.7-0.2
		c-0.2-0.1-0.4-0.1-0.5-0.1s-0.3,0.1-0.4,0.2c-0.2,0.1-0.3,0.2-0.5,0.4s-0.3,0.3-0.4,0.5C164.3,42.9,164.3,43.1,164.3,43.2
		L164.3,43.2z M166.3,29.4c0,0.9,0,1.6,0.1,2.4c0.1,0.7,0.3,1.4,0.6,2s0.7,1.2,1.2,1.8s1.2,1.2,2,1.8c0.3,0.2,0.7,0.3,1.3,0.4
		s1,0.1,1.4,0.1c0.1,0,0.2,0,0.5,0s0.4,0,0.5,0c0.1-0.2,0.2-0.3,0.4-0.5s0.3-0.3,0.4-0.5c0-0.1,0.1-0.2,0.2-0.5
		c0.1-0.2,0.2-0.5,0.3-0.7s0.2-0.5,0.3-0.7s0.1-0.4,0.2-0.4c0.3-0.6,0.5-1.2,0.5-1.7c0-0.6-0.1-1-0.1-1.4c-0.1-0.7-0.2-1.5-0.3-2.4
		c-0.1-0.8-0.3-1.6-0.5-2.4s-0.6-1.5-1-2.3c-0.5-0.7-1.1-1.3-1.9-1.9c0,0-0.1-0.1-0.3-0.2c-0.1-0.1-0.2-0.1-0.3-0.1
		c-0.3,0-0.5-0.1-0.8-0.1s-0.5-0.1-0.8,0h-0.7l-0.2,0.1c-0.1,0.1-0.2,0.2-0.3,0.4c-0.1,0.2-0.3,0.4-0.4,0.5s-0.3,0.3-0.3,0.5
		s-0.2,0.2-0.2,0.3c-0.6,0.9-1,1.8-1.3,2.7C166.5,27.5,166.3,28.4,166.3,29.4z M167.4,43.8c0,0.1,0,0.2,0.1,0.3s0.2,0.1,0.3,0.1
		s0.3,0,0.4,0s0.3,0,0.4,0h0.6l0.1-0.1l0.1-0.1c0.1-0.1,0.3-0.2,0.6-0.5c0.3-0.2,0.5-0.4,0.6-0.5c-0.1,0-0.2-0.1-0.3-0.1
		s-0.3-0.1-0.5-0.1s-0.4-0.1-0.5-0.1c-0.2,0-0.3-0.1-0.3-0.1l0,0c0,0,0,0-0.1,0h-0.1l-1.3,1c0,0,0,0,0,0.1v0.1H167.4z M173.1,43
		c-0.1,0-0.2,0-0.4,0s-0.4,0-0.5,0c-0.2,0-0.4,0-0.7,0.1c0,0-0.2,0.1-0.4,0.2c-0.2,0.1-0.4,0.3-0.5,0.4c-0.3,0.2-0.4,0.4-0.4,0.6
		h0.6c0.1,0,0.2,0,0.4,0s0.3,0,0.5,0s0.3,0,0.5,0c0.1,0,0.2,0,0.3,0c0.4-0.1,0.7-0.2,0.8-0.4s0.3-0.5,0.4-0.7h-0.3h-0.3V43z
		 M171.3,20.9c-0.3,0.1-0.6,0.2-0.7,0.2c-0.2,0.1-0.3,0.2-0.3,0.5c0.1,0,0.2,0,0.4-0.1c0.2,0,0.3-0.1,0.4-0.1c0,0,0.1-0.1,0.2-0.3
		C171.4,21,171.4,20.9,171.3,20.9L171.3,20.9L171.3,20.9z M171.7,21.6c0,0,0.1,0,0.2,0.1s0.1,0.1,0.2,0.1h0.1h0.1
		c0.2-0.2,0.4-0.4,0.6-0.6s0.5-0.4,0.8-0.5c0,0-0.1,0-0.3,0c-0.1,0-0.2,0-0.3,0c-0.4,0-0.7,0.1-0.9,0.3
		C172,21,171.9,21.3,171.7,21.6z M172.8,21.9c0,0.2,0,0.3,0.1,0.3c0.1,0.1,0.2,0.1,0.4,0.2c0,0,0.1,0,0.1-0.1l0.1-0.1
		c0,0,0.1-0.1,0.2-0.2c0.1-0.1,0.2-0.2,0.2-0.2s0.2-0.1,0.4-0.3c0.2-0.2,0.3-0.2,0.3-0.3v-0.1V21v-0.1c0,0-0.1-0.1-0.3-0.2
		c-0.1-0.1-0.2-0.1-0.3-0.1s-0.3,0-0.4,0.1c-0.1,0.1-0.3,0.2-0.4,0.3c-0.1,0.1-0.2,0.2-0.3,0.3C172.8,21.7,172.8,21.8,172.8,21.9z
		 M173.9,22.6c0,0.2,0.1,0.4,0.4,0.7c0,0,0.1-0.1,0.2-0.1c0.1-0.1,0.1-0.1,0.2-0.1c0,0,0.1-0.1,0.3-0.2c0.1-0.1,0.3-0.3,0.4-0.4
		c0.1-0.1,0.3-0.3,0.4-0.4c0.1-0.1,0.2-0.2,0.3-0.3v-0.1c0-0.1-0.1-0.2-0.2-0.2c-0.1,0-0.2,0-0.3,0c-0.2,0-0.3,0-0.5,0.1
		s-0.4,0.2-0.5,0.3c-0.2,0.1-0.3,0.2-0.4,0.4S173.9,22.5,173.9,22.6z M176.1,42.7c-0.1,0-0.3,0-0.6,0s-0.5,0.1-0.5,0.1
		s-0.1,0.1-0.2,0.1c-0.1,0.1-0.2,0.2-0.3,0.3s-0.2,0.2-0.3,0.3s-0.2,0.1-0.2,0.2c0.2,0,0.5-0.1,0.7-0.2c0.2-0.1,0.4-0.2,0.6-0.3
		c0.1,0,0.3-0.1,0.6-0.2c0.2-0.1,0.3-0.2,0.3-0.2v-0.1H176.1z M174.8,23.9c0,0.1,0,0.2,0,0.3c0,0.1,0.1,0.2,0.2,0.3
		c0,0,0.1-0.1,0.2-0.1c0.1-0.1,0.2-0.1,0.2-0.1s0.1-0.1,0.2-0.2c0.1-0.1,0.3-0.3,0.4-0.4s0.3-0.3,0.4-0.4c0.1-0.1,0.2-0.2,0.3-0.2
		c0,0,0.1-0.1,0.3-0.1c0.1-0.1,0.2-0.1,0.3-0.1v-0.1v-0.1c0-0.1-0.1-0.1-0.3-0.3c-0.1-0.1-0.2-0.2-0.2-0.2h-0.1c-0.1,0-0.1,0-0.2,0
		c-0.2,0-0.4,0.1-0.6,0.2c-0.2,0.1-0.4,0.3-0.5,0.5s-0.3,0.4-0.4,0.6C174.9,23.6,174.8,23.8,174.8,23.9z M178.1,34.6
		c0,0-0.1,0-0.2,0.1s-0.1,0.1-0.2,0.1c-0.2,0.1-0.5,0.2-0.8,0.4s-0.6,0.3-0.8,0.4s-0.5,0.3-0.7,0.5s-0.3,0.4-0.3,0.7
		c0.1,0,0.1-0.1,0.2-0.1l0.1-0.1c0.1-0.1,0.3-0.1,0.5-0.2c0.2-0.1,0.5-0.2,0.7-0.3c0.3-0.1,0.5-0.2,0.7-0.3s0.3-0.2,0.4-0.3
		c0,0,0.1-0.2,0.2-0.3c0.1-0.2,0.1-0.3,0.2-0.4L178.1,34.6L178.1,34.6z M177,36.2c-0.2,0.1-0.6,0.2-0.9,0.4
		c-0.4,0.2-0.7,0.4-0.8,0.5c0,0,0.2-0.1,0.4-0.2c0.2-0.1,0.4-0.2,0.4-0.2c0.1,0,0.2-0.1,0.3-0.1s0.2-0.1,0.3-0.1l0.4-0.2L177,36.2
		L177,36.2z M175.4,25.6c0,0,0.1,0.1,0.1,0.3c0,0.2,0.1,0.2,0.1,0.3h0.1h0.1c0,0,0.1-0.1,0.2-0.2c0.1-0.1,0.2-0.2,0.3-0.3
		c0.1-0.1,0.2-0.2,0.3-0.3s0.2-0.2,0.2-0.2c0.4-0.4,1-0.8,1.6-1c0-0.1-0.1-0.2-0.3-0.4c-0.1-0.2-0.2-0.4-0.3-0.4l-0.2-0.1
		c-0.2,0-0.4,0.1-0.6,0.2c-0.2,0.2-0.4,0.4-0.6,0.6s-0.4,0.5-0.6,0.7s-0.3,0.4-0.4,0.5v0.4l0,0L175.4,25.6L175.4,25.6z M179.2,32.5
		c-0.1,0-0.3,0.1-0.6,0.2c-0.3,0.1-0.6,0.3-0.9,0.4c-0.3,0.2-0.6,0.3-0.9,0.5c-0.3,0.2-0.4,0.3-0.4,0.3l-0.5,1.4
		c0.5-0.2,1-0.3,1.4-0.6s0.8-0.5,1.2-0.7c0.3-0.2,0.6-0.5,0.6-0.7S179.2,32.8,179.2,32.5L179.2,32.5z M176,27.4c0,0,0,0.1,0,0.2
		s0,0.2,0.2,0.2c0.3-0.2,0.6-0.5,0.9-0.8c0.2-0.3,0.5-0.6,0.9-0.8c0,0,0.1-0.1,0.2-0.1c0.1-0.1,0.2-0.1,0.3-0.2s0.2-0.1,0.3-0.2
		s0.2-0.1,0.2-0.1s0.1,0,0.1-0.1l0.1-0.1c0-0.1,0-0.2-0.1-0.3c0-0.1-0.1-0.3-0.1-0.4c-0.1-0.1-0.1-0.2-0.2-0.3
		c-0.1-0.1-0.2-0.2-0.2-0.2c-0.3,0-0.5,0.1-0.8,0.3c-0.3,0.2-0.5,0.4-0.7,0.6s-0.4,0.5-0.6,0.7c-0.2,0.3-0.3,0.5-0.4,0.6v0.4
		L176,27.4L176,27.4z M176.3,28.8c0,0.3,0.1,0.5,0.3,0.8c0.1-0.1,0.2-0.2,0.4-0.3c0.2-0.2,0.4-0.3,0.7-0.5c0.2-0.2,0.5-0.4,0.7-0.5
		c0.2-0.2,0.4-0.3,0.5-0.3c0,0,0.2-0.1,0.4-0.2s0.4-0.2,0.5-0.2v-0.1v-0.1c0-0.1,0-0.1-0.1-0.3s-0.1-0.3-0.1-0.4s-0.1-0.3-0.1-0.4
		s-0.1-0.2-0.1-0.2h-0.1c0,0,0,0-0.1,0c0,0,0,0-0.1,0c-0.3,0.1-0.6,0.3-0.9,0.5c-0.3,0.2-0.6,0.4-0.8,0.6s-0.5,0.4-0.7,0.6
		s-0.3,0.4-0.4,0.5v0.3L176.3,28.8L176.3,28.8z M176.5,30.3c0,0.1,0,0.3-0.1,0.5c0,0.2,0,0.4,0.1,0.5c0.4-0.3,0.9-0.5,1.4-0.8
		s1-0.5,1.5-0.8c0,0,0.1-0.1,0.3-0.1c0.2-0.1,0.3-0.1,0.3-0.1v-0.4c0-0.2,0-0.4-0.1-0.6c0-0.2-0.1-0.4-0.3-0.6
		c-0.2,0.1-0.5,0.2-0.6,0.4c-0.2,0.1-0.3,0.3-0.5,0.4s-0.4,0.3-0.6,0.4s-0.5,0.3-0.8,0.6c0,0-0.1,0.1-0.3,0.2
		c-0.1,0.1-0.2,0.2-0.2,0.2L176.5,30.3L176.5,30.3L176.5,30.3z M179.8,30.1c0,0-0.2,0.1-0.4,0.1c-0.2,0.1-0.3,0.1-0.4,0.1
		c-0.1,0.1-0.3,0.2-0.6,0.3c-0.3,0.1-0.4,0.2-0.5,0.3c-0.1,0.1-0.3,0.2-0.4,0.3c-0.2,0.1-0.3,0.2-0.5,0.4c-0.1,0.1-0.3,0.2-0.4,0.3
		s-0.2,0.2-0.2,0.2v1.3c0.4-0.3,0.9-0.5,1.4-0.7s1-0.4,1.5-0.5c0,0,0.1-0.1,0.1-0.2c0.1-0.1,0.1-0.2,0.1-0.2c0-0.1,0-0.2,0.1-0.3
		c0-0.2,0.1-0.3,0.1-0.5s0.1-0.3,0.1-0.5s0.1-0.2,0.1-0.3h0.1L179.8,30.1L179.8,30.1z"/>
	<path class="st1" d="M193,44.7c-0.1,0-0.3-0.1-0.6-0.1s-0.5-0.1-0.6-0.1c0,0-0.1,0-0.2,0c-0.1,0-0.2,0-0.3,0s-0.2,0-0.3,0
		s-0.2,0-0.2,0s-0.1-0.1-0.2-0.1c-0.1-0.1-0.2-0.1-0.2-0.2V44c0-0.1,0-0.2,0.1-0.3c0-0.2,0.1-0.4,0.1-0.5c0-0.2,0.1-0.4,0.1-0.5
		c0-0.2,0-0.3,0-0.3l-0.1-2.5c0-0.1,0-0.3,0-0.5c0-0.3,0-0.6,0.1-0.9c0-0.3,0.1-0.6,0.1-0.9c0-0.3,0.1-0.5,0.1-0.5v-0.4
		c0-0.2,0-0.6,0-1.2c0-0.6,0-1.3,0-2.2s0-1.7,0-2.6s0-1.8,0-2.6s0-1.5,0-2.2s0-1,0-1.2s0-0.7,0-1.3c0-0.6,0-1.3-0.1-2
		c0-0.7,0-1.4-0.1-2c0-0.6,0-1.1-0.1-1.3L191,17l2.9-2.4c0.1-0.1,0.1-0.1,0.1-0.3c0-0.1,0.1-0.2,0.1-0.4c0-0.1,0.1-0.2,0.2-0.3
		c0.1-0.1,0.2-0.1,0.3-0.1h0.1c0.1,0,0.3,0,0.6,0s0.7,0.1,1.1,0.1c0.4,0,0.8,0.1,1.1,0.1s0.6,0,0.6,0h3.3c0.4,0.2,0.6,0.4,0.8,0.7
		s0.4,0.6,0.6,0.8c1.4,1.8,2.7,3.7,3.9,5.6s2.6,3.7,4.1,5.5c0-0.1,0-0.2,0.1-0.4c0-0.2,0-0.4,0-0.5c0,0,0-0.1-0.1-0.1
		c-0.1-0.1-0.1-0.1-0.1-0.1v-0.1c0,0,0-0.1,0.1-0.1c0-0.1,0.1-0.1,0.1-0.1l-0.1-4.1c0-0.1,0-0.2,0-0.5c0-0.2,0-0.5,0-0.8
		s0-0.6,0-0.8c0-0.3,0-0.5,0-0.6s0-0.2,0-0.3c0-0.1,0-0.3,0-0.4s0-0.3,0-0.4s0-0.2,0-0.2c0.1-0.3,0.3-0.6,0.7-0.8
		c0.3-0.2,0.6-0.4,0.9-0.7c0,0,0.1-0.1,0.2-0.3c0.1-0.2,0.3-0.3,0.4-0.5c0.1-0.2,0.3-0.3,0.4-0.5c0.1-0.2,0.2-0.2,0.2-0.3
		c0.1-0.1,0.1-0.1,0.1-0.2c0,0,0.1,0,0.2,0c0.5,0,0.9,0.1,1.3,0.2c0.4,0.1,0.8,0.2,1.4,0.2h5.4v0.7c0,0.2,0,0.5,0,1.1
		c0,0.6,0,1.3,0,1.9c0,0.7,0,1.3,0,1.9s0,1,0,1.1l0.2,5c0.1,1.9,0.2,3.7,0.3,5.6s0.2,3.7,0.3,5.6v0.4c0,0.1,0,0.3,0,0.5
		s-0.1,0.6-0.1,0.9c0,0.3-0.1,0.6-0.1,0.9c0,0.3-0.1,0.5-0.1,0.5c0,0.2,0,0.4,0,0.7c0,0.2-0.1,0.5-0.3,0.6c0,0.2-0.2,0.4-0.3,0.6
		c-0.2,0.2-0.4,0.3-0.6,0.4c-0.2,0.1-0.5,0.3-0.8,0.4c-0.3,0.2-0.6,0.4-0.8,0.6c0,0-0.1,0-0.2,0.1c-0.1,0-0.2,0-0.2,0
		s-0.1,0.1-0.3,0.2c-0.1,0.1-0.2,0.1-0.2,0.1h-8.1l-0.1-0.1c0,0-0.1-0.1-0.1-0.3s-0.1-0.2-0.1-0.3c0,0-0.1-0.1-0.2-0.3
		c-0.1-0.1-0.2-0.2-0.2-0.3c-0.5-0.6-0.9-1.3-1.2-2s-0.7-1.4-1.2-2c-0.2-0.3-0.5-0.6-0.8-1c-0.4-0.4-0.6-0.7-0.8-0.9
		c0,0-0.1-0.1-0.2-0.3c-0.1-0.2-0.2-0.3-0.2-0.3s0-0.1-0.1-0.1c0-0.1-0.1-0.1-0.1-0.1s-0.1-0.1-0.3-0.1c-0.1-0.1-0.2-0.1-0.3-0.1
		v-0.1c0-0.1,0-0.1,0-0.1c0-0.1-0.1-0.2-0.3-0.4c-0.1-0.2-0.2-0.3-0.2-0.3h-0.6c0,1.2,0.1,2.4,0.3,3.6c0.1,1.2,0.2,2.4,0.2,3.6
		l0.1,0.1c0,0,0,0.1,0,0.2c-0.1,0.1-0.2,0.3-0.4,0.5s-0.5,0.5-1,0.8c-0.1,0.3-0.3,0.5-0.6,0.7s-0.4,0.3-0.5,0.3s-0.3,0-0.6,0
		s-0.4,0-0.6,0.2h-2c0,0.1-0.1,0.1-0.2,0.2c-0.1,0-0.1,0-0.2,0h-0.1c0,0,0,0-0.1,0c0,0-0.1,0-0.1-0.1c0,0,0,0-0.1-0.1
		c0,0-0.1,0-0.3,0c-0.1,0-0.2,0-0.2,0c-0.2,0-0.5,0-0.9,0s-0.9,0-1.3,0c-0.5,0-0.9,0-1.3,0C193.5,44.7,193.2,44.7,193,44.7z
		 M191.1,43.6c0.1,0,0.1,0,0.2-0.1c0,0,0.1,0,0.2-0.1c0.1,0,0.1-0.1,0.2-0.1c0.1,0,0.2-0.1,0.4-0.3c0.2-0.1,0.3-0.2,0.4-0.3
		c0.1-0.1,0.3-0.2,0.5-0.3s0.4-0.3,0.5-0.4c0.2-0.1,0.3-0.2,0.4-0.3c0.1-0.1,0.2-0.2,0.2-0.2l0.1-0.7H194c-1.2,0.5-2,1.2-2.6,2
		l-0.4-0.1L191.1,43.6z M191.1,19.9c0,0,0,0.1,0,0.2s0,0.2,0.1,0.3c0,0.1,0,0.2,0.1,0.3c0,0.1,0,0.2,0.1,0.2
		c0.1-0.1,0.2-0.2,0.4-0.5c0.2-0.2,0.4-0.5,0.6-0.7c0.2-0.3,0.4-0.5,0.6-0.7c0.2-0.2,0.3-0.4,0.4-0.5c0,0,0.1-0.1,0.3-0.2
		c0.1-0.1,0.2-0.2,0.3-0.2h0.1c0,0,0,0,0.1,0v-1.2c-0.6,0.3-1,0.7-1.4,1.2s-0.7,0.9-1.1,1.3c0,0-0.1,0.1-0.2,0.1
		c-0.1,0.1-0.1,0.1-0.1,0.2v0.2H191.1z M191.1,41c0.3-0.5,0.8-1,1.3-1.4s1-0.8,1.6-1.2v-1.2c-0.6,0.3-1.1,0.7-1.5,1.1
		c-0.4,0.4-0.8,0.8-1,1.3h-0.4L191.1,41z M191.6,16.9c-0.3,0.2-0.4,0.5-0.5,0.8c0,0.3-0.1,0.6-0.1,0.8c0,0,0,0.1,0,0.3
		c0,0.1,0,0.2,0,0.3c0,0,0.1,0,0.1-0.1l0.1-0.1c0.1-0.1,0.3-0.3,0.5-0.5s0.4-0.5,0.7-0.7c0.2-0.2,0.4-0.5,0.6-0.7
		c0.2-0.2,0.3-0.3,0.4-0.4l0.1-0.1c0-0.1,0.1-0.1,0.1-0.1s0-0.1,0.1-0.1c0.1-0.1,0.2-0.1,0.2-0.1v-1h-0.2L191.6,16.9z M191.2,42.6
		c0.3-0.4,0.7-0.7,1-0.9c0.4-0.3,0.8-0.5,1.2-0.8c0.1-0.1,0.2-0.1,0.3-0.2c0.1-0.1,0.2-0.2,0.2-0.2l0.1-1.3l-0.1-0.1
		c-0.4,0.2-0.7,0.4-1,0.7c-0.3,0.2-0.6,0.5-0.8,0.8c0,0-0.1,0.1-0.1,0.2c0,0.1-0.1,0.2-0.2,0.3c-0.1,0.1-0.1,0.2-0.1,0.3
		s-0.1,0.1-0.1,0.1l-0.1,0.1c-0.1,0-0.1,0-0.2,0L191.2,42.6z M194,32.7c-0.2,0.2-0.4,0.3-0.6,0.4c-0.1,0.1-0.3,0.2-0.4,0.4
		s-0.3,0.2-0.4,0.3c-0.2,0.2-0.4,0.4-0.8,0.7c-0.3,0.3-0.5,0.6-0.6,0.9c0,0,0,0.1,0,0.2c0,0.1,0,0.2,0,0.4c0,0.1,0,0.3,0,0.4
		c0,0.1,0,0.2,0,0.2c0,0.1,0,0.2,0,0.4s0,0.4,0,0.6s0,0.4,0,0.6c0,0.2,0,0.3,0,0.3V39c0-0.1,0.2-0.2,0.3-0.4
		c0.2-0.2,0.3-0.3,0.3-0.4c0.1-0.1,0.2-0.2,0.4-0.3c0.2-0.2,0.4-0.3,0.6-0.5c0.2-0.2,0.4-0.3,0.6-0.5c0.2-0.2,0.3-0.3,0.4-0.3
		c0.1-0.3,0.2-0.6,0.2-0.8s0-0.5,0-0.8c0,0,0-0.1,0-0.2c0-0.1,0-0.2,0-0.2s-0.1,0.1-0.3,0.2c-0.1,0.1-0.3,0.2-0.4,0.3
		c-0.1,0.1-0.3,0.2-0.4,0.3c-0.1,0.1-0.2,0.2-0.3,0.2c0,0-0.1,0.1-0.2,0.2c-0.1,0.1-0.2,0.2-0.3,0.3s-0.2,0.2-0.3,0.4
		c-0.1,0.1-0.2,0.2-0.2,0.2s-0.1,0.1-0.2,0.1c-0.1,0.1-0.1,0.1-0.2,0.1v-0.1c0-0.1,0-0.3,0.1-0.4c0.1-0.1,0.2-0.3,0.3-0.4
		c0.1-0.1,0.3-0.3,0.4-0.4c0.1-0.1,0.3-0.2,0.3-0.3c0,0,0.1-0.1,0.3-0.2c0.1-0.1,0.3-0.3,0.5-0.4c0.2-0.1,0.3-0.3,0.5-0.4
		c0.1-0.1,0.2-0.2,0.3-0.3c0.1-0.5,0.2-0.9,0.2-1.3H194z M194,18.4c0,0-0.1,0.1-0.2,0.1c-0.1,0.1-0.2,0.1-0.2,0.1
		c0,0.1-0.2,0.2-0.3,0.4c-0.2,0.2-0.3,0.4-0.5,0.6s-0.4,0.4-0.6,0.7c-0.2,0.2-0.3,0.4-0.4,0.5c0,0.1-0.1,0.1-0.2,0.2
		c-0.1,0.1-0.1,0.1-0.2,0.2c-0.1,0.1-0.1,0.2-0.2,0.3l0.1,1.8c0-0.1,0.1-0.1,0.2-0.2s0.1-0.2,0.2-0.2c0.1-0.1,0.2-0.2,0.3-0.4
		c0.1-0.2,0.3-0.3,0.4-0.5c0.1-0.2,0.3-0.3,0.4-0.4c0.1-0.1,0.2-0.2,0.2-0.2c0.2-0.2,0.4-0.4,0.7-0.5c0.2-0.1,0.3-0.3,0.3-0.6V18.4z
		 M191.5,30.4c0,0,0,0.1-0.1,0.2c0,0.1,0,0.2-0.1,0.4s0,0.3-0.1,0.4c0,0.2,0,0.3,0,0.4v0.5c0.2-0.2,0.4-0.5,0.7-0.7s0.5-0.4,0.7-0.6
		c0-0.1,0.1-0.1,0.3-0.3c0.1-0.1,0.3-0.2,0.4-0.4c0.1-0.1,0.3-0.2,0.4-0.4c0.1-0.1,0.2-0.2,0.3-0.3v-0.9c0-0.1,0-0.1,0-0.3
		c0-0.1,0-0.2-0.1-0.4c0-0.1,0-0.3-0.1-0.4c0-0.1,0-0.2-0.1-0.2L191.5,30.4z M192.9,31.2c-0.1,0.1-0.2,0.2-0.3,0.3
		c-0.1,0.1-0.3,0.3-0.4,0.4c-0.1,0.1-0.3,0.3-0.4,0.4c-0.1,0.1-0.3,0.2-0.4,0.3l0.1,1.8h0.1l0.1-0.1c0.2-0.2,0.4-0.4,0.7-0.6
		c0.3-0.3,0.6-0.5,0.8-0.8c0.3-0.3,0.6-0.6,1-0.9l-0.1-1.8c0,0-0.1,0.1-0.2,0.2s-0.2,0.2-0.4,0.3c-0.1,0.1-0.3,0.2-0.4,0.3
		C193,31.1,192.9,31.2,192.9,31.2z M191.4,25.3c0-0.1,0.1-0.2,0.2-0.4c0.1-0.2,0.2-0.3,0.3-0.3c0-0.1,0.1-0.1,0.2-0.2
		s0.1-0.2,0.1-0.2s0.1-0.1,0.3-0.2s0.3-0.3,0.5-0.4s0.3-0.3,0.5-0.4s0.2-0.2,0.3-0.2l0.1-0.1c0-0.1,0.1-0.1,0.1-0.1l-0.1-1.7
		c-0.6,0.4-1,0.8-1.3,1.3s-0.7,1-1,1.4c0,0-0.1,0-0.1,0.1l-0.1,0.1V25.3z M193.8,23.5c-0.6,0.4-1.2,0.9-1.7,1.5
		c-0.5,0.5-0.7,1.1-0.7,1.8c0,0.1,0,0.2,0,0.4c0,0.2,0,0.3,0.1,0.4c0.1-0.2,0.2-0.4,0.3-0.6s0.3-0.4,0.5-0.6c0,0,0.1-0.1,0.2-0.2
		c0.1-0.1,0.3-0.3,0.4-0.4c0.1-0.1,0.3-0.3,0.4-0.4c0.1-0.1,0.2-0.2,0.2-0.2c0.2-0.2,0.3-0.3,0.2-0.5c0-0.2,0-0.3-0.1-0.5
		c0-0.1,0-0.2,0-0.4S193.8,23.5,193.8,23.5z M193.7,25.6c0,0-0.1,0.1-0.2,0.2s-0.2,0.2-0.4,0.3c-0.1,0.1-0.3,0.2-0.4,0.3
		s-0.2,0.2-0.2,0.2c-0.1,0.1-0.2,0.2-0.3,0.3c-0.1,0.2-0.2,0.3-0.3,0.5s-0.2,0.3-0.3,0.5c-0.1,0.1-0.1,0.2-0.1,0.3c0,0,0,0.1,0,0.3
		c0,0.2,0,0.3,0,0.4s0,0.2,0,0.4c0,0.2,0,0.3,0.1,0.4l0.2-0.1l1.9-2.5V25.6z M191.6,44c0.2,0.1,0.5,0.2,0.8,0.3s0.6,0.1,0.8,0.1h0.1
		c0,0,0.1-0.1,0.1-0.2s0.1-0.2,0.2-0.2c0-0.1,0.1-0.2,0.3-0.3c0.1-0.2,0.2-0.3,0.4-0.5c0.1-0.2,0.2-0.3,0.3-0.5s0.2-0.3,0.2-0.3
		l-0.9-0.1c-0.4,0.3-0.8,0.6-1.2,0.9C192.3,43.3,192,43.6,191.6,44z M196.4,42.2c-0.3,0-0.6,0.1-0.9,0.2c-0.2,0.1-0.4,0.3-0.6,0.5
		s-0.3,0.4-0.4,0.7c-0.1,0.2-0.2,0.5-0.3,0.6l0,0c0,0,0,0,0,0.1v0.1c0,0,0.1,0,0.3,0c0.1,0,0.3,0,0.5,0s0.3,0,0.5,0s0.3,0,0.3,0
		s0.1,0,0.2-0.1c0.1,0,0.1-0.1,0.1-0.1l1.2-1.9c0,0-0.2,0-0.4-0.1s-0.3-0.1-0.4-0.1L196.4,42.2L196.4,42.2z M196.6,44.2
		c0,0.1,0.2,0.2,0.3,0.2c0.2,0,0.3,0.1,0.4,0.1c0.1,0,0.3,0,0.5,0s0.3-0.1,0.4-0.1c0,0,0.1-0.2,0.1-0.3c0.1-0.2,0.1-0.3,0.1-0.3
		c0-0.1,0.1-0.1,0.2-0.3c0.1-0.1,0.2-0.3,0.3-0.4s0.2-0.3,0.3-0.4s0.2-0.2,0.2-0.3c0,0-0.2,0-0.3,0c-0.2,0-0.3,0-0.3,0
		c-0.1,0-0.2,0-0.4,0s-0.3,0-0.3,0s-0.2,0.1-0.3,0.2c-0.2,0.1-0.3,0.2-0.4,0.3c0,0.1-0.1,0.1-0.2,0.3c-0.1,0.1-0.2,0.3-0.2,0.4
		c-0.1,0.1-0.2,0.3-0.2,0.4C196.7,44.1,196.6,44.2,196.6,44.2z M200,42.3c-0.1,0.1-0.2,0.2-0.3,0.3c-0.1,0.2-0.3,0.3-0.4,0.5
		c-0.1,0.2-0.3,0.3-0.4,0.6c-0.2,0.2-0.2,0.4-0.2,0.7h1.4c0,0,0.1,0,0.1-0.1l0.1-0.1c0.3-0.4,0.5-0.7,0.7-1s0.5-0.6,0.8-0.9H200z
		 M202.4,42.2c-0.1,0.1-0.2,0.2-0.3,0.3s-0.2,0.2-0.3,0.3s-0.2,0.2-0.2,0.2c-0.1,0.2-0.3,0.4-0.5,0.6c-0.2,0.2-0.2,0.4-0.2,0.7h0.7
		c0.2-0.2,0.5-0.3,0.6-0.5c0.2-0.1,0.3-0.3,0.5-0.4c0.2-0.1,0.3-0.3,0.4-0.4c0.1,0,0.2-0.1,0.4-0.3s0.3-0.3,0.3-0.3
		c-0.1-0.1-0.3-0.1-0.5-0.1s-0.3,0-0.5,0L202.4,42.2L202.4,42.2z M203.5,32c0-0.1,0.1-0.3,0.2-0.5c0.1-0.2,0.2-0.4,0.2-0.6v-0.1
		c0-0.2-0.1-0.4-0.3-0.7s-0.3-0.5-0.4-0.7l0.1,2.2L203.5,32z M203.6,33.5c0,0.2,0,0.3,0,0.4c0,0.1,0.1,0.3,0.1,0.5
		c0.1-0.3,0.2-0.5,0.3-0.8s0.3-0.6,0.5-0.8c0,0,0.1,0,0.2-0.1c0.1-0.1,0.2-0.1,0.2-0.2v-0.1l0,0l0,0c0-0.1-0.1-0.3-0.2-0.4
		c-0.1-0.2-0.3-0.3-0.4-0.4c-0.1,0.1-0.2,0.2-0.3,0.3c-0.1,0.2-0.2,0.4-0.2,0.6c-0.1,0.2-0.1,0.4-0.2,0.6
		C203.6,33.2,203.6,33.4,203.6,33.5z M204.4,33.9c0,0.2,0,0.3,0.1,0.5s0.2,0.3,0.4,0.4c0.1-0.2,0.3-0.4,0.4-0.6
		c0.2-0.2,0.2-0.4,0.2-0.7c0-0.2,0-0.3-0.1-0.5s-0.2-0.3-0.4-0.4c0,0-0.1,0.1-0.1,0.2c-0.1,0.1-0.1,0.2-0.2,0.4
		c-0.1,0.1-0.1,0.2-0.2,0.4C204.4,33.7,204.4,33.8,204.4,33.9L204.4,33.9L204.4,33.9z M206.3,36.6L206.3,36.6
		c0.1-0.1,0.2-0.1,0.2-0.1c0-0.1,0.1-0.2,0.2-0.3s0.1-0.2,0.2-0.3c0.1-0.1,0.1-0.3,0.2-0.4l-0.9-1.3h-0.1c-0.1,0-0.2,0.1-0.3,0.2
		c-0.1,0.1-0.1,0.2-0.2,0.2c0,0.2-0.1,0.3-0.2,0.5c0,0.1-0.1,0.2-0.1,0.3L206.3,36.6z M206.8,37.1c0,0.1,0.1,0.2,0.3,0.4
		s0.3,0.4,0.4,0.5l0.2,0.1c0-0.1,0.1-0.2,0.3-0.5c0.1-0.2,0.2-0.4,0.2-0.5V37l0,0l0,0c0,0,0,0,0-0.1v-0.1c0,0-0.1-0.1-0.1-0.2
		c-0.1-0.1-0.1-0.2-0.2-0.3c-0.1-0.1-0.2-0.2-0.2-0.3s-0.1-0.2-0.1-0.2c-0.2,0.1-0.4,0.3-0.5,0.5C206.9,36.6,206.8,36.8,206.8,37.1
		L206.8,37.1z M208.3,38.5c0,0.2,0.1,0.4,0.1,0.5c0.1,0.2,0.2,0.3,0.3,0.5c0.2-0.1,0.3-0.2,0.5-0.4c0.1-0.2,0.2-0.4,0.2-0.5v-0.1
		c-0.1-0.1-0.2-0.3-0.3-0.5s-0.2-0.3-0.2-0.3h-0.2c0,0-0.1,0.1-0.2,0.2c-0.1,0.1-0.2,0.2-0.2,0.3L208.3,38.5L208.3,38.5z
		 M209.3,40.2c0,0.1,0,0.2,0.1,0.4c0,0.2,0.1,0.3,0.3,0.4c0-0.1,0.2-0.2,0.3-0.5c0.2-0.3,0.3-0.4,0.3-0.5v-0.1c0,0,0-0.1-0.1-0.1
		c0-0.1-0.1-0.1-0.1-0.2c0-0.1-0.1-0.2-0.1-0.2c-0.1-0.1-0.1-0.1-0.2-0.1c-0.1,0-0.2,0-0.3,0.1s-0.1,0.2-0.2,0.3
		c0,0.1-0.1,0.2-0.1,0.4C209.3,40.1,209.3,40.2,209.3,40.2z M210,41.6c0,0.1,0,0.3,0.1,0.4c0,0.1,0.2,0.2,0.3,0.3
		c0-0.1,0.2-0.3,0.3-0.6c0.2-0.3,0.3-0.5,0.3-0.6V41l0,0l0,0c0-0.1,0-0.3-0.1-0.4c-0.1-0.1-0.2-0.2-0.3-0.3
		c-0.2,0.1-0.4,0.3-0.5,0.6S210,41.5,210,41.6z M210.9,42.8c0,0.1,0,0.2,0.1,0.3c0,0.2,0.1,0.3,0.3,0.3h0.1l1-0.8v-0.1v-0.1
		c0,0,0,0,0-0.1c0,0,0,0,0-0.1v-0.1c-0.1-0.1-0.2-0.2-0.4-0.4s-0.3-0.3-0.3-0.3h-0.1c0,0.1-0.1,0.1-0.1,0.2c0,0.1-0.1,0.1-0.1,0.2
		c0,0.1-0.1,0.1-0.1,0.2c-0.1,0.2-0.2,0.3-0.2,0.4C210.9,42.5,210.9,42.6,210.9,42.8z M213.8,16.6c-0.2,0-0.3,0.1-0.4,0.2l-2,2.4
		c0,0.2,0,0.3-0.1,0.4c0,0.1,0,0.2,0,0.4c0,0.1,0,0.2,0,0.3v0.1c0,0.1,0,0.1,0,0.1h0.2c0.2-0.2,0.5-0.4,0.6-0.6
		c0.2-0.2,0.3-0.3,0.5-0.5s0.3-0.3,0.4-0.4c0.1-0.1,0.2-0.2,0.4-0.5c0.2-0.2,0.3-0.3,0.3-0.4s0.1-0.2,0.1-0.3c0-0.2,0-0.3,0.1-0.5
		c0-0.2,0-0.3,0-0.5C213.8,16.8,213.8,16.7,213.8,16.6z M211.4,22.4h0.3c0.2-0.1,0.3-0.2,0.4-0.3s0.2-0.2,0.3-0.3
		c0.1-0.1,0.2-0.2,0.2-0.2s0.1-0.1,0.2-0.2c0.1-0.1,0.2-0.2,0.3-0.3c0.1-0.1,0.2-0.2,0.3-0.3s0.1-0.1,0.2-0.2c0,0,0.1-0.1,0.1-0.2
		s0.1-0.2,0.1-0.2s0-0.1,0-0.3c0-0.2,0-0.3,0-0.4c0,0,0-0.1,0-0.3c0-0.2,0-0.3,0-0.3c-0.1,0.1-0.3,0.3-0.6,0.5
		c-0.2,0.2-0.4,0.5-0.7,0.7c-0.2,0.2-0.5,0.5-0.7,0.7s-0.4,0.3-0.5,0.3L211.4,22.4z M213.4,14.9c0,0-0.1,0.1-0.3,0.3
		c-0.1,0.2-0.2,0.2-0.2,0.3c0,0-0.1,0.1-0.2,0.2c-0.1,0.1-0.2,0.2-0.3,0.3s-0.2,0.2-0.3,0.3c-0.1,0.1-0.1,0.2-0.2,0.2
		c-0.2,0.3-0.4,0.6-0.4,0.9s-0.1,0.6,0,1v0.3l0.2-0.1c0-0.1,0.2-0.2,0.3-0.4c0.2-0.2,0.4-0.4,0.6-0.7c0.2-0.2,0.4-0.5,0.6-0.7
		c0.2-0.2,0.3-0.3,0.3-0.4c0,0,0.1-0.1,0.2-0.1c0.1-0.1,0.1-0.1,0.1-0.2v-0.2c0-0.3-0.1-0.6-0.2-1L213.4,14.9z M213.2,23.3
		c-0.1,0.1-0.2,0.2-0.3,0.3c-0.1,0.1-0.3,0.3-0.5,0.5s-0.3,0.3-0.4,0.4c-0.1,0.1-0.2,0.2-0.3,0.3l-0.1,0.1c0,0.1-0.1,0.1-0.1,0.1
		l0.1,1.7h0.1l0,0l0,0c0,0,0.2-0.1,0.3-0.3c0.2-0.1,0.3-0.2,0.4-0.3c0,0,0.2-0.2,0.4-0.4c0.2-0.2,0.3-0.3,0.4-0.4l0.1-0.1
		c0-0.1,0.1-0.1,0.1-0.2c0.1-0.1,0.1-0.1,0.2-0.2l-0.1-1.9L213.2,23.3z M213.6,21.2c0,0.1-0.2,0.2-0.3,0.3c-0.2,0.2-0.3,0.3-0.3,0.3
		l-1.2,0.9c-0.1,0.1-0.2,0.3-0.2,0.4s0,0.3,0.1,0.4v0.6c0,0,0.1-0.1,0.2-0.1c0.1-0.1,0.2-0.1,0.2-0.1s0.1-0.1,0.2-0.2
		s0.2-0.3,0.4-0.4c0.1-0.1,0.3-0.3,0.4-0.4s0.2-0.2,0.2-0.2l0.5-0.4c0.1-0.1,0.2-0.3,0.2-0.6c0-0.3,0-0.5,0-0.6h-0.4V21.2z
		 M211.6,27.4c0,0.1,0.1,0.2,0.2,0.4s0.2,0.3,0.3,0.3l0,0l0,0l0,0c0.1-0.2,0.3-0.3,0.5-0.5s0.4-0.3,0.5-0.5c0.2-0.2,0.3-0.4,0.4-0.5
		c0.1-0.2,0.1-0.4,0.1-0.6c0,0,0-0.1,0-0.2s0-0.2,0-0.2s-0.2,0.1-0.3,0.2c-0.2,0.1-0.3,0.2-0.3,0.2c-0.1,0.1-0.2,0.1-0.3,0.3
		c-0.1,0.1-0.3,0.3-0.5,0.4c-0.2,0.2-0.3,0.3-0.4,0.4C211.7,27.2,211.6,27.3,211.6,27.4z M211.8,43.5c0.1,0,0.2,0.1,0.5,0.1
		c0.2,0,0.4,0,0.4,0s0.1,0,0.3,0s0.2-0.1,0.2-0.1l1.4-1.1c0,0-0.2,0-0.3,0c-0.2,0-0.3,0-0.3,0c-0.5,0-0.9,0.1-1.2,0.4
		C212.5,43,212.1,43.3,211.8,43.5z M212.5,28.6c0,0.1,0.1,0.2,0.2,0.5c0.1,0.2,0.2,0.4,0.3,0.5c0.2-0.1,0.4-0.2,0.4-0.5
		s0.1-0.5,0.2-0.6c0,0,0.1-0.1,0.1-0.2c0.1-0.1,0.1-0.2,0.1-0.2V28v-0.1v-0.1c0,0,0-0.1,0-0.2s0-0.2-0.1-0.2
		c-0.2,0.2-0.4,0.3-0.7,0.6c-0.3,0.2-0.5,0.4-0.6,0.6l0,0L212.5,28.6L212.5,28.6z M213.8,29.4c-0.1,0.2-0.2,0.3-0.2,0.5s0,0.4,0,0.5
		h0.2L214,29L213.8,29.4z M214.1,43.5c0,0,0,0.1,0.1,0.1s0.2,0.1,0.3,0.1s0.2,0.1,0.3,0.1s0.1,0,0.2,0h0.1c0.2,0,0.4,0,0.4-0.1
		s0.1-0.2,0.1-0.4c0.1-0.1,0.2-0.3,0.3-0.4c0.1-0.1,0.3-0.2,0.5-0.3s0.3-0.2,0.4-0.3c0.1-0.1,0.2-0.2,0.2-0.2s0,0,0-0.1
		c-0.1,0-0.3,0-0.5,0.1c-0.3,0-0.5,0.1-0.5,0.1c-0.1,0-0.2,0-0.3,0.1c-0.1,0-0.2,0.1-0.2,0.1L214.1,43.5L214.1,43.5z M217.3,43.5
		l1.8-1.5c-0.2,0-0.4,0-0.5,0s-0.2,0-0.3,0s-0.2,0-0.4,0.1c-0.2,0-0.3,0.1-0.3,0.1s-0.1,0.1-0.2,0.1c-0.1,0.1-0.2,0.2-0.3,0.3
		s-0.2,0.2-0.4,0.3c-0.1,0.1-0.2,0.2-0.3,0.2c0,0,0,0.1-0.1,0.1c0,0.1,0,0.1-0.1,0.2c0,0,0,0,0,0.1v0.1L217.3,43.5L217.3,43.5z
		 M221.5,42c-0.1,0-0.4,0-0.8,0c-0.4,0-0.7,0-1.1,0v0.1c-0.1,0.1-0.2,0.1-0.3,0.3c-0.2,0.1-0.3,0.3-0.5,0.4
		c-0.2,0.1-0.3,0.3-0.4,0.4s-0.2,0.3-0.3,0.4h0.1c0.6,0,1.2-0.2,1.7-0.5s1-0.6,1.5-0.9l0.1-0.1V42z"/>
</g>
<g class="st0">
	<path class="st1" d="M232.5,44.7c-0.1,0-0.3-0.1-0.6-0.1c-0.2-0.1-0.5-0.1-0.6-0.2c-0.1-0.1-0.2-0.2-0.2-0.4s0-0.3-0.1-0.4
		c0-1.7,0-3.3,0-5c0,0,0-0.1,0-0.2c0-0.1,0-0.3,0-0.4c0-0.1,0-0.3,0.1-0.4c0-0.1,0-0.2,0-0.2s0-0.1,0-0.2c0-0.1,0-0.2,0-0.3
		s0-0.2,0-0.3s0-0.2,0-0.2c0-0.1,0-0.2,0-0.4s0-0.4,0-0.6c0-0.2,0-0.4,0.1-0.6c0-0.2,0-0.3,0.1-0.4v-4.2c0-0.1,0-0.2,0-0.3
		c0-0.1,0-0.3,0-0.4c0-0.2,0-0.3,0.1-0.4s0-0.2,0-0.3v-5.1v-0.1c0-0.1,0-0.3-0.1-0.5c0-0.2,0-0.3-0.1-0.4c0-0.2-0.2-0.2-0.5-0.2
		s-0.5,0-0.6,0c-0.8,0-1.7,0.1-2.5,0.2s-1.6,0.2-2.4,0.2h-0.1H225c0,0-0.1,0-0.1-0.1s-0.1-0.1-0.1-0.2c0,0,0-0.1,0-0.2
		s0-0.3,0.1-0.4c0-0.1,0-0.3,0-0.4s0-0.2,0-0.2c0-0.1-0.1-0.3-0.1-0.7c0-0.4,0-0.8,0.1-1.3c0-0.5,0.1-0.9,0.1-1.3s0.1-0.6,0.1-0.7
		v-0.7c0-0.1,0.1-0.3,0.2-0.5c0.1-0.2,0.3-0.4,0.5-0.6c0.2-0.2,0.4-0.4,0.6-0.6c0.2-0.2,0.3-0.3,0.4-0.4c0.2-0.2,0.4-0.4,0.6-0.5
		s0.3-0.2,0.4-0.2c0.1,0,0.3,0,0.5,0s0.4,0,0.7,0c0.1,0,0.3,0,0.6,0s0.6,0,0.9,0s0.6,0,0.9,0c0.3,0,0.5,0,0.6,0
		c1.9,0,3.8-0.1,5.7-0.2c1.9-0.1,3.7-0.2,5.6-0.2c0.1,0,0.3,0,0.7,0s0.8,0,1.3,0s0.9,0,1.3,0s0.7,0,0.8,0h0.2l0.1,0.1
		c0.1,1,0.1,2.1,0,3.1s-0.1,2-0.1,3c-0.2,0.3-0.5,0.5-0.8,0.7s-0.5,0.5-0.7,0.8c0,0.1-0.1,0.1-0.2,0.3s-0.2,0.3-0.3,0.4
		s-0.2,0.3-0.3,0.4s-0.2,0.2-0.2,0.2c-0.2,0-0.4,0-0.6,0s-0.5,0-0.8,0s-0.5,0-0.8,0c-0.2,0-0.5,0-0.6,0.1c0,0-0.1,0-0.2,0
		c-0.1,0-0.1,0-0.2,0c-0.1,0-0.2,0-0.2,0.1l-0.1,0.9l-0.2,15.1c0.1,0.4,0.1,0.8,0.1,1.2s0,0.8,0,1.3c0,0.1,0,0.2,0,0.3s0,0.2,0,0.4
		c0,0.1,0,0.3,0,0.4V43l-1.3,1.8h-0.3c0,0-0.1,0-0.2,0c-0.1,0-0.2,0-0.2,0L232.5,44.7z M227.7,16.2c-0.2,0-0.3,0-0.3,0
		s-0.1,0.1-0.1,0.2c-0.1,0.1-0.2,0.2-0.3,0.3c-0.1,0.2-0.3,0.3-0.5,0.5s-0.3,0.4-0.5,0.5c-0.2,0.2-0.3,0.3-0.3,0.3
		c-0.1,0.2-0.2,0.3-0.2,0.3c0,0.1,0,0.2,0,0.4v0.4c0,0,0.1,0,0.1-0.1l0.1-0.1c0,0,0.1-0.1,0.2-0.2c0.1-0.1,0.2-0.2,0.3-0.3
		c0.1-0.1,0.2-0.2,0.2-0.3c0.1-0.1,0.1-0.1,0.1-0.2c0,0,0.1-0.1,0.2-0.1c0.1-0.1,0.3-0.2,0.4-0.3c0.1-0.1,0.3-0.2,0.4-0.3
		c0.1-0.1,0.2-0.1,0.2-0.2c0,0,0.1-0.1,0.1-0.2s0.1-0.2,0.1-0.3c0-0.1,0-0.2,0-0.3C227.7,16.4,227.7,16.3,227.7,16.2z M225.4,20
		c0,0.1,0,0.2,0.1,0.3c0,0.1,0,0.2,0.1,0.3c0.1-0.2,0.3-0.4,0.5-0.6s0.4-0.4,0.6-0.6c0.2-0.2,0.4-0.4,0.5-0.6
		c0.2-0.2,0.3-0.4,0.3-0.5c0,0,0-0.1,0-0.2s0-0.1,0-0.2c-0.4,0.2-0.8,0.5-1.1,0.9s-0.6,0.7-0.9,1.1V20H225.4z M225.4,21.9l1.9-1.8
		l0.1-0.8c-0.8,0.7-1.3,1.2-1.5,1.6C225.6,21.3,225.5,21.6,225.4,21.9L225.4,21.9z M227.6,14.6c0,0-0.1,0.1-0.3,0.2
		c-0.1,0.1-0.2,0.2-0.3,0.2c-0.1,0.1-0.2,0.3-0.4,0.4c-0.2,0.2-0.3,0.4-0.5,0.5c-0.1,0.2-0.3,0.3-0.4,0.5c-0.1,0.1-0.2,0.2-0.2,0.2
		l-0.1,0.8c0.1-0.1,0.3-0.3,0.6-0.5c0.2-0.2,0.5-0.5,0.7-0.7c0.2-0.3,0.4-0.5,0.6-0.8c0.2-0.2,0.3-0.4,0.3-0.6L227.6,14.6
		L227.6,14.6C227.6,14.7,227.6,14.6,227.6,14.6z M227.9,20.7c-0.3,0-0.5,0.1-0.7,0.2s-0.4,0.3-0.5,0.5s-0.3,0.3-0.4,0.5
		c-0.1,0.2-0.3,0.3-0.4,0.3c0,0,0.2,0,0.4,0c0.5,0,0.9-0.1,1.1-0.4c0.2-0.3,0.4-0.6,0.6-1v-0.1H227.9z M229,20.6
		c-0.4,0-0.7,0.2-0.9,0.5c-0.3,0.3-0.4,0.6-0.4,0.9h1c0.1-0.2,0.2-0.3,0.3-0.4c0.2-0.2,0.3-0.4,0.5-0.7v-0.1c0-0.1,0-0.2-0.1-0.2
		C229.2,20.6,229.1,20.6,229,20.6z M230.7,20.6c-0.1,0-0.3,0.1-0.4,0.2c-0.1,0.1-0.3,0.2-0.4,0.4s-0.2,0.3-0.3,0.4
		c-0.1,0.2-0.1,0.3-0.1,0.3c0.4,0,0.7-0.1,0.8-0.4c0.2-0.3,0.4-0.5,0.6-0.8c0,0,0,0-0.1-0.1C230.8,20.7,230.8,20.7,230.7,20.6
		L230.7,20.6z M232,20.7c-0.1,0-0.3,0-0.3,0c-0.1,0-0.1,0.1-0.2,0.2c-0.1,0.1-0.3,0.2-0.4,0.4c-0.2,0.2-0.3,0.4-0.3,0.5h0.6l1-1.1
		H232z M234,35.4c-0.3,0.2-0.6,0.5-0.9,0.8c-0.3,0.4-0.5,0.6-0.7,0.9c0,0.1-0.1,0.1-0.2,0.2s-0.1,0.2-0.2,0.3
		c-0.1,0.1-0.2,0.2-0.2,0.3s0,0.2-0.1,0.3c0,0.1-0.1,0.3-0.1,0.5s-0.1,0.3-0.1,0.5c0,0.1-0.1,0.2-0.1,0.3l0.1,0.2
		c0-0.1,0.1-0.2,0.3-0.3c0.2-0.2,0.3-0.3,0.5-0.5s0.3-0.3,0.5-0.5s0.3-0.3,0.3-0.3c0.2-0.2,0.5-0.3,0.7-0.4l0.1-0.8
		c0-0.3,0-0.5,0.1-0.7C234.1,35.9,234.1,35.7,234,35.4z M231.7,42.6c0,0,0,0.1,0,0.2c0,0.1,0,0.2,0,0.3s0,0.2,0.1,0.2
		c0,0.1,0.1,0.1,0.2,0.1h0.1c0.2,0,0.4-0.1,0.7-0.2c0.3-0.1,0.4-0.2,0.5-0.2c0,0,0.1-0.1,0.2-0.2c0.1-0.1,0.2-0.1,0.2-0.2
		c0-0.2,0-0.3,0-0.5c0-0.1,0-0.3,0-0.5l0.2-1.7c-0.2,0.1-0.4,0.3-0.6,0.5c-0.2,0.2-0.5,0.5-0.7,0.7c-0.2,0.3-0.4,0.5-0.5,0.8
		C231.8,42.2,231.7,42.4,231.7,42.6z M231.7,40.5c0,0.1,0,0.2,0,0.4c0,0.1,0,0.2,0.1,0.3l0,0c0,0,0,0,0.1,0s0.1,0,0.1-0.1
		c0.1-0.1,0.3-0.3,0.5-0.5s0.4-0.4,0.6-0.7c0.2-0.2,0.4-0.5,0.7-0.8l0.1-1c-0.2,0.1-0.4,0.3-0.7,0.5c-0.2,0.2-0.5,0.4-0.7,0.6
		s-0.4,0.4-0.6,0.6S231.7,40.3,231.7,40.5z M234.2,33c-0.7,0.6-1.2,1.2-1.5,1.6c-0.3,0.4-0.6,0.8-0.9,1.1c0,0,0,0.1-0.1,0.3
		c0,0.2,0,0.3-0.1,0.4v0.8c0,0,0.1-0.1,0.2-0.1c0.1-0.1,0.2-0.1,0.2-0.2c0.3-0.4,0.6-0.7,0.9-1c0.2-0.3,0.6-0.6,1.1-0.9L234.2,33z
		 M231.8,33.8c0,0.2,0,0.3,0,0.5c0,0.1,0.1,0.3,0.1,0.4c0.4-0.3,0.8-0.7,1.1-1.2s0.7-0.9,1.2-1.2v-0.1c0-0.1,0-0.3,0-0.7s0-0.7,0-1
		c-0.2,0.2-0.4,0.4-0.6,0.6c-0.2,0.3-0.4,0.5-0.6,0.8c-0.2,0.3-0.4,0.5-0.5,0.7c-0.2,0.2-0.3,0.3-0.3,0.3c0,0.1-0.1,0.2-0.2,0.3
		c-0.1,0.1-0.2,0.2-0.2,0.2v0.1C231.8,33.7,231.8,33.7,231.8,33.8L231.8,33.8z M232.7,31.9c0,0,0.1-0.1,0.3-0.3
		c0.2-0.2,0.3-0.4,0.5-0.6s0.4-0.4,0.5-0.6c0.2-0.2,0.3-0.3,0.3-0.4v-1c-0.1,0.1-0.2,0.2-0.3,0.3c-0.1,0.1-0.2,0.2-0.3,0.2
		c-0.1,0.1-0.2,0.2-0.3,0.3c0,0-0.1,0.1-0.2,0.2c-0.1,0.1-0.2,0.2-0.4,0.3c-0.1,0.1-0.3,0.2-0.4,0.4s-0.2,0.2-0.2,0.3
		c0,0-0.1,0.1-0.1,0.2s-0.1,0.2-0.1,0.3c0,0.1-0.1,0.2-0.1,0.3c0,0.1-0.1,0.2-0.1,0.2c0,0.1,0,0.2,0.1,0.3c0,0.2,0.1,0.3,0.1,0.3
		c0.1-0.1,0.2-0.2,0.4-0.4C232.5,32.1,232.6,31.9,232.7,31.9z M231.9,30.7c0.1-0.1,0.3-0.2,0.6-0.4s0.4-0.4,0.7-0.6s0.4-0.5,0.6-0.7
		c0.2-0.2,0.4-0.4,0.5-0.5l0.1-0.1c0-0.2,0-0.4,0-0.5c0-0.2,0-0.3,0-0.4h-0.2l-0.6,0.5c0,0-0.1,0.1-0.2,0.2
		c-0.1,0.1-0.2,0.2-0.3,0.4c-0.1,0.1-0.2,0.2-0.4,0.4c-0.1,0.1-0.2,0.2-0.3,0.3c0,0.1-0.1,0.2-0.2,0.3c-0.1,0.1-0.2,0.2-0.2,0.2
		L231.9,30.7z M232,24.4c0,0.2,0,0.3,0,0.6c0,0.2,0,0.4,0.1,0.6h0.1l0,0l0,0l0,0c0.6-0.5,1-1,1.5-1.5c0.4-0.5,0.6-1.1,0.7-1.7h-0.1
		h-0.1c0,0-0.1,0.1-0.3,0.1c-0.2,0.1-0.3,0.1-0.3,0.1s-0.1,0-0.2,0.1c-0.1,0-0.2,0.1-0.3,0.1c-0.4,0.2-0.7,0.4-0.8,0.7
		C232.1,23.7,232,24,232,24.4z M234.1,21.4c-0.1,0-0.2,0-0.4,0.1s-0.3,0.1-0.5,0.2s-0.3,0.2-0.5,0.3c-0.2,0.1-0.3,0.2-0.3,0.2
		s-0.1,0-0.2,0.1c-0.1,0-0.2,0.1-0.2,0.1s0,0,0,0.1s0,0.1,0,0.2c0,0,0,0.1,0,0.2s0,0.1,0,0.1s0.1-0.1,0.3-0.2
		c0.1-0.1,0.2-0.2,0.3-0.2c0,0,0.1,0,0.3-0.1c0.1,0,0.2-0.1,0.3-0.1c0,0,0.1-0.1,0.3-0.2s0.3-0.2,0.3-0.2s0.1,0,0.2-0.1
		c0,0,0.1-0.1,0.2-0.2c0.1-0.1,0.2-0.2,0.2-0.2L234.1,21.4C234.2,21.5,234.1,21.5,234.1,21.4z M234.1,20.6c-0.1,0-0.3,0.1-0.5,0.1
		s-0.3,0-0.4,0c0,0-0.2,0.1-0.4,0.3c-0.2,0.2-0.4,0.3-0.5,0.4l-0.1,0.1c-0.1,0.1-0.1,0.1-0.1,0.1h0.2c0.3-0.1,0.7-0.3,1.2-0.4
		s0.7-0.4,0.9-0.7h-0.3V20.6z M234.3,23.9c0,0-0.1,0.1-0.2,0.1c-0.1,0.1-0.2,0.1-0.2,0.1c-0.1,0.1-0.3,0.3-0.5,0.5s-0.4,0.4-0.6,0.6
		s-0.4,0.4-0.7,0.7l-0.1,1.4l0.1-0.1l0.1-0.1c0.1-0.1,0.2-0.2,0.4-0.4c0.2-0.2,0.4-0.4,0.7-0.6c0.2-0.2,0.5-0.4,0.7-0.6
		s0.3-0.3,0.4-0.4V25c0-0.1,0-0.3,0-0.5C234.4,24.2,234.4,24,234.3,23.9z M234.5,25.8c-0.1,0-0.2,0.1-0.3,0.2s-0.2,0.1-0.2,0.2
		c-0.1,0.1-0.3,0.3-0.5,0.5s-0.4,0.4-0.6,0.6c-0.2,0.2-0.3,0.4-0.5,0.5s-0.2,0.2-0.2,0.2l-0.1,0.8l0.4-0.3c0.1-0.1,0.2-0.2,0.3-0.3
		c0.1-0.1,0.3-0.3,0.5-0.5s0.3-0.3,0.5-0.5c0.1-0.1,0.2-0.2,0.3-0.3l0.4-0.2L234.5,25.8z M232.1,43.9c0,0.1,0.1,0.1,0.2,0.2
		c0.1,0,0.1,0,0.2,0l0,0c0,0,0,0,0.1,0c0,0,0,0,0.1,0c0,0,0.2-0.1,0.4-0.2c0.2-0.1,0.3-0.2,0.4-0.3v-0.1c-0.1,0-0.3,0.1-0.6,0.2
		c-0.3,0.1-0.5,0.2-0.5,0.2s-0.1,0-0.1,0.1C232.1,43.9,232.1,43.9,232.1,43.9z M234.3,43.2l-0.2,0.1c-0.1,0.1-0.2,0.2-0.3,0.4
		s-0.2,0.3-0.3,0.3c0,0,0,0,0,0.1v0.1h1.6c0-0.1,0.1-0.2,0.2-0.3c0-0.1,0.1-0.2,0.2-0.2c0.1-0.1,0.1-0.1,0.2-0.2l0.2-0.3L234.3,43.2
		z M235.8,44c0,0.1,0,0.2,0.1,0.2s0.2,0,0.3,0c0.3,0,0.6-0.1,0.8-0.4c0.2-0.3,0.3-0.5,0.5-0.7c0,0-0.1,0-0.2,0c-0.1,0-0.2,0-0.2,0
		c-0.3,0-0.6,0.1-0.8,0.3C236,43.6,235.8,43.8,235.8,44z M237.4,44.1c0,0.1,0.1,0.1,0.3,0.1s0.3,0,0.3,0c0.4,0,0.8-0.2,1-0.5
		s0.4-0.6,0.5-0.9c-0.4,0-0.8,0.1-1.1,0.2c-0.3,0.1-0.6,0.4-0.8,0.6c0,0-0.1,0.1-0.1,0.2S237.4,44.1,237.4,44.1z M240.7,43
		c-0.1,0-0.2,0-0.3,0.1s-0.2,0.1-0.2,0.1s-0.1,0.1-0.3,0.3s-0.4,0.4-0.5,0.5c0,0.1-0.1,0.1-0.2,0.2c-0.1,0.1-0.1,0.2-0.1,0.2h0.7
		c0.2-0.2,0.3-0.3,0.4-0.4c0.1-0.1,0.2-0.2,0.3-0.4s0.2-0.2,0.3-0.3l0.1-0.1c0-0.1,0.1-0.1,0.1-0.1L240.7,43L240.7,43z M242.2,20.1
		c-0.1,0.3-0.2,0.5-0.2,0.6s0,0.3-0.1,0.5v0.3l1-1.4H242.2z M242.2,22c0,0.1,0.1,0.2,0.2,0.2c0.1,0,0.3,0,0.3,0c0.1,0,0.2,0,0.3,0
		s0.2-0.1,0.2-0.2c0.2-0.3,0.4-0.6,0.6-1s0.3-0.7,0.6-1c0,0-0.1,0-0.2,0c-0.1,0-0.1-0.1-0.2-0.1h-0.1c-0.1,0-0.3,0.1-0.5,0.3
		c-0.2,0.2-0.4,0.4-0.6,0.6c-0.2,0.2-0.3,0.4-0.5,0.7C242.3,21.7,242.2,21.9,242.2,22z M243.8,21.9c0,0,0,0.1,0.1,0.1s0.2,0,0.2,0
		s0.2,0,0.5,0s0.4-0.1,0.5-0.1l1.1-1.5v-0.3c-0.2,0-0.5,0.1-0.8,0.2s-0.5,0.3-0.8,0.4c-0.2,0.2-0.5,0.4-0.6,0.6
		S243.8,21.7,243.8,21.9L243.8,21.9z"/>
</g>
<g class="st0">
	<path class="st1" d="M264.9,41.5c0-0.1,0-0.3,0-0.6s0-0.5,0-0.5s0-0.1-0.1-0.3s-0.1-0.2-0.1-0.3s0-0.2,0-0.4s0-0.4-0.1-0.7
		c0-0.2,0-0.5-0.1-0.7c0-0.2,0-0.4-0.1-0.4h-0.1l-0.1-0.1c0,0,0-0.1,0-0.3s0-0.3,0-0.4c0-0.1-0.1-0.3-0.1-0.5
		c-0.1-0.3-0.1-0.5-0.2-0.5c0,0,0,0-0.1-0.1l-0.1-0.1c-0.1,0-0.2,0-0.3,0c-0.2,0-0.3,0-0.3,0h-0.6c-0.1,0-0.3,0-0.6,0.1
		c-0.3,0-0.5,0.1-0.8,0.1s-0.6,0.1-0.9,0.1s-0.5,0.1-0.6,0.1c-0.5,0.9-0.9,1.9-1.2,2.9s-0.6,2-0.8,3l-0.2,0.1
		c-0.3,0.2-0.6,0.4-0.8,0.6s-0.4,0.5-0.7,0.8c-0.1,0.2-0.3,0.4-0.7,0.6c-0.3,0.2-0.7,0.3-1,0.4c-0.1,0-0.4,0.1-0.7,0.1
		c-0.4,0-0.6,0.1-0.7,0.1h-0.7c-0.1,0-0.4,0-0.8,0c-0.4,0-0.8,0-1.3,0c-0.4,0-0.9,0-1.3,0c-0.4,0-0.7,0-0.8,0c0,0-0.2,0-0.4-0.1
		c-0.2,0-0.4,0-0.4,0c-0.2,0-0.4,0-0.6,0c-0.2,0-0.4,0-0.5-0.1c-0.2,0-0.3-0.1-0.4-0.2c-0.1-0.1-0.1-0.2-0.1-0.4v-0.3
		c0,0,0-0.1,0.1-0.2c0-0.1,0.1-0.2,0.1-0.3s0.1-0.2,0.1-0.3s0.1-0.2,0.1-0.2c0-0.1,0.1-0.3,0.2-0.6s0.2-0.7,0.3-1.1s0.3-0.9,0.4-1.3
		c0.1-0.5,0.3-0.9,0.4-1.3c0.1-0.4,0.2-0.8,0.3-1.1s0.2-0.5,0.2-0.6c0,0,0-0.1,0.1-0.3s0.1-0.3,0.2-0.5c0-0.2,0.1-0.3,0.2-0.5
		c0.1-0.2,0.1-0.2,0.1-0.3s0.1-0.3,0.1-0.6s0.1-0.5,0.2-0.7s0.1-0.5,0.2-0.7c0.1-0.2,0.1-0.3,0.1-0.4c0,0,0-0.1,0-0.2
		c0-0.1,0-0.2,0-0.2s0,0,0-0.1c0,0,0,0,0.1-0.1l0.1-0.1c0,0,0.1-0.1,0.1-0.2s0.1-0.2,0.1-0.2c0.6-1.9,1.2-3.8,1.8-5.8
		c0.6-1.9,1.1-3.9,1.7-5.8c0.1-0.3,0.2-0.7,0.2-1c0.1-0.3,0.1-0.7,0.3-1c0.1-0.3,0.3-0.6,0.5-0.9s0.5-0.6,0.8-0.8
		c0.5-0.4,1-0.7,1.3-0.9s0.7-0.5,1-0.6c0.3-0.2,0.6-0.3,0.9-0.4c0.3-0.1,0.6-0.2,1.1-0.2c0.4-0.1,0.8-0.1,1.2-0.1c0.4,0,0.8,0,1.1,0
		c0.4,0,0.8,0,1.2,0.1c0.4,0,0.9,0.1,1.4,0.1c0.2,0,0.6,0,1.1-0.1c0.5,0,1.1,0,1.6,0s0.9,0.1,1.3,0.3c0.3,0.1,0.4,0.4,0.2,0.7v0.1
		v0.1c0.1,0.2,0.3,0.6,0.6,1.2c0.3,0.6,0.5,1.3,0.8,2.1c0.3,0.8,0.6,1.6,1,2.5s0.7,1.7,1,2.5s0.6,1.5,0.8,2.2s0.5,1.1,0.6,1.5
		c0.5,1.1,0.9,2.3,1.4,3.6c0.4,1.3,0.9,2.6,1.3,3.8c0.4,1.3,0.8,2.5,1.1,3.6c0.3,1.1,0.6,2.1,0.9,2.9c0,0.1,0.1,0.2,0.1,0.4
		s0,0.4,0,0.5c-0.2,0.4-0.3,0.7-0.4,0.9s-0.2,0.3-0.4,0.3s-0.3,0.1-0.4,0.1s-0.3,0.1-0.6,0.2c-0.1,0-0.3,0.1-0.6,0.1
		c-0.3,0.1-0.4,0.1-0.6,0.1c-0.1,0-0.3,0-0.6,0.1c-0.2,0-0.5,0.1-0.7,0.1s-0.5,0.1-0.7,0.1s-0.4,0-0.6-0.1l-5.3,0.2
		c-0.1,0.1-0.2,0.1-0.3,0c-0.1-0.1-0.2-0.1-0.3-0.1c-0.1,0-0.2,0-0.3-0.1c-0.1,0-0.1-0.1-0.1-0.2c0-0.1,0-0.3-0.1-0.6
		s-0.1-0.5-0.2-0.6s-0.1-0.2-0.1-0.3s-0.1-0.3-0.1-0.4c-0.1-0.2-0.1-0.3-0.1-0.5L264.9,41.5z M248.9,41.6c-0.2,0-0.4,0.1-0.7,0.2
		c-0.3,0.2-0.6,0.3-0.8,0.6c-0.3,0.2-0.5,0.4-0.7,0.7c-0.2,0.2-0.3,0.4-0.3,0.6v0.1c0.3,0,0.6-0.2,0.9-0.4c0.3-0.2,0.6-0.4,0.8-0.5
		c0,0,0.1,0,0.2-0.1c0.1,0,0.2-0.1,0.2-0.1c0.1-0.1,0.2-0.3,0.3-0.5C248.9,41.9,248.9,41.7,248.9,41.6z M246.9,43.9
		C246.9,43.9,246.9,44,246.9,43.9c0.1,0.1,0.2,0.1,0.3,0.1s0.2,0.1,0.3,0.1c0,0,0.2,0,0.4,0.1s0.4,0,0.5,0h0.1
		c0.1,0,0.2-0.1,0.4-0.3s0.3-0.4,0.5-0.6c0.2-0.2,0.3-0.4,0.5-0.6c0.1-0.2,0.2-0.3,0.2-0.3c-0.2,0-0.5,0.1-0.8,0.2
		c-0.3,0.1-0.6,0.2-0.9,0.3c-0.3,0.1-0.6,0.3-0.8,0.4C247.3,43.6,247.1,43.8,246.9,43.9L246.9,43.9z M249.6,39.8
		c-0.2,0.1-0.4,0.2-0.7,0.4s-0.6,0.4-0.9,0.6c-0.3,0.2-0.5,0.5-0.8,0.7c-0.2,0.2-0.3,0.4-0.3,0.5v0.1c0.4-0.2,0.8-0.4,1.2-0.6
		c0.4-0.2,0.8-0.4,1.2-0.6c0,0,0.1,0,0.1-0.1l0.1-0.1c0,0,0.1-0.1,0.1-0.3s0.1-0.2,0.1-0.3c0,0,0.1-0.1,0.1-0.2
		c0-0.1,0.1-0.2,0.1-0.2l0,0C249.7,39.8,249.7,39.8,249.6,39.8L249.6,39.8z M250.3,37.9c-0.3,0.1-0.6,0.2-1,0.4s-0.7,0.4-1,0.6
		s-0.6,0.5-0.8,0.8s-0.3,0.6-0.3,0.8v0.3c0.1-0.1,0.3-0.2,0.5-0.3c0.2-0.2,0.5-0.3,0.8-0.5s0.5-0.3,0.8-0.5c0.2-0.2,0.4-0.3,0.5-0.3
		c0.2-0.1,0.3-0.3,0.4-0.5c0.1-0.2,0.1-0.4,0.1-0.5v-0.1C250.3,38.1,250.3,38,250.3,37.9z M251.2,35.3c-0.9,0.3-1.7,0.7-2.4,1.2
		s-1,1.2-1,2v0.1v0.1c0.6-0.2,1.1-0.4,1.5-0.7s0.9-0.6,1.4-0.9c0.2-0.2,0.3-0.5,0.4-0.8s0.1-0.5,0.1-0.8V35.3z M252,32.7
		c-0.2,0-0.4,0.1-0.6,0.2c-0.2,0.1-0.4,0.2-0.6,0.3c-0.2,0.1-0.4,0.3-0.5,0.4c-0.2,0.1-0.3,0.2-0.4,0.3l-0.1,0.1c0,0,0,0,0,0.1
		c0,0,0,0,0,0.1c0,0-0.2,0.1-0.4,0.2c-0.2,0.1-0.3,0.2-0.4,0.2c-0.1,0.2-0.2,0.3-0.3,0.5s-0.1,0.4-0.1,0.6v0.1c0,0.1,0,0.1,0,0.1
		c0.5-0.3,0.9-0.5,1.3-0.7c0.4-0.2,0.7-0.4,1-0.6c0.3-0.2,0.5-0.4,0.6-0.7C251.9,33.7,252,33.3,252,32.7z M251.6,42.6
		c-0.5,0-1,0.2-1.5,0.6c-0.5,0.3-0.8,0.7-0.9,1.1h1.4l1.6-1.6L251.6,42.6L251.6,42.6z M252.3,30.7c0,0-0.1,0-0.2,0.1
		c-0.1,0.1-0.2,0.1-0.3,0.2s-0.2,0.1-0.3,0.2s-0.2,0.1-0.2,0.2c-0.5,0.3-0.9,0.6-1.2,0.9s-0.5,0.7-0.6,1.2h0.2l2.5-1.3
		c0,0,0.1,0,0.1-0.1s0.1-0.1,0.1-0.2c0-0.1,0.1-0.3,0.2-0.6c0.1-0.3,0.1-0.5,0.2-0.6h-0.1c0,0,0,0-0.1,0c0,0,0,0-0.1,0
		C252.5,30.7,252.3,30.7,252.3,30.7z M253.2,28.6c-0.3,0.1-0.6,0.2-1,0.4c-0.4,0.2-0.7,0.4-1,0.7c-0.3,0.3-0.6,0.5-0.8,0.8
		s-0.3,0.6-0.3,0.8c0.1,0,0.3,0,0.4-0.1c0.1-0.1,0.3-0.1,0.4-0.2c0.1,0,0.2-0.1,0.4-0.2s0.4-0.2,0.6-0.4c0.2-0.1,0.4-0.3,0.6-0.4
		c0.2-0.1,0.3-0.2,0.4-0.2c0.1-0.2,0.1-0.4,0.2-0.5C253.2,29.1,253.2,28.9,253.2,28.6L253.2,28.6L253.2,28.6z M251.6,27.9
		c0,0-0.1,0-0.3,0c-0.1,0-0.2,0.1-0.3,0.1c-0.1,0.1-0.1,0.2-0.1,0.4c0,0.2,0,0.4,0,0.5v0.3c0,0,0.1-0.1,0.3-0.2s0.2-0.1,0.3-0.2
		c0,0,0.2-0.1,0.3-0.2c0.2-0.1,0.3-0.2,0.5-0.3s0.4-0.2,0.6-0.4c0.2-0.1,0.3-0.2,0.4-0.3c0.3-0.2,0.4-0.4,0.5-0.7
		c0.1-0.3,0.1-0.6,0.1-0.8h-0.2L251.6,27.9z M254.3,42.2c-0.1,0-0.2,0-0.4,0.1c-0.2,0-0.3,0.1-0.4,0.1c-0.1,0-0.3,0.1-0.5,0.3
		s-0.5,0.3-0.7,0.5s-0.5,0.4-0.6,0.6c-0.2,0.2-0.3,0.4-0.3,0.5l1.4-0.1c0,0,0.1-0.1,0.3-0.3s0.3-0.4,0.5-0.6
		c0.2-0.2,0.3-0.4,0.5-0.7C254.2,42.5,254.3,42.3,254.3,42.2z M254.4,24.1c-0.2,0-0.4,0.1-0.6,0.2c-0.2,0.1-0.3,0.2-0.4,0.2
		c-0.6,0.4-1,0.9-1.4,1.2c-0.4,0.4-0.6,0.9-0.6,1.5v0.1l2.5-2c0.2-0.2,0.3-0.4,0.3-0.6C254.3,24.5,254.4,24.2,254.4,24.1z
		 M255.2,21.6c-0.3,0.2-0.6,0.3-1,0.6c-0.4,0.2-0.7,0.5-1,0.7c-0.3,0.3-0.6,0.6-0.8,0.9s-0.3,0.6-0.3,0.9v0.1c0,0,0.1,0,0.2-0.1
		s0.1-0.1,0.2-0.1c0.1-0.1,0.2-0.1,0.3-0.2s0.3-0.2,0.4-0.3c0.1-0.1,0.3-0.2,0.4-0.3s0.2-0.1,0.3-0.1c0.1-0.1,0.2-0.2,0.4-0.3
		c0.2-0.1,0.3-0.2,0.3-0.3c0,0,0-0.1,0.1-0.2c0-0.1,0.1-0.2,0.2-0.4c0.1-0.1,0.1-0.3,0.2-0.4c0-0.2,0.1-0.3,0.1-0.4L255.2,21.6
		L255.2,21.6z M255.7,19.2c-0.3,0.2-0.7,0.4-1,0.7c-0.4,0.3-0.7,0.5-1,0.8s-0.5,0.6-0.8,0.9c-0.2,0.3-0.3,0.7-0.3,1c0,0,0,0,0,0.1
		l0,0c0,0,0.1-0.1,0.3-0.2s0.3-0.2,0.4-0.3c0.1-0.1,0.3-0.2,0.4-0.3c0.1-0.1,0.2-0.2,0.3-0.2c0.3-0.2,0.6-0.4,0.8-0.5
		s0.4-0.3,0.6-0.5c0.1-0.2,0.3-0.3,0.3-0.5s0.1-0.5,0.1-0.8v-0.2H255.7z M253.8,19.2c-0.2,0.1-0.3,0.3-0.3,0.5s0,0.4,0,0.6
		c0,0,0,0,0,0.1v0.1c0.8-0.5,1.5-1,2.2-1.6c0.2,0.1,0.3,0.1,0.4,0s0.1-0.2,0.1-0.3c0-0.1,0.1-0.3,0.2-0.6c0.1-0.3,0.2-0.5,0.2-0.5
		h-0.2L253.8,19.2z M255.4,42.3c-0.2,0.2-0.4,0.3-0.5,0.4s-0.3,0.2-0.4,0.3c-0.1,0.1-0.2,0.2-0.3,0.3s-0.2,0.2-0.4,0.4
		s-0.3,0.3-0.3,0.5h0.4c0.3,0,0.5-0.1,0.8-0.2c0.2-0.1,0.4-0.2,0.6-0.4c0-0.1,0.1-0.1,0.3-0.3c0.1-0.1,0.2-0.3,0.4-0.4
		c0.1-0.1,0.3-0.3,0.4-0.4s0.2-0.2,0.2-0.3h-1.2V42.3z M256.9,15.6c-0.2,0-0.5,0.1-0.7,0.2c-0.2,0.1-0.4,0.3-0.6,0.4
		c-0.2,0.2-0.4,0.3-0.6,0.5c-0.2,0.2-0.3,0.3-0.5,0.4c0,0-0.1,0-0.1,0.1s-0.1,0.1-0.1,0.1c-0.2,0.2-0.3,0.4-0.3,0.5
		s-0.1,0.4-0.1,0.6h0.1h0.1c0,0,0.1-0.1,0.3-0.1c0.1-0.1,0.2-0.1,0.3-0.2c0,0,0.1-0.1,0.2-0.2s0.3-0.2,0.5-0.3
		c0.2-0.1,0.4-0.3,0.5-0.4c0.2-0.1,0.3-0.2,0.4-0.3c0.3-0.2,0.4-0.4,0.5-0.6S256.9,15.8,256.9,15.6L256.9,15.6z M260.1,35.3
		c0,0.1,0,0.2,0.1,0.2s0.2,0,0.3,0c0.1,0,0.3-0.1,0.3-0.2c0.1-0.1,0.2-0.2,0.2-0.4c0.1-0.1,0.1-0.3,0.2-0.4s0.1-0.2,0.1-0.3
		s0.1-0.2,0.3-0.4s0.2-0.4,0.3-0.4c-0.1,0-0.1,0-0.1,0h-0.1c-0.1,0-0.2,0-0.3,0c0,0-0.1,0.1-0.2,0.2c0,0.1-0.1,0.2-0.2,0.3
		s-0.2,0.3-0.3,0.5c-0.1,0.2-0.2,0.4-0.3,0.5C260.2,35,260.2,35.1,260.1,35.3L260.1,35.3z M263,33.3c-0.1,0-0.3,0.1-0.5,0.3
		s-0.3,0.4-0.5,0.6s-0.3,0.5-0.4,0.7s-0.1,0.4-0.1,0.5c0.2,0,0.4-0.1,0.5-0.2c0.1-0.1,0.2-0.2,0.3-0.4c0-0.1,0.1-0.2,0.2-0.3
		s0.2-0.3,0.3-0.5c0.1-0.2,0.2-0.3,0.3-0.5s0.2-0.2,0.2-0.3C263.2,33.3,263.1,33.3,263,33.3C263.1,33.3,263,33.3,263,33.3z
		 M262.5,25.9c-0.2,0.3-0.3,0.7-0.4,1c-0.1,0.4-0.2,0.7-0.2,1.1h1.2c0-0.4,0-0.7-0.1-1.1C262.8,26.5,262.7,26.2,262.5,25.9z
		 M265.1,32.9c-0.3,0-0.6,0.1-0.8,0.2s-0.4,0.2-0.6,0.5c-0.1,0.1-0.2,0.2-0.3,0.4c-0.1,0.1-0.2,0.3-0.3,0.4
		c-0.1,0.2-0.2,0.3-0.2,0.4c-0.1,0.1-0.1,0.2-0.1,0.2v0.1c0,0,0.1,0,0.2,0c0,0,0.2,0,0.3-0.1c0.2,0,0.3-0.1,0.3-0.1
		c0.1,0,0.2,0,0.3-0.1c0.1,0,0.1-0.1,0.2-0.1c0.1-0.1,0.2-0.2,0.4-0.3c0.2-0.1,0.3-0.3,0.5-0.4c0.1-0.2,0.3-0.3,0.4-0.5
		s0.2-0.3,0.2-0.4c0-0.1-0.1-0.2-0.2-0.2C265.4,32.9,265.2,32.9,265.1,32.9z M263.2,22.5c0,0.1-0.1,0.2-0.1,0.3s-0.1,0.3-0.1,0.5
		s-0.1,0.3-0.1,0.5c0,0.1,0,0.2-0.1,0.3v0.3c0.2-0.1,0.3-0.3,0.5-0.4c0.2-0.2,0.2-0.3,0.2-0.5c0-0.1,0-0.3,0-0.5
		C263.5,22.7,263.4,22.6,263.2,22.5z M263.7,24.2c-0.2,0.2-0.4,0.3-0.6,0.5s-0.3,0.4-0.3,0.6c0.2,0,0.5-0.1,0.8-0.2s0.4-0.3,0.4-0.5
		c0-0.1,0-0.2,0-0.3C264.1,24.2,264,24.1,263.7,24.2L263.7,24.2z M263.3,26.3l0.1,0.1h0.2c0,0,0.1,0,0.2-0.1s0.2-0.1,0.2-0.1
		s0.2-0.1,0.3-0.2c0.2-0.1,0.3-0.2,0.3-0.2s0-0.1,0-0.2c-0.1-0.1-0.1-0.2-0.1-0.2l0,0c0,0,0,0-0.1,0c-0.3,0-0.6,0.1-0.8,0.3
		C263.3,25.7,263.2,25.9,263.3,26.3L263.3,26.3z M263.5,27c0,0,0,0.1,0.1,0.2c0,0.1,0.1,0.2,0.1,0.2c0.1-0.1,0.3-0.1,0.4-0.2
		s0.3-0.1,0.4-0.1s0.3-0.1,0.4-0.2s0.2-0.2,0.3-0.3c0,0,0,0-0.1-0.1c0,0,0-0.1-0.1-0.1c0,0,0,0,0-0.1c0,0-0.1,0-0.1-0.1
		s-0.1-0.1-0.1-0.1c-0.2,0-0.5,0.1-0.8,0.2C263.7,26.7,263.6,26.9,263.5,27z M265.4,27.2c-0.1,0-0.3,0.1-0.6,0.2
		c-0.3,0.1-0.5,0.2-0.6,0.2c-0.1,0.1-0.2,0.2-0.2,0.3h0.1c0,0,0,0,0.1,0s0.3,0,0.7-0.1c0.3,0,0.5-0.1,0.6-0.1v-0.2
		c0-0.1,0-0.1,0-0.2C265.6,27.3,265.5,27.3,265.4,27.2z M264.8,35.5c0,0,0,0.1,0,0.2c0,0.1,0,0.1,0,0.2c0,0.1,0,0.1,0.1,0.2
		s0.1,0.1,0.2,0.1h0.1l0.1-0.1l0.1-0.1c0-0.1,0.1-0.1,0.2-0.3s0.2-0.2,0.3-0.4c0.1-0.1,0.2-0.3,0.3-0.4c0.1-0.1,0.2-0.2,0.2-0.3
		v-0.1l0,0l0,0v-0.1c0-0.1-0.1-0.2-0.2-0.4s-0.2-0.3-0.2-0.3s-0.1,0-0.1,0.1c-0.1,0-0.1,0.1-0.1,0.1s-0.1,0.1-0.2,0.2
		s-0.2,0.3-0.3,0.4c-0.1,0.1-0.2,0.3-0.3,0.4c-0.1,0.1-0.2,0.2-0.2,0.3V35.5z M265.1,37.1c0,0.1,0,0.2,0,0.3s0,0.3,0,0.5
		s0,0.3,0.1,0.5s0,0.3,0.1,0.3h0.2c0,0,0.1-0.1,0.2-0.3c0.1-0.1,0.2-0.2,0.2-0.3s0.1-0.2,0.3-0.3c0.1-0.1,0.2-0.3,0.4-0.4
		c0.1-0.2,0.3-0.3,0.4-0.4c0.1-0.1,0.2-0.2,0.3-0.3v-0.1c0-0.2,0-0.4-0.1-0.7s-0.2-0.5-0.3-0.7c-0.1,0.1-0.3,0.2-0.4,0.3
		c-0.2,0.2-0.3,0.3-0.5,0.5s-0.3,0.3-0.4,0.5S265.1,36.9,265.1,37.1L265.1,37.1z M265.4,39.7c0,0.1,0,0.2,0,0.3s0.1,0.1,0.2,0.2
		c0.5-0.4,0.9-0.8,1.1-1.1s0.4-0.5,0.7-0.6c0,0,0.1-0.1,0.2-0.2c0.1-0.1,0.2-0.2,0.2-0.2s0-0.1-0.1-0.2c0-0.1-0.1-0.2-0.1-0.2
		s-0.1-0.1-0.1-0.3s-0.1-0.2-0.1-0.3c-0.2,0.1-0.4,0.3-0.6,0.5s-0.4,0.5-0.6,0.7c-0.2,0.3-0.4,0.5-0.5,0.7
		C265.5,39.4,265.4,39.6,265.4,39.7z M265.8,41.3c0,0.1-0.1,0.2-0.1,0.3s0,0.1,0.1,0.3c0.4-0.3,0.8-0.5,1-0.8s0.5-0.6,0.9-0.9
		c0,0,0.1-0.1,0.3-0.3c0.1-0.2,0.2-0.2,0.3-0.3c0-0.1,0-0.2,0-0.2c0-0.1,0-0.1-0.1-0.2c0-0.1,0-0.1-0.1-0.2c0,0,0-0.1-0.1-0.2
		c0-0.1,0-0.1,0-0.2c-0.3,0.2-0.7,0.5-1,0.9s-0.6,0.7-0.8,0.9c-0.1,0.2-0.3,0.3-0.3,0.3l-0.1,0.1v0.1
		C265.8,41,265.8,41.1,265.8,41.3z M266.2,42.9c0,0,0.1,0.1,0.1,0.2c0,0.1,0.1,0.2,0.1,0.2s0.1-0.1,0.3-0.2c0.1-0.1,0.2-0.2,0.2-0.2
		c0.1-0.1,0.2-0.2,0.4-0.4c0.1-0.2,0.3-0.4,0.5-0.6c0.2-0.2,0.3-0.4,0.5-0.6c0.1-0.2,0.3-0.3,0.4-0.4l0,0l0,0l0,0
		c0-0.1,0-0.2-0.1-0.3c0-0.1-0.1-0.2-0.2-0.3c-0.4,0.4-0.8,0.8-1.2,1.2c-0.4,0.4-0.7,0.7-1.1,1c-0.1,0.1-0.1,0.1,0,0.2
		C266.1,42.5,266.2,42.7,266.2,42.9L266.2,42.9z M268.6,41.4c-0.2,0.2-0.4,0.3-0.5,0.4c-0.1,0.1-0.2,0.2-0.2,0.3
		c-0.1,0.1-0.1,0.2-0.2,0.3s-0.2,0.3-0.3,0.5c-0.1,0.1-0.2,0.2-0.3,0.4c-0.1,0.2-0.2,0.3-0.2,0.4v0.1c0,0,0.1,0,0.2-0.1
		c0.1,0,0.1-0.1,0.2-0.1c0.1-0.1,0.2-0.1,0.3-0.3s0.2-0.2,0.4-0.4c0.1-0.1,0.2-0.2,0.3-0.3c0.1-0.1,0.2-0.2,0.2-0.2
		c0.2-0.1,0.3-0.1,0.3-0.2c0.1,0,0.1-0.1,0.2-0.4c0-0.1,0-0.2,0-0.4s-0.1-0.2-0.2-0.2C268.7,41.4,268.7,41.4,268.6,41.4
		C268.7,41.4,268.7,41.4,268.6,41.4z M270.5,42.4c-0.1,0-0.3,0-0.5-0.1s-0.4,0-0.5,0.1s-0.3,0.2-0.5,0.4s-0.3,0.3-0.5,0.4
		s-0.3,0.3-0.5,0.6v0.1l1.2-0.1l0.1-0.1c0-0.1,0.1-0.1,0.1-0.1c0.1-0.1,0.3-0.3,0.5-0.6s0.4-0.4,0.6-0.5L270.5,42.4z M272.7,41.9
		c-0.7,0-1.2,0.1-1.6,0.4c-0.1,0.1-0.2,0.2-0.3,0.3c-0.1,0.2-0.3,0.3-0.4,0.5s-0.3,0.4-0.4,0.6V44c0.1,0,0.3-0.1,0.6-0.1
		s0.5-0.1,0.6-0.1c0,0,0.1-0.1,0.2-0.2c0.1-0.1,0.2-0.2,0.3-0.2c0-0.1,0.1-0.2,0.3-0.3c0.1-0.1,0.2-0.3,0.4-0.4
		c0.1-0.2,0.2-0.3,0.4-0.4c0.1-0.1,0.2-0.2,0.3-0.3H273L272.7,41.9z M272.1,43.7c0.2,0.1,0.3,0.1,0.4,0.1s0.3,0,0.5,0h0.4
		c0.3-0.3,0.6-0.7,0.9-1s0.7-0.7,1-1c0,0-0.1,0-0.2,0s-0.2,0-0.3,0c-0.2,0-0.5,0-0.7,0.1c-0.2,0-0.4,0.1-0.6,0.3s-0.5,0.5-0.8,0.8
		C272.4,43.2,272.2,43.5,272.1,43.7z M276.1,41.8l-1.9,1.8c0.1-0.1,0.2-0.1,0.4-0.2c0.2,0,0.4-0.1,0.6-0.2s0.4-0.1,0.6-0.2
		c0.2-0.1,0.3-0.1,0.4-0.2c0,0,0-0.1,0.1-0.2c0.1-0.1,0.1-0.3,0.2-0.4c0.1-0.2,0.1-0.3,0.2-0.4c0.1-0.1,0.1-0.2,0.1-0.2L276.1,41.8z
		"/>
	<path class="st1" d="M279.9,42.1c0,0,0-0.1-0.1-0.3c0-0.1-0.1-0.3-0.1-0.4c0-0.2-0.1-0.3-0.1-0.4c0-0.1-0.1-0.2-0.1-0.3
		c0-0.3-0.1-0.6-0.1-0.9c0-0.3,0-0.6,0.1-1s0.1-0.6,0.1-1c0-0.3,0-0.6,0-0.9c0,0,0-0.1,0-0.2s0-0.2,0-0.3s0-0.2,0-0.3s0-0.2,0-0.2
		s0-0.1,0-0.2s0-0.2,0-0.3s0-0.2,0-0.4s0-0.2,0-0.3c0-0.5,0-0.9,0.1-1.3c0.1-0.4,0.1-0.9,0.1-1.3c0-0.1,0-0.2,0-0.5
		c0-0.2,0-0.6-0.1-1.1c0-0.5,0-1.1,0-1.9s0-1.7,0.1-2.8c0,0,0-0.2,0-0.4c0-0.2,0-0.4,0-0.5c0-1.1-0.1-2.3-0.2-3.4s-0.2-2.3-0.2-3.4
		c0-0.1,0-0.2,0-0.3c0-0.2,0-0.3,0.1-0.5c0-0.2,0.1-0.3,0.1-0.5c0-0.1,0.1-0.2,0.2-0.2c0-0.3,0.2-0.6,0.3-0.8s0.4-0.4,0.8-0.7
		c0.2-0.1,0.3-0.3,0.3-0.4c0.1-0.1,0.1-0.2,0.2-0.3s0.1-0.2,0.2-0.2c0.1-0.1,0.3-0.2,0.6-0.2c0.9-0.2,1.9-0.2,2.9-0.2s1.9,0,2.9,0
		c0,0,0.1,0,0.2,0s0.3,0,0.4,0s0.3,0,0.4,0s0.2,0,0.2,0h2c1.1,0,2.1,0,3.1,0.1c1,0,2.1,0.1,3.1,0.2c0.4,0,0.9,0.1,1.5,0.1
		s1.1,0.1,1.6,0.2c0,0,0.2,0.1,0.4,0.1c0.2,0.1,0.4,0.1,0.5,0.1c0.7,0.3,1.4,0.5,2.1,0.8s1.4,0.6,2,1c0.6,0.4,1.2,0.8,1.7,1.2
		c0.5,0.4,0.9,1,1.3,1.6c0.1,0.2,0.2,0.4,0.3,0.6c0.1,0.2,0.2,0.5,0.2,0.8s0.1,0.5,0.1,0.8s0.1,0.5,0.1,0.7c0,0.9-0.1,1.8-0.4,2.6
		c-0.3,0.8-0.7,1.6-1.2,2.5c-0.1,0.1-0.2,0.2-0.3,0.5c-0.1,0.2-0.2,0.3-0.3,0.3c0,0.1-0.1,0.2-0.4,0.4c-0.2,0.2-0.4,0.4-0.5,0.5
		c0,0-0.2,0.1-0.3,0.2c-0.2,0.1-0.3,0.2-0.5,0.4c-0.2,0.1-0.3,0.2-0.5,0.4c-0.1,0.1-0.3,0.2-0.3,0.2c-0.3,0.2-0.6,0.4-1,0.6
		c-0.3,0.2-0.5,0.4-0.5,0.7c0,0.3,0.1,0.7,0.3,1c0.2,0.3,0.4,0.6,0.6,0.9c0.2,0.3,0.5,0.6,0.8,0.9c0.3,0.3,0.5,0.6,0.7,0.9
		c0.3,0.5,0.6,1,0.9,1.5c0.2,0.5,0.5,1,0.9,1.5c0,0,0.1,0.1,0.2,0.2c0.1,0.1,0.2,0.2,0.2,0.3c0.1,0.1,0.1,0.2,0.2,0.3
		s0.1,0.1,0.1,0.2c0,0,0.1,0.1,0.2,0.2c0.1,0.1,0.2,0.3,0.3,0.4c0.1,0.1,0.2,0.3,0.3,0.4c0.1,0.1,0.2,0.2,0.2,0.2s0.1,0.2,0.2,0.4
		s0.2,0.4,0.3,0.5c0,0,0.1,0.1,0.1,0.2c0,0.1,0.1,0.2,0.2,0.3s0.1,0.2,0.2,0.3c0,0.1,0.1,0.2,0.1,0.2s0,0.1-0.1,0.2
		c0,0.1-0.1,0.2-0.1,0.2s0,0.1,0,0.2c0,0.1-0.1,0.1-0.1,0.1c-0.3,0.1-0.6,0.2-0.8,0.4c-0.3,0.1-0.5,0.3-0.8,0.5s-0.5,0.4-0.6,0.7
		c-0.2,0.2-0.4,0.4-0.7,0.6c-1.1-0.1-2.3,0-3.4,0.1s-2.2,0.2-3.4,0.2h-1c-0.4-0.6-0.8-1.2-1.1-1.9c-0.3-0.6-0.6-1.3-0.9-1.9
		c0,0-0.1-0.1-0.2-0.3s-0.2-0.3-0.3-0.5c-0.1-0.2-0.2-0.3-0.3-0.5c-0.1-0.2-0.1-0.2-0.2-0.3c0-0.1-0.1-0.2-0.1-0.3
		c-0.1-0.2-0.1-0.3-0.2-0.5s-0.1-0.3-0.2-0.5s-0.1-0.3-0.1-0.4c0,0,0-0.1-0.1-0.3c0-0.2-0.1-0.3-0.2-0.5s-0.1-0.4-0.2-0.5
		c0-0.2-0.1-0.3-0.1-0.3s0-0.1-0.1-0.2c-0.1-0.1-0.1-0.3-0.2-0.4s-0.2-0.3-0.2-0.4c-0.1-0.1-0.1-0.3-0.2-0.4c0-0.1-0.1-0.2-0.2-0.3
		s-0.1-0.2-0.1-0.2s-0.1,0-0.3,0s-0.3,0-0.3,0s-0.2,0-0.4-0.1s-0.4-0.1-0.4-0.1h-0.7c-0.1,0-0.2,0-0.3,0.1c-0.1,0-0.2,0.1-0.2,0.1
		l-0.3,7.8c0.1,0.1,0.1,0.3,0.1,0.4c0,0.2-0.1,0.3-0.2,0.4c0,0-0.1,0.1-0.2,0.2c-0.1,0.1-0.1,0.2-0.1,0.2s-0.1,0.1-0.1,0.2
		c0,0.1-0.1,0.2-0.2,0.3s-0.1,0.2-0.2,0.3c0,0.1-0.1,0.1-0.1,0.2c-0.1,0.1-0.3,0.2-0.7,0.3c-0.3,0.1-0.6,0.1-0.8,0.1
		c-0.1,0-0.3,0-0.7,0.1c-0.4,0-0.6,0.1-0.7,0.1s-0.3,0-0.6,0s-0.6,0-1,0c-0.3,0-0.7,0-1,0.1c-0.3,0-0.5,0-0.6,0
		c-0.3,0-0.7,0.1-1.1,0.2c-0.4,0.1-0.8,0.2-1,0.2c-0.3,0-0.5-0.1-0.7-0.2c-0.2-0.1-0.4-0.2-0.5-0.4s-0.2-0.3-0.3-0.5
		c-0.1-0.2-0.1-0.3-0.2-0.5L279.9,42.1z M280.2,16.4C280.1,16.4,280.1,16.4,280.2,16.4l-0.4,1.9c0,0,0,0.1,0.1,0.1
		c0,0.1,0.1,0.1,0.1,0.1s0.1-0.1,0.1-0.2c0.1-0.1,0.1-0.2,0.2-0.3c0.1-0.1,0.1-0.2,0.2-0.3c0.1-0.1,0.1-0.2,0.1-0.2
		c0.1-0.2,0.2-0.3,0.3-0.5s0.2-0.3,0.4-0.5v-1.4c-0.1,0.1-0.2,0.1-0.3,0.2c-0.1,0.1-0.2,0.2-0.4,0.4c-0.1,0.1-0.2,0.3-0.3,0.4
		C280.3,16.2,280.2,16.3,280.2,16.4z M280,40.3C280,40.4,280.1,40.4,280,40.3c0.1,0.1,0.2,0.1,0.2,0.1c0-0.1,0.1-0.2,0.3-0.3
		c0.1-0.1,0.3-0.2,0.5-0.4c0.2-0.1,0.3-0.3,0.5-0.4c0.2-0.1,0.3-0.2,0.4-0.3v-1.3c-0.1,0.2-0.3,0.3-0.5,0.5s-0.4,0.4-0.6,0.6
		c-0.2,0.2-0.4,0.4-0.5,0.7C280.1,39.9,280,40.1,280,40.3z M281.4,17.4L281.4,17.4c-0.1,0.1-0.1,0.1-0.1,0.1
		c-0.3,0.4-0.6,0.8-0.8,1.3c-0.2,0.4-0.3,0.9-0.3,1.4c0,0,0,0.1,0,0.3c0,0.1,0,0.2,0,0.3c0.4-0.4,0.7-0.8,0.9-1.2
		c0.2-0.4,0.3-0.8,0.3-1.3c0-0.1,0-0.2,0-0.4C281.4,17.5,281.4,17.4,281.4,17.4z M280.2,21.6c0,0.1,0,0.2,0,0.3c0,0.1,0,0.3,0.1,0.4
		c0,0.1,0,0.3,0.1,0.4s0,0.2,0,0.3l0,0c0,0,0,0,0.1,0l0.1-0.1c0,0,0.1-0.2,0.3-0.4c0.2-0.2,0.3-0.4,0.4-0.5c0,0,0-0.1,0.1-0.2
		l0.1-0.1c0,0,0-0.1,0-0.2s0-0.3,0.1-0.4c0-0.2,0-0.3,0.1-0.5c0-0.2,0-0.3,0-0.4v-0.3c-0.1,0-0.3,0.1-0.3,0.2s-0.1,0.2-0.2,0.3
		s-0.2,0.3-0.3,0.5s-0.2,0.3-0.3,0.5c-0.1,0.2-0.2,0.3-0.2,0.3v-0.1H280.2z M280.2,34.1c0,0,0.1,0.1,0.1,0.2c0,0.1,0.1,0.2,0.1,0.2
		s0.1-0.1,0.2-0.2c0.1-0.1,0.1-0.2,0.1-0.2c0.1-0.1,0.2-0.3,0.4-0.5c0.1-0.2,0.3-0.4,0.4-0.6c0.1-0.2,0.3-0.4,0.3-0.5
		c0.1-0.1,0.1-0.2,0.1-0.2v-1.6h-0.1l-0.1,0.1c0,0.1-0.1,0.2-0.3,0.4c-0.1,0.2-0.2,0.3-0.2,0.3c0,0.1-0.1,0.2-0.2,0.3
		c-0.1,0.1-0.2,0.3-0.2,0.4s-0.2,0.3-0.2,0.4c-0.1,0.1-0.1,0.2-0.1,0.2s0,0.1-0.1,0.2c0,0.1-0.1,0.2-0.1,0.3s-0.1,0.3-0.1,0.4
		c0,0.1-0.1,0.3-0.1,0.3v0.1H280.2z M280.3,24.7l1.2-1V23l-0.2-0.5c0,0-0.1,0-0.1,0.1s-0.1,0.1-0.1,0.1c-0.1,0.2-0.2,0.3-0.4,0.4
		c-0.1,0.1-0.2,0.2-0.3,0.3c-0.1,0.1-0.2,0.3-0.2,0.5s-0.1,0.4,0,0.7v0.1H280.3z M282,28.6c0-0.1,0-0.1,0-0.2s0-0.2,0-0.3
		c-0.2,0.3-0.4,0.6-0.7,0.9c-0.3,0.3-0.5,0.5-0.5,0.7c-0.1,0.3-0.2,0.6-0.3,1c0,0.3-0.1,0.6-0.1,1V32c0.2-0.1,0.3-0.2,0.4-0.4
		c0.1-0.2,0.2-0.3,0.3-0.5c0.1-0.2,0.2-0.3,0.3-0.5s0.3-0.3,0.6-0.3L282,28.6L282,28.6z M282.3,33.1c-0.1,0-0.2,0-0.3,0
		c-0.1,0-0.1,0.1-0.2,0.2c-0.3,0.5-0.7,0.9-1,1.4s-0.5,1-0.5,1.6v0.6c0.1-0.1,0.2-0.1,0.3-0.3s0.2-0.2,0.2-0.3c0,0,0.1-0.1,0.2-0.2
		c0.1-0.1,0.2-0.2,0.3-0.4c0.1-0.1,0.2-0.2,0.3-0.4c0.1-0.1,0.2-0.2,0.2-0.3s0.1-0.2,0.2-0.3s0.1-0.2,0.1-0.2c0-0.1,0-0.2,0-0.3
		s0-0.3,0-0.4c0-0.1,0-0.3,0-0.4C282.2,33.2,282.3,33.2,282.3,33.1z M280.3,38c0,0.2,0,0.3,0,0.4c0,0,0,0.2,0.1,0.3
		c0-0.1,0.1-0.1,0.3-0.3s0.3-0.2,0.4-0.4c0.1-0.1,0.3-0.3,0.4-0.4c0.1-0.1,0.2-0.2,0.3-0.3c0.2-0.2,0.3-0.5,0.3-0.7s0.1-0.4,0.1-0.7
		v-0.7c-0.1,0.2-0.3,0.4-0.5,0.6s-0.4,0.4-0.6,0.7c-0.2,0.2-0.3,0.5-0.5,0.7C280.4,37.5,280.3,37.8,280.3,38z M280.3,41.1
		c0,0,0,0.1,0,0.4c0,0.2,0,0.3,0,0.4c0,0,0.1-0.1,0.2-0.2c0.1-0.1,0.3-0.3,0.5-0.4c0.2-0.2,0.4-0.3,0.5-0.5s0.3-0.3,0.3-0.3v-0.6
		c-0.1,0.1-0.2,0.2-0.4,0.3c-0.2,0.1-0.4,0.2-0.6,0.3s-0.3,0.2-0.5,0.4C280.4,40.9,280.3,41,280.3,41.1z M281.6,25.8V24
		c-0.3,0.3-0.5,0.7-0.7,1s-0.3,0.7-0.3,1v0.5L281.6,25.8z M280.7,28.6c0,0,0.1-0.1,0.2-0.2s0.2-0.2,0.3-0.3c0.1-0.1,0.2-0.2,0.4-0.4
		c0.1-0.1,0.2-0.2,0.3-0.3c0-0.1,0-0.3,0-0.4s0-0.2,0-0.3c0-0.1,0-0.2,0-0.3l-0.2-0.1c0,0-0.1,0-0.1,0.1l-0.1,0.1
		c0,0.1-0.1,0.1-0.2,0.2s-0.1,0.2-0.2,0.3c-0.1,0.1-0.1,0.2-0.2,0.2c-0.1,0.1-0.1,0.1-0.1,0.1c0,0.3,0,0.6-0.1,0.7s-0.1,0.3-0.1,0.4
		v0.5C280.5,28.7,280.5,28.7,280.7,28.6C280.6,28.6,280.7,28.6,280.7,28.6z M280.6,42.4c0,0.2,0,0.4,0,0.6s0.1,0.4,0.1,0.6l0,0h0.1
		h0.1c0,0,0.1-0.1,0.2-0.1c0.1-0.1,0.2-0.1,0.3-0.2c0.1-0.1,0.3-0.2,0.5-0.3v-2c-0.1,0.1-0.2,0.2-0.3,0.4s-0.3,0.3-0.5,0.4
		c-0.1,0.1-0.3,0.3-0.4,0.4C280.7,42.3,280.6,42.4,280.6,42.4z M281,44.4c0,0,0,0.1,0.1,0.1s0.2,0,0.3,0c0.1,0,0.2,0,0.3,0
		s0.2,0,0.2,0c0.1,0,0.3,0,0.3-0.1s0.1-0.1,0.1-0.2c0.1-0.1,0.1-0.2,0.2-0.3s0.1-0.2,0.2-0.3s0.1-0.2,0.1-0.2v-0.1
		c-0.1,0.1-0.3,0.1-0.5,0.2c-0.2,0.1-0.5,0.2-0.7,0.3s-0.4,0.3-0.6,0.4C281,44.2,281,44.3,281,44.4z M283.7,43.1
		c0,0-0.1,0.1-0.1,0.2c-0.1,0.1-0.1,0.2-0.2,0.3s-0.1,0.2-0.2,0.3s-0.1,0.2-0.1,0.2v0.1v0.1h0.4c0.1,0,0.2,0,0.3,0
		c0.1,0,0.3,0,0.4,0s0.3,0,0.4,0s0.2,0,0.3,0c0.1-0.3,0.2-0.5,0.4-0.7c0.1-0.2,0.3-0.4,0.5-0.7h-0.1c-0.1,0-0.2,0-0.4,0
		s-0.3,0-0.5,0s-0.4,0-0.5,0C283.9,43.1,283.8,43.1,283.7,43.1z M285.5,44.1c0,0.1,0.1,0.2,0.2,0.2s0.2,0,0.3,0
		c0.2,0,0.4-0.1,0.6-0.2c0.1-0.1,0.3-0.2,0.4-0.4s0.2-0.3,0.3-0.5c0.1-0.2,0.2-0.3,0.3-0.5c-0.2,0-0.5,0-0.8,0.1
		c-0.3,0-0.4,0-0.5,0.1c0,0-0.1,0.1-0.3,0.3c-0.2,0.2-0.3,0.4-0.5,0.5c0,0,0,0.1-0.1,0.1S285.5,44,285.5,44.1L285.5,44.1z
		 M288.2,42.8c0,0.1-0.1,0.2-0.2,0.3s-0.2,0.3-0.3,0.4s-0.2,0.3-0.2,0.4c-0.1,0.1-0.1,0.2-0.1,0.3c0.2,0,0.4,0,0.7,0
		c0.3,0,0.5-0.1,0.6-0.3c0-0.1,0.1-0.2,0.3-0.4c0.1-0.2,0.2-0.3,0.2-0.4l0,0l0,0l0,0c0,0,0,0,0-0.1c0,0,0,0-0.1-0.1l-0.1-0.1
		c0,0-0.1,0-0.3,0c-0.1,0-0.2,0-0.3,0C288.4,42.8,288.2,42.8,288.2,42.8z M289.8,20.1c0,0.2,0.2,0.3,0.5,0.3c0-0.3,0.1-0.5,0.2-0.7
		c0.2-0.2,0.3-0.4,0.5-0.6s0.4-0.3,0.5-0.5c0.2-0.2,0.2-0.3,0.2-0.5c-0.6,0-1,0-1.3,0.1s-0.5,0.3-0.6,0.5s-0.1,0.4-0.1,0.6
		C289.8,19.7,289.8,19.9,289.8,20.1z M290,27.6c0.1,0,0.2-0.1,0.3-0.1c0.7,0,1.4,0,2.2-0.1s1.5-0.1,2.3-0.2s1.5-0.2,2.2-0.4
		c0.7-0.2,1.4-0.4,2-0.7c0.4-0.2,0.8-0.4,1.1-0.5s0.5-0.4,0.5-0.8c0-0.5-0.1-1-0.4-1.4s-0.7-0.8-1.1-1.1c-0.5-0.3-1-0.6-1.5-0.8
		s-1.2-0.4-1.7-0.5c-0.2,0-0.4,0-0.7,0c-0.3,0-0.5,0-0.7-0.2c-0.1,0-0.3,0-0.6,0c-0.3,0-0.6,0-0.9,0s-0.6,0-0.9,0s-0.5,0-0.6,0h-0.1
		c-0.2,0-0.4,0-0.7,0.1s-0.5,0.1-0.5,0.1s-0.1,0-0.1,0.1l-0.1,0.1L290,27.6L290,27.6z M290.7,33.3c0.2-0.1,0.3-0.3,0.4-0.5
		s0.1-0.4,0.1-0.6h-0.5V33.3z M292.8,18.2c0,0-0.1,0-0.2,0.1s-0.2,0.2-0.3,0.3c-0.1,0.1-0.3,0.2-0.4,0.3s-0.3,0.2-0.3,0.3
		c-0.1,0.1-0.2,0.2-0.3,0.3c-0.1,0.1-0.2,0.2-0.2,0.2c0,0.1-0.1,0.2-0.1,0.3s-0.1,0.3-0.1,0.3h1.7c0.2-0.4,0.6-0.8,1-1.2
		c0.4-0.4,0.8-0.7,1.2-1h-2V18.2z M292.4,32c-0.1,0-0.3,0.1-0.4,0.2c-0.1,0.1-0.3,0.3-0.4,0.5s-0.2,0.4-0.3,0.5
		c-0.1,0.2-0.1,0.3-0.1,0.4h0.4l0.9-1.4V32H292.4z M293.2,32.1c0,0-0.1,0.1-0.2,0.3s-0.2,0.3-0.3,0.4c-0.1,0.1-0.2,0.3-0.2,0.4
		c0,0.1,0,0.3,0,0.4h0.2l0.7-1.5C293.4,32.1,293.2,32.1,293.2,32.1z M294.1,32.1L294.1,32.1c-0.1,0.1-0.1,0.1-0.1,0.1l0,0
		c-0.2,0.2-0.4,0.5-0.5,0.8c-0.2,0.3-0.2,0.6-0.2,0.8c0.2,0,0.4,0,0.8,0c0.3,0,0.6-0.1,0.7-0.3c0-0.1,0.1-0.1,0.2-0.3
		c0.1-0.1,0.2-0.3,0.3-0.4c0.1-0.2,0.2-0.3,0.3-0.4s0.1-0.2,0.2-0.3C295.8,32.1,294.1,32.1,294.1,32.1z M295.6,18.3c0,0-0.1,0-0.2,0
		s-0.2,0-0.2,0s-0.2,0.1-0.3,0.3c-0.2,0.2-0.3,0.3-0.3,0.4c-0.2,0.2-0.4,0.4-0.7,0.7c-0.3,0.2-0.4,0.5-0.4,0.8c0.1,0,0.4,0,0.7,0
		c0.3,0,0.5-0.1,0.6-0.2c0,0,0-0.1,0.1-0.2s0.1-0.2,0.2-0.3c0-0.1,0.1-0.2,0.2-0.3c0.1-0.1,0.1-0.1,0.1-0.1s0.1-0.1,0.1-0.2
		c0.1-0.1,0.2-0.2,0.2-0.3c0.1-0.1,0.2-0.2,0.2-0.3c0.1-0.1,0.1-0.1,0.1-0.2l0.1-0.1c0-0.1,0.1-0.1,0.1-0.1s-0.1,0-0.2,0
		S295.6,18.3,295.6,18.3z M295.9,32.6c-0.3,0.1-0.5,0.4-0.7,0.8c-0.2,0.4-0.3,0.7-0.3,1v0.3L296,33v-0.4H295.9z M295.3,20.5
		c0,0,0.2,0,0.4,0.1c0.3,0,0.4,0.1,0.5,0.1c0,0,0.1,0,0.2,0s0.1-0.1,0.1-0.1l0.1-0.1c0-0.1,0.1-0.2,0.2-0.3c0.1-0.1,0.1-0.2,0.2-0.3
		c0-0.1,0.1-0.1,0.1-0.2c0,0,0.1-0.1,0.1-0.2c0.1-0.1,0.1-0.2,0.2-0.3c0.1-0.1,0.1-0.2,0.2-0.3c0.1-0.1,0.1-0.2,0.1-0.2
		s-0.1,0-0.3-0.1c-0.1,0-0.2-0.1-0.3-0.1c0,0-0.1,0-0.2,0s-0.2,0-0.2-0.1l-0.3-0.1l-0.2,0.2c0,0.1-0.1,0.1-0.2,0.2s-0.1,0.1-0.1,0.2
		c-0.2,0.2-0.4,0.4-0.6,0.7s-0.3,0.5-0.3,0.8L295.3,20.5L295.3,20.5z M295.1,35.1c0,0.2,0,0.4,0.1,0.6s0.2,0.3,0.3,0.5l1.3-1.9V34
		c0-0.2,0-0.3-0.1-0.4c0-0.1-0.1-0.2-0.3-0.3h-0.2c-0.2,0.2-0.4,0.5-0.7,0.8C295.3,34.5,295.1,34.8,295.1,35.1z M295.8,37.3
		c0,0.1,0,0.2,0,0.3s0.1,0.2,0.2,0.3c0.1,0,0.2-0.2,0.4-0.4c0.2-0.2,0.4-0.4,0.6-0.7s0.3-0.5,0.5-0.7s0.2-0.4,0.2-0.5
		c0-0.2,0-0.3-0.1-0.6c-0.1-0.2-0.2-0.4-0.4-0.5c-0.3,0.3-0.6,0.8-0.9,1.2C296,36.4,295.8,36.8,295.8,37.3z M296.6,38.8
		c0,0.2,0,0.3,0,0.5s0.1,0.3,0.3,0.4l0.2-0.1c0,0,0-0.1,0.1-0.2c0.1-0.1,0.1-0.2,0.2-0.3s0.1-0.2,0.2-0.3s0.1-0.2,0.1-0.2
		s0.1-0.1,0.2-0.2c0.1-0.1,0.2-0.2,0.3-0.3c0.1-0.1,0.2-0.2,0.3-0.3c0.1-0.1,0.2-0.2,0.2-0.2v-0.2c0-0.2-0.1-0.3-0.2-0.6
		s-0.3-0.3-0.5-0.3c-0.1,0-0.3,0.1-0.4,0.3c-0.2,0.2-0.3,0.5-0.5,0.8s-0.3,0.6-0.4,0.8C296.6,38.5,296.6,38.7,296.6,38.8z
		 M297.1,20.8c0,0,0.1,0,0.1,0.1c0.1,0,0.1,0.1,0.2,0.1s0.2,0,0.3,0.1c0.1,0,0.2,0,0.2,0c0.1,0,0.2-0.1,0.4-0.3
		c0.2-0.2,0.3-0.4,0.3-0.5c0,0,0-0.1,0.1-0.1c0.1-0.1,0.1-0.1,0.2-0.2c0-0.1,0.1-0.1,0.2-0.2s0.1-0.1,0.1-0.1v-0.1
		c0-0.1-0.1-0.2-0.3-0.3c-0.2-0.1-0.3-0.2-0.5-0.2s-0.3,0.1-0.5,0.3c-0.2,0.1-0.3,0.3-0.4,0.5s-0.2,0.4-0.3,0.5
		C297.2,20.5,297.1,20.6,297.1,20.8L297.1,20.8z M297.4,40.4c0,0.2,0,0.3,0,0.5s0.1,0.3,0.3,0.4l1.6-2.5v-0.1c0-0.1,0-0.2-0.1-0.3
		s-0.2-0.2-0.3-0.4h0.1c-0.1,0-0.3,0.1-0.4,0.3c-0.2,0.2-0.3,0.5-0.5,0.7c-0.2,0.3-0.3,0.5-0.4,0.8S297.4,40.3,297.4,40.4z
		 M298.2,42c0,0.2,0.1,0.4,0.3,0.5c0.2-0.3,0.4-0.7,0.7-1c0.2-0.4,0.6-0.7,1-0.9c0,0,0.1,0,0.2-0.1c0.1,0,0.2-0.1,0.2-0.1l0,0l0,0
		l0,0c0,0,0,0,0-0.1s-0.1-0.2-0.3-0.4c-0.1-0.2-0.2-0.3-0.3-0.4c0,0,0,0-0.1-0.1l-0.1-0.1l-0.2,0.1c0,0-0.1,0.1-0.2,0.3
		s-0.2,0.3-0.4,0.5s-0.3,0.4-0.4,0.6c-0.1,0.2-0.2,0.4-0.3,0.5c0,0,0,0.1-0.1,0.3C298.2,41.8,298.2,41.9,298.2,42L298.2,42z
		 M298.9,21.1c0,0.1,0,0.2,0.1,0.3c0,0.1,0.1,0.2,0.3,0.2c0.1,0,0.2,0,0.2,0s0.1,0,0.2-0.1c0-0.1,0.1-0.1,0.3-0.2
		c0.1-0.1,0.2-0.2,0.4-0.3c0.1-0.1,0.2-0.2,0.3-0.3s0.2-0.2,0.2-0.2v-0.1c0-0.1,0-0.1-0.1-0.2s-0.2-0.1-0.3-0.2
		c-0.1-0.1-0.2-0.1-0.4-0.1c-0.1,0-0.2-0.1-0.2-0.1c-0.3,0.2-0.5,0.4-0.7,0.7C299,20.7,298.9,20.9,298.9,21.1z M300.7,40.7
		c-0.5,0.3-0.9,0.6-1.3,1.1c-0.4,0.4-0.6,0.9-0.6,1.4v0.1v0.1l1.8-2.1v-0.6H300.7z M300.9,41.8c-0.1,0-0.2,0.1-0.4,0.3
		c-0.2,0.2-0.4,0.4-0.6,0.6s-0.3,0.5-0.5,0.7c-0.1,0.2-0.2,0.4-0.2,0.4v0.1V44l2.7-1.5v-0.1c0,0-0.1,0-0.2-0.1
		c-0.1,0-0.1-0.1-0.2-0.1c0,0-0.1-0.1-0.3-0.2C301.2,41.9,301.1,41.8,300.9,41.8L300.9,41.8z M302.3,42.9c-0.1,0-0.3,0.1-0.6,0.2
		c-0.2,0.1-0.5,0.2-0.8,0.4s-0.5,0.3-0.7,0.5s-0.4,0.3-0.5,0.4h1.4c0.1,0,0.2-0.1,0.3-0.2c0.1-0.1,0.2-0.3,0.4-0.5
		c0.1-0.2,0.2-0.3,0.3-0.5C302.3,43,302.3,42.9,302.3,42.9z M299.9,22.1c0,0,0.1,0.1,0.2,0.1c0.1,0.1,0.2,0.1,0.2,0.1
		c0.2-0.1,0.3-0.3,0.4-0.4c0.1-0.2,0.2-0.3,0.4-0.4c0,0,0.1-0.1,0.3-0.2c0.1-0.1,0.2-0.1,0.3-0.1V21c0,0-0.1-0.1-0.2-0.2
		s-0.2-0.2-0.2-0.2h-0.1c-0.1,0-0.2,0.1-0.3,0.2c-0.1,0.1-0.3,0.2-0.4,0.4c-0.1,0.1-0.3,0.3-0.4,0.4C300,21.8,299.9,21.9,299.9,22.1
		L299.9,22.1z M301.9,21.5c-0.4,0.3-0.7,0.6-0.8,0.9s-0.1,0.7-0.1,1.1c0.2,0,0.3-0.1,0.4-0.2c0-0.1,0.1-0.2,0.2-0.3
		c0,0,0.2-0.1,0.4-0.3c0.2-0.2,0.3-0.3,0.3-0.4s0-0.2-0.1-0.4C302.1,21.7,302,21.6,301.9,21.5z M302.4,22.8
		c-0.2,0.2-0.4,0.4-0.6,0.6s-0.3,0.4-0.3,0.6v0.2c0.2-0.1,0.4-0.3,0.6-0.5s0.3-0.5,0.3-0.6V22.8z M303.2,42.5
		c-0.1,0-0.2,0.1-0.2,0.3s-0.1,0.3-0.1,0.4c0,0.1-0.2,0.3-0.3,0.5s-0.3,0.4-0.3,0.5h1.2c0,0,0.1,0,0.1-0.1l0.1-0.1
		c0.1-0.1,0.2-0.2,0.3-0.4c0.1-0.2,0.2-0.3,0.3-0.5c0.1-0.1,0.2-0.3,0.3-0.6v-0.1L303.2,42.5L303.2,42.5z M305.9,42.5
		c-0.3,0-0.5,0-0.7,0.1s-0.3,0.2-0.5,0.4c-0.1,0.2-0.2,0.3-0.3,0.5c-0.1,0.2-0.2,0.4-0.2,0.5h0.9c0.1-0.2,0.2-0.3,0.3-0.4
		c0.1-0.1,0.1-0.2,0.2-0.4c0.1-0.1,0.1-0.2,0.2-0.3c0,0,0-0.1,0.1-0.2C305.9,42.6,305.9,42.5,305.9,42.5z M307.7,42.5
		c-0.5,0-0.9,0.1-1.2,0.4c-0.3,0.3-0.5,0.6-0.7,0.9h0.1h0.1c0.1,0,0.3-0.1,0.6-0.2c0.2-0.1,0.5-0.3,0.7-0.4c0.2-0.2,0.4-0.3,0.6-0.5
		s0.3-0.3,0.4-0.3L307.7,42.5L307.7,42.5z"/>
</g>
<g class="st0">
	<path class="st1" d="M312.5,41.3v-1.7c0-0.1,0.2-0.2,0.3-0.4c0.2-0.2,0.3-0.3,0.3-0.3c0.1-0.1,0.2-0.2,0.4-0.4
		c0.2-0.2,0.3-0.4,0.5-0.5c0.2-0.2,0.3-0.4,0.5-0.5c0.1-0.2,0.2-0.3,0.3-0.4c0.2-0.1,0.4-0.2,0.7-0.1c0.3,0,0.5,0.1,0.7,0.1
		c0-0.6,0-1.1-0.1-1.7c-0.1-0.6-0.1-1.1,0-1.7v-1c0-0.1,0-0.4,0-0.7s0-0.7,0-1c0-0.4,0-0.7,0-1s0-0.6,0-0.7c0-0.2,0-0.5,0-0.9
		s0-0.7,0-1.1s0-0.7,0-0.9c0-0.3,0-0.4,0-0.5s0-0.1,0-0.3c0-0.2,0-0.3-0.1-0.5c0-0.2,0-0.4-0.1-0.5c0-0.2,0-0.3,0-0.3v-1.1
		c0-0.1,0-0.3-0.1-0.6s-0.1-0.5-0.1-0.5h-1.9c-0.1,0-0.3,0-0.6-0.1c-0.3,0-0.6-0.1-0.7-0.1s-0.3-0.1-0.3-0.2
		c-0.1-0.1-0.2-0.2-0.2-0.3c0-0.1-0.1-0.3-0.1-0.4s0-0.2,0-0.3v-4.8c0,0,0-0.1,0-0.2c0-0.1,0.1-0.3,0.2-0.4c0.1-0.2,0.3-0.3,0.5-0.5
		s0.5-0.3,0.9-0.4c0.2-0.1,0.3-0.1,0.4-0.1s0.2-0.1,0.4-0.1c0.2-0.1,0.4-0.2,0.5-0.2s0.2,0,0.4,0.1c0.3,0.1,0.6,0.1,0.9,0.1
		s0.7,0,1.2,0s1,0,1.7,0s1.5,0,2.5,0c0.6,0,1.2,0,1.8-0.1c0.6-0.1,1.2-0.1,1.8-0.1c0.8,0,1.5,0,2.3,0.1c0.7,0.1,1.5,0.1,2.2,0.1
		c0.3,0,0.5,0,0.7,0s0.4,0,0.6,0l0,0c0.1,0,0.2,0.1,0.3,0.1l0.1,0.1v4.7c0,0.2,0,0.3-0.1,0.5s-0.1,0.4-0.2,0.5
		c-0.1,0.2-0.2,0.3-0.3,0.5s-0.1,0.2-0.2,0.3c0,0,0,0.1-0.1,0.3s-0.1,0.2-0.1,0.3c0,0-0.2,0.1-0.3,0.1s-0.4,0.1-0.6,0.1
		s-0.4,0.1-0.6,0.1s-0.3,0.1-0.4,0.1c0,0-0.1,0-0.3,0s-0.3,0-0.4,0.1c-0.1,0-0.3,0.1-0.4,0.1s-0.2,0.1-0.2,0.1c0.1,2,0,3.9-0.1,5.9
		c-0.2,1.9-0.2,3.9-0.2,5.9v2.6l0.1,0.5c0.2,0,0.4,0,0.8,0c0.3,0,0.7-0.1,1.1-0.1s0.7-0.1,1-0.1s0.6,0,0.8,0h0.1h0.1h0.1l0.2,0.4
		c0,0.5,0.1,1,0.1,1.3c0,0.4,0,0.7,0.1,1.1c0,0.4,0,0.7,0,0.9V41c0,0.1,0,0.3,0,0.5s-0.1,0.3-0.2,0.4c0,0-0.1,0.2-0.1,0.4
		c-0.1,0.2-0.1,0.4-0.2,0.4c-0.1,0.2-0.2,0.5-0.3,0.6c-0.1,0.2-0.2,0.4-0.3,0.6c0,0-0.1,0.1-0.2,0.1s-0.3,0.1-0.4,0.1
		s-0.3,0.1-0.5,0.1c-0.1,0-0.2,0.1-0.3,0.1c-0.7,0-1.5,0.1-2.3,0.1s-1.6,0.1-2.4,0.1s-1.7,0.1-2.5,0.1s-1.6,0-2.3,0
		c-0.1,0-0.2,0-0.3,0c-0.1,0-0.3,0-0.5,0s-0.3,0-0.5,0s-0.3,0-0.3,0c-0.2-0.1-0.3-0.1-0.4-0.1s-0.2,0-0.4,0c-0.8,0-1.5,0-2.2,0.1
		c-0.7,0-1.5,0.1-2.2,0.1v-3L312.5,41.3z M314.2,14.7c-0.5,0-0.9,0.2-1.3,0.5c-0.3,0.3-0.5,0.8-0.5,1.3v0.3c0.1-0.1,0.3-0.2,0.4-0.4
		c0.1-0.2,0.3-0.4,0.4-0.6c0.1-0.2,0.3-0.4,0.5-0.5c0.2-0.2,0.3-0.3,0.5-0.3V14.7z M314,16.3c0-0.1,0-0.2,0-0.3c0-0.2,0-0.3,0.1-0.5
		l-0.3,0.3l-0.2,0.1c0,0-0.1,0.1-0.2,0.2s-0.2,0.3-0.3,0.4c-0.1,0.1-0.2,0.3-0.3,0.4c-0.1,0.1-0.1,0.2-0.1,0.2
		c-0.2,0.4-0.3,0.7-0.3,0.9c0,0.3-0.1,0.6-0.1,1v0.5l0.2-0.1c0-0.1,0.1-0.3,0.2-0.5s0.2-0.5,0.3-0.8s0.2-0.5,0.3-0.8
		s0.2-0.4,0.2-0.5c0,0,0.1-0.1,0.2-0.3C314,16.4,314,16.3,314,16.3z M312.4,20.7c0.5-0.5,0.8-0.8,1-1.2c0.2-0.3,0.3-0.6,0.4-0.8
		c0.1-0.2,0.1-0.4,0.1-0.5s0-0.3,0-0.4v-0.2c0,0.1-0.1,0.2-0.3,0.4c-0.1,0.2-0.3,0.4-0.4,0.7c-0.1,0.3-0.3,0.5-0.5,0.7
		s-0.3,0.4-0.4,0.6L312.4,20.7L312.4,20.7z M312.9,21.1c0,0.1,0,0.2,0,0.2c0,0.1,0.1,0.1,0.2,0.1h0.1c0,0,0.1,0,0.1-0.1l0.1-0.1
		l0.9-1.7c0,0,0,0-0.1,0s-0.3,0.1-0.4,0.2c-0.2,0.1-0.3,0.3-0.5,0.4c-0.1,0.2-0.3,0.3-0.4,0.5C313,20.8,312.9,21,312.9,21.1z
		 M314.8,38.1c-0.4,0.3-0.8,0.6-1.1,0.9c-0.4,0.3-0.5,0.7-0.5,1.2v0.3l0.1-0.1l0.1-0.1c0.1-0.1,0.3-0.3,0.5-0.5s0.4-0.4,0.6-0.7
		c0.2-0.2,0.3-0.4,0.5-0.6c0.1-0.2,0.2-0.3,0.3-0.3C315.1,38.2,315,38.1,314.8,38.1L314.8,38.1z M315.2,38.9c-0.4,0.3-0.8,0.6-1,0.9
		c-0.3,0.3-0.6,0.7-0.9,1v1c0,0,0.1-0.1,0.2-0.1c0.1-0.1,0.2-0.1,0.2-0.1c0-0.1,0.1-0.2,0.2-0.3s0.2-0.3,0.4-0.4
		c0.1-0.1,0.2-0.3,0.4-0.4c0.1-0.1,0.2-0.2,0.3-0.3c0.1-0.2,0.2-0.3,0.2-0.4c0-0.1,0-0.2,0-0.5c0,0,0-0.1,0-0.2
		C315.2,39,315.2,39,315.2,38.9z M315.1,40.6c-0.1,0.1-0.2,0.2-0.4,0.4c-0.2,0.2-0.3,0.3-0.5,0.5s-0.3,0.4-0.4,0.6
		c-0.1,0.2-0.2,0.3-0.2,0.4c0,0.1-0.1,0.2-0.1,0.5c-0.1,0.3-0.1,0.5-0.1,0.6V44c0.5-0.3,0.9-0.6,1.2-0.9c0.3-0.3,0.4-0.5,0.6-0.7
		c0.1-0.2,0.2-0.4,0.2-0.6s0-0.4,0-0.6c0,0,0-0.1,0-0.3S315.1,40.6,315.1,40.6z M314,21.4c0,0.1,0.1,0.2,0.2,0.2s0.2,0.1,0.3,0.1
		c0.1,0,0.3-0.1,0.4-0.2c0.1-0.2,0.2-0.3,0.2-0.5c0.1-0.2,0.1-0.4,0.1-0.6s0-0.4,0-0.5c-0.4,0-0.6,0.1-0.8,0.4
		c-0.1,0.3-0.2,0.5-0.4,0.8c0,0,0,0.1-0.1,0.1c0,0,0,0.1-0.1,0.1C314.1,21.3,314,21.4,314,21.4z M314.2,44.1c0,0,0.2,0,0.4,0.1
		c0.2,0,0.4,0.1,0.5,0.1h0.4c0,0,0.1-0.1,0.2-0.2c0.1-0.1,0.2-0.2,0.3-0.2c0.1-0.1,0.2-0.1,0.3-0.3c0.1-0.1,0.2-0.2,0.3-0.3
		c0.1-0.1,0.2-0.2,0.4-0.4v-0.1l-1.4-0.1L314.2,44.1z M315.5,21.3c0,0.1,0,0.1,0,0.2c0,0,0,0.1,0.2,0.1c0,0,0.2-0.1,0.4-0.1
		s0.3-0.1,0.3-0.1c0-0.1,0.1-0.2,0.3-0.3s0.3-0.3,0.5-0.5s0.3-0.3,0.4-0.5s0.2-0.3,0.2-0.3s-0.1,0-0.2,0s-0.3,0-0.4,0
		c-0.2,0-0.3,0-0.4,0.1c-0.1,0-0.2,0-0.2,0c-0.3,0.1-0.6,0.3-0.7,0.6S315.5,21.1,315.5,21.3z M318.2,20.1c-0.2,0.2-0.4,0.3-0.6,0.5
		s-0.4,0.4-0.6,0.5c-0.2,0.2-0.3,0.4-0.5,0.6c-0.1,0.2-0.2,0.4-0.1,0.6l0.1,0.7c0-0.1,0.1-0.3,0.2-0.5c0.2-0.2,0.4-0.4,0.6-0.6
		s0.4-0.4,0.6-0.5s0.3-0.3,0.3-0.3V21c0-0.1,0-0.2-0.1-0.4C318.2,20.4,318.2,20.2,318.2,20.1z M317.6,42.7c0,0-0.1,0.1-0.3,0.3
		c-0.2,0.2-0.3,0.3-0.4,0.4c-0.1,0.1-0.2,0.2-0.3,0.3c-0.1,0.1-0.2,0.3-0.2,0.4h1.6c0,0,0.1-0.1,0.2-0.2s0.2-0.2,0.3-0.4
		s0.2-0.3,0.3-0.4c0.1-0.1,0.2-0.2,0.2-0.3L317.6,42.7z M318,24.7c-0.3,0.4-0.6,0.8-0.9,1.3s-0.4,1-0.4,1.4c0,0,0,0.1,0,0.2
		s0,0.2,0,0.2s0.1,0,0.2-0.1s0.2-0.1,0.2-0.1s0.1-0.1,0.2-0.3c0.1-0.2,0.2-0.3,0.3-0.5c0.1-0.2,0.2-0.3,0.3-0.5
		c0.1-0.2,0.2-0.2,0.2-0.3c0,0,0.1-0.1,0.2-0.1c0.1-0.1,0.2-0.1,0.2-0.1s0-0.1,0-0.2s0-0.2,0-0.2c0-0.2,0-0.4,0-0.5
		s-0.1-0.3-0.2-0.5L318,24.7z M318.5,26.6c0,0-0.1,0-0.2,0.1s-0.1,0.1-0.1,0.1s-0.2,0.2-0.3,0.4c-0.2,0.3-0.3,0.4-0.4,0.6
		c0,0.1-0.1,0.2-0.2,0.3c-0.1,0.1-0.2,0.2-0.2,0.3c-0.1,0.1-0.2,0.3-0.3,0.5c0,0,0,0.2,0,0.4c0,0.2,0,0.4,0,0.5s0,0.2,0,0.4
		c0,0.2,0,0.3,0,0.4c0,0,0.1,0,0.1-0.1l0.1-0.1c0,0,0.1-0.1,0.1-0.2c0.1-0.1,0.1-0.2,0.2-0.3s0.1-0.2,0.2-0.3s0.1-0.2,0.1-0.2
		c0.1-0.1,0.2-0.2,0.3-0.4c0.1-0.2,0.2-0.3,0.3-0.5c0.1-0.2,0.2-0.3,0.2-0.4c0.1-0.1,0.1-0.2,0.1-0.2s0-0.1,0.1-0.3
		c0-0.2,0-0.3,0-0.4c0,0,0-0.2,0-0.4C318.6,26.7,318.5,26.6,318.5,26.6z M318.3,21.8c-0.1,0-0.2,0-0.3,0.1c-0.1,0.1-0.2,0.1-0.2,0.2
		c-0.1,0.1-0.2,0.3-0.3,0.4c-0.1,0.2-0.3,0.3-0.4,0.5s-0.2,0.3-0.3,0.4c-0.1,0.1-0.1,0.2-0.1,0.2V26c0.3-0.5,0.5-0.8,0.7-1.1
		c0.2-0.3,0.5-0.6,1-0.9v-2.2H318.3z M316.9,33.9c0.1-0.1,0.3-0.2,0.4-0.3s0.3-0.3,0.4-0.5c0.2-0.2,0.3-0.3,0.5-0.5s0.3-0.2,0.5-0.3
		v-0.5c0-0.1,0-0.3,0-0.6c0-0.3,0-0.5,0-0.6c0,0-0.1,0.1-0.3,0.2s-0.2,0.2-0.3,0.2c0,0-0.1,0.1-0.2,0.2s-0.2,0.2-0.3,0.4
		s-0.2,0.3-0.3,0.4c-0.1,0.1-0.2,0.2-0.2,0.3l-0.1,0.1c0,0.1-0.1,0.1-0.1,0.1s0,0.1,0,0.3s0,0.3,0,0.4c0,0,0,0.1,0,0.3
		C316.9,33.8,316.9,33.9,316.9,33.9z M318.5,28.9c0,0-0.1,0.2-0.3,0.4c-0.1,0.2-0.2,0.3-0.2,0.4c-0.1,0.1-0.2,0.3-0.3,0.5
		s-0.2,0.4-0.3,0.5c-0.1,0.2-0.3,0.4-0.4,0.7V32c0,0,0.1-0.1,0.2-0.2s0.2-0.2,0.3-0.4c0.1-0.1,0.2-0.3,0.3-0.4
		c0.1-0.1,0.2-0.2,0.2-0.3c0,0,0.1-0.1,0.3-0.3c0.2-0.2,0.2-0.2,0.2-0.3c0,0,0-0.1,0-0.3s0-0.3,0-0.4s0-0.2,0-0.3
		C318.5,29,318.5,28.9,318.5,28.9z M316.9,36.3c0.4-0.4,0.7-0.7,0.9-0.9s0.4-0.5,0.5-0.8s0.2-0.5,0.3-0.8c0.1-0.3,0.1-0.6,0.1-0.9
		c-0.1,0.1-0.2,0.3-0.4,0.4c-0.2,0.2-0.4,0.3-0.6,0.5s-0.4,0.3-0.5,0.5s-0.2,0.3-0.2,0.4L316.9,36.3L316.9,36.3z M318.5,35.1
		c0,0.1-0.1,0.2-0.3,0.3c-0.1,0.1-0.2,0.3-0.4,0.4s-0.2,0.3-0.4,0.4c-0.1,0.1-0.2,0.2-0.2,0.3c0,0-0.1,0.1-0.1,0.2
		c0,0.1-0.1,0.1-0.1,0.2V37c0,0,0.1,0,0.3-0.1c0.1,0,0.2-0.1,0.2-0.1c0.1-0.1,0.3-0.1,0.6-0.2c0.3,0,0.4-0.1,0.4-0.1V35.1z
		 M319.8,42.5c-0.1,0.3-0.4,0.6-0.7,0.8c-0.3,0.2-0.4,0.5-0.4,0.9h1.7c0-0.1,0.1-0.2,0.3-0.4c0.1-0.2,0.2-0.3,0.3-0.3
		c0,0,0.1-0.1,0.1-0.2c0.1-0.1,0.1-0.2,0.2-0.3s0.1-0.2,0.2-0.3s0.1-0.1,0.1-0.2v-0.1l0,0l0,0L319.8,42.5L319.8,42.5z M321.2,44.2
		h0.4c0.4,0,0.6,0,0.7-0.1s0.2-0.2,0.4-0.5c0,0,0.1-0.1,0.1-0.2c0.1-0.1,0.1-0.2,0.2-0.4c0.1-0.1,0.2-0.2,0.2-0.3
		c0.1-0.1,0.1-0.2,0.1-0.2s0,0,0-0.1v-0.1c-0.5,0-0.8,0.1-1,0.2c-0.2,0.1-0.5,0.3-0.8,0.6c-0.1,0.1-0.2,0.2-0.4,0.4
		c-0.1,0.2-0.2,0.3-0.2,0.3L321.2,44.2z M325.6,42.4c-0.7,0-1.3,0.2-1.8,0.5s-0.8,0.8-0.8,1.4c0.1,0,0.2,0,0.3,0s0.3,0,0.4,0
		c0.2,0,0.3,0,0.4,0s0.2,0,0.3-0.1c0,0,0.1-0.1,0.1-0.2c0-0.1,0.1-0.2,0.1-0.2c0.1-0.1,0.3-0.3,0.6-0.6S325.6,42.6,325.6,42.4z
		 M327.1,44c0.2-0.3,0.4-0.6,0.6-0.9c0.2-0.3,0.3-0.5,0.5-0.7c-0.1,0-0.3,0-0.5,0s-0.4,0-0.6,0s-0.3,0-0.5,0s-0.2,0-0.2-0.1
		c0,0-0.2,0.1-0.4,0.3c-0.2,0.2-0.4,0.3-0.5,0.4c-0.2,0.2-0.3,0.3-0.4,0.5c0,0.2-0.1,0.4-0.1,0.6c0,0,0.2,0,0.3,0
		c0.2,0,0.4,0,0.6-0.1c0.2,0,0.4,0,0.6-0.1C326.9,44,327,44,327.1,44z M329,42.3C328.9,42.3,328.9,42.3,329,42.3
		c-0.1-0.1-0.1-0.1-0.1-0.1c-0.1,0.1-0.2,0.2-0.3,0.3c0,0.1-0.1,0.2-0.2,0.5c-0.1,0.2-0.4,0.5-0.8,1c0.4-0.1,0.8-0.1,1-0.1
		c0.3,0,0.5,0,0.8-0.1c0.2-0.1,0.4-0.2,0.6-0.5c0.2-0.2,0.4-0.7,0.7-1.3c0,0-0.1,0-0.3,0c-0.2,0-0.4,0.1-0.6,0.1s-0.4,0.1-0.6,0.1
		C329.1,42.3,329,42.3,329,42.3z M327.7,21.5c0.1,0,0.2-0.1,0.3-0.3c0.1-0.2,0.2-0.4,0.3-0.6c0.1-0.2,0.1-0.4,0.2-0.6
		s0.1-0.3,0.1-0.4c0,0-0.2,0-0.4,0.1c-0.2,0-0.3,0.1-0.4,0.1c0,0,0,0.1-0.1,0.2c0,0.1-0.1,0.2-0.1,0.3v1.1L327.7,21.5z M329.5,19.7
		c-0.2,0-0.4,0.1-0.5,0.2s-0.2,0.3-0.3,0.5s-0.1,0.4-0.1,0.6s0,0.3,0,0.4c0.2,0,0.4-0.1,0.5-0.2c0.1-0.2,0.2-0.3,0.3-0.5
		c0.1-0.2,0.1-0.4,0.1-0.6S329.5,19.8,329.5,19.7z M330.2,21.1c0.1-0.1,0.2-0.4,0.3-0.7s0.2-0.6,0.4-0.7l-0.1-0.1
		c0.1,0,0.1-0.1,0-0.1s-0.2,0-0.3,0.1c-0.1,0.1-0.3,0.2-0.4,0.4c-0.2,0.2-0.3,0.5-0.4,0.9V21c0,0.1,0,0.1,0,0.2
		c0-0.1,0.1-0.1,0.3-0.1C330.1,21.2,330.2,21.2,330.2,21.1z"/>
</g>
<g class="st0">
	<path class="st1" d="M332.5,32.1c0-1,0.1-2,0.3-3c0.2-1,0.5-2,1-2.8s1-1.5,1.5-2.4c0.5-0.8,1.1-1.6,1.7-2.4s1.2-1.5,1.9-2.2
		c0.7-0.7,1.4-1.4,2.2-2c0,0,0.1-0.1,0.3-0.2c0.2-0.1,0.4-0.2,0.6-0.4c0.2-0.1,0.4-0.2,0.5-0.3c0.2-0.1,0.3-0.2,0.3-0.2
		c0.1-0.1,0.3-0.2,0.4-0.3s0.3-0.2,0.5-0.3s0.4-0.2,0.7-0.3c0.3-0.1,0.6-0.3,1-0.5c0.9-0.3,1.9-0.5,2.8-0.7s1.9-0.3,2.9-0.3
		c0.7,0,1.4,0.1,2,0.2c0.6,0.1,1.3,0.3,1.9,0.5c1.7,0.6,3.2,1.3,4.5,2c1.3,0.7,2.6,1.6,3.8,2.7l0.2,0.3c0.3,0.2,0.5,0.5,0.8,1
		c0.2,0.4,0.4,1,0.6,1.5s0.4,1.2,0.5,1.8c0.2,0.6,0.3,1.2,0.4,1.8c0.1,0.6,0.1,1,0.2,1.5s0,0.7,0,0.8c0,1-0.2,1.9-0.4,2.8
		c-0.2,0.9-0.5,1.8-0.9,2.7c-0.3,0.8-0.6,1.6-1,2.4c-0.4,0.8-1,1.5-1.7,2.2c-0.1,0.1-0.2,0.2-0.4,0.4c-0.2,0.2-0.4,0.4-0.7,0.6
		c-0.2,0.2-0.5,0.4-0.7,0.6s-0.4,0.3-0.4,0.4c0,0-0.2,0.1-0.3,0.3c-0.2,0.2-0.3,0.3-0.3,0.3s-0.1,0.1-0.2,0.2
		c-0.1,0.1-0.2,0.2-0.3,0.3c-0.1,0.1-0.2,0.2-0.3,0.3c-0.1,0.1-0.1,0.1-0.2,0.1c-1.1,1-2.5,1.8-4.2,2.5c-1.7,0.6-3.4,0.9-5.1,0.9
		c-0.3,0-0.7,0-1.2,0s-0.8-0.1-1.1-0.1c0,0-0.2,0-0.6-0.1c-0.3-0.1-0.8-0.2-1.2-0.3c-0.5-0.1-1-0.2-1.5-0.3s-0.9-0.2-1.2-0.3
		c-0.9-0.2-1.7-0.6-2.4-1c-0.7-0.5-1.4-1-2.2-1.4c0,0-0.1,0-0.2-0.1s-0.1-0.1-0.1-0.1c-0.8-0.7-1.4-1.4-2-2.1
		c-0.5-0.7-1.1-1.4-1.6-2.3c0,0-0.1-0.2-0.2-0.4s-0.2-0.4-0.2-0.5s0-0.2-0.1-0.4s-0.2-0.4-0.2-0.7s-0.2-0.5-0.2-0.7
		c-0.1-0.2-0.1-0.3-0.1-0.4l-0.2-0.3v-1.3H332.5z M333.6,30.4c0,0.1-0.1,0.2-0.2,0.3c-0.1,0.1-0.1,0.2-0.1,0.2s0,0.1,0,0.3
		c0,0.2,0,0.3,0,0.3s0,0.2,0,0.4c0,0.2,0,0.3,0,0.3l3.1-2.4l0.7-0.3v-1.3L333.6,30.4z M337.5,25.7c-0.8,0.3-1.5,0.8-2.1,1.2
		c-0.6,0.5-1.2,1-1.7,1.5c0,0-0.1,0.1-0.2,0.1c-0.1,0.1-0.2,0.1-0.2,0.2c0,0,0,0.2-0.1,0.4c0,0.3-0.1,0.5-0.1,0.6v0.1h0.1l3.7-2.3
		c0,0,0-0.1,0.1-0.3c0-0.1,0.1-0.2,0.1-0.3c0-0.1,0-0.2,0.1-0.5s0.1-0.5,0.1-0.6v-0.1H337.5z M333.2,33c0,0.2,0,0.4,0.1,0.7
		c0,0.3,0.1,0.5,0.3,0.7c0.3-0.2,0.7-0.5,0.9-0.7c0.3-0.2,0.6-0.5,0.8-0.7s0.6-0.4,0.9-0.7s0.7-0.4,1.1-0.6v-0.3v-0.3
		c0,0,0-0.1,0-0.2s0-0.3-0.1-0.4c0-0.1,0-0.3-0.1-0.4c0-0.1,0-0.2,0-0.3c-0.7,0.3-1.3,0.7-1.9,1.2s-1.1,1-1.6,1.5
		c0,0-0.1,0.1-0.2,0.2C333.3,32.8,333.2,32.9,333.2,33L333.2,33z M338,23.1c0,0-0.1,0.1-0.4,0.3c-0.2,0.2-0.5,0.4-0.8,0.6
		s-0.6,0.5-0.9,0.7s-0.5,0.4-0.7,0.6c-0.3,0.3-0.7,0.6-0.9,1c-0.3,0.4-0.4,0.8-0.4,1.2v0.1c0.6-0.5,1.2-0.9,1.8-1.3
		c0.6-0.4,1.3-0.8,2-1.1c0-0.1,0.1-0.2,0.1-0.3c0-0.1,0.1-0.3,0.2-0.4c0.1-0.2,0.1-0.3,0.2-0.4c0-0.1,0.1-0.2,0.1-0.3
		c0,0,0.1-0.1,0.1-0.3c0-0.2,0.1-0.2,0.1-0.3v-0.1V23L338,23.1z M333.9,35.5c0,0,0,0.1,0.1,0.2s0.1,0.2,0.2,0.3s0.1,0.2,0.2,0.3
		s0.1,0.2,0.1,0.2c0.1-0.1,0.2-0.2,0.4-0.4c0.2-0.2,0.4-0.4,0.6-0.6s0.4-0.4,0.6-0.6c0.2-0.2,0.3-0.3,0.4-0.4c0,0,0.1-0.1,0.2-0.2
		c0.1-0.1,0.2-0.2,0.4-0.3c0.1-0.1,0.2-0.2,0.3-0.3s0.2-0.2,0.2-0.2c0-0.1,0-0.2,0-0.3s0-0.3-0.1-0.4s0-0.3-0.1-0.4
		c0-0.1,0-0.2,0-0.3c-0.2,0-0.3,0-0.3,0s0,0.1-0.2,0.1c-0.1,0.1-0.2,0.2-0.4,0.3c-0.2,0.2-0.4,0.3-0.7,0.5s-0.5,0.4-0.7,0.5
		s-0.3,0.3-0.4,0.4c-0.2,0.2-0.4,0.3-0.5,0.5c-0.2,0.2-0.2,0.4-0.2,0.6v0.5H333.9z M334.7,36.9c0,0,0.1,0.1,0.1,0.2
		c0.1,0.1,0.1,0.2,0.2,0.3s0.2,0.2,0.2,0.3c0.1,0.1,0.1,0.2,0.1,0.2s0.1,0,0.1,0.1l0.1,0.1l2.6-2.7v-0.1v-0.1c0-0.1-0.1-0.3-0.2-0.6
		s-0.1-0.5-0.2-0.5c0,0,0,0-0.1,0s-0.2,0.1-0.4,0.2c-0.2,0.2-0.4,0.3-0.6,0.5s-0.4,0.4-0.6,0.6c-0.2,0.2-0.3,0.3-0.4,0.4l-0.1,0.1
		c0,0.1-0.1,0.1-0.2,0.2c-0.1,0.1-0.1,0.2-0.2,0.2c-0.1,0.1-0.1,0.1-0.1,0.1s0,0-0.1,0.1C334.8,36.9,334.7,36.9,334.7,36.9z
		 M339.3,21c-0.8,0.4-1.4,0.9-2,1.4s-1.1,1.1-1.5,1.7h0.1c0.2-0.2,0.5-0.4,0.9-0.6s0.8-0.5,1.1-0.8c0.4-0.3,0.7-0.5,0.9-0.8
		S339.3,21.4,339.3,21L339.3,21z M336,38.7c0,0.1,0.1,0.2,0.2,0.3s0.3,0.3,0.4,0.4c0.2,0.2,0.3,0.3,0.5,0.4c0.2,0.1,0.3,0.2,0.3,0.2
		h0.1c0,0,0-0.1,0.1-0.1c0-0.1,0.1-0.1,0.1-0.1c0-0.1,0.2-0.2,0.3-0.4c0.2-0.2,0.3-0.4,0.4-0.4c0-0.1,0.1-0.1,0.2-0.2
		c0.1-0.1,0.2-0.2,0.3-0.3s0.2-0.2,0.3-0.4c0.1-0.1,0.2-0.2,0.2-0.2c0-0.1-0.1-0.2-0.2-0.4s-0.2-0.3-0.3-0.5
		c-0.1-0.2-0.2-0.3-0.3-0.5c-0.1-0.2-0.2-0.3-0.3-0.3c-0.1,0.1-0.2,0.1-0.3,0.3s-0.3,0.2-0.4,0.4c-0.1,0.1-0.3,0.3-0.4,0.4
		c-0.1,0.1-0.2,0.2-0.3,0.3c-0.1,0.1-0.2,0.2-0.3,0.3c-0.1,0.1-0.3,0.3-0.4,0.4C336.1,38.4,336,38.6,336,38.7
		C336,38.6,336,38.7,336,38.7z M337.8,40.5L337.8,40.5c0,0.1,0.1,0.1,0.2,0.2c0.1,0.1,0.2,0.1,0.2,0.2c0.1,0.1,0.2,0.1,0.3,0.2
		c0.1,0.1,0.2,0.2,0.4,0.2l0.4,0.3h0.4l1.7-1.7l-1.5-1.6c0,0.1-0.2,0.2-0.4,0.3s-0.3,0.2-0.4,0.3s-0.2,0.2-0.3,0.3
		c-0.1,0.1-0.3,0.3-0.4,0.5s-0.3,0.3-0.4,0.5C337.9,40.3,337.8,40.4,337.8,40.5z M338,21.3l1.7-0.9l2.2-3v-0.1
		c-0.8,0.6-1.5,1.2-2.1,1.8c-0.6,0.6-1.2,1.3-1.8,1.9L338,21.3L338,21.3z M340.1,42.1c0,0.1,0.1,0.2,0.3,0.3s0.4,0.2,0.7,0.3
		c0.3,0.1,0.6,0.2,1,0.4c0.1,0,0.2,0,0.3-0.1c0,0,0.1-0.1,0.3-0.2c0,0,0.1-0.1,0.3-0.2c0.1-0.1,0.3-0.3,0.4-0.4
		c0.1-0.1,0.3-0.3,0.4-0.4c0.1-0.1,0.2-0.2,0.3-0.2c-0.1,0-0.3-0.1-0.6-0.3c-0.3-0.2-0.5-0.2-0.5-0.3c0,0-0.2-0.1-0.4-0.2
		c-0.2-0.1-0.3-0.2-0.4-0.2c0,0-0.1,0-0.2-0.1c-0.1,0-0.1,0-0.1,0s-0.1,0.1-0.3,0.2c-0.1,0.1-0.2,0.2-0.3,0.3c0,0-0.1,0.1-0.2,0.2
		c-0.1,0.1-0.2,0.2-0.3,0.3c-0.1,0.1-0.2,0.2-0.3,0.3c-0.1,0.1-0.2,0.2-0.2,0.2S340.2,42.1,340.1,42.1
		C340.1,41.9,340.1,42,340.1,42.1L340.1,42.1z M343.2,43.2C343.2,43.3,343.2,43.3,343.2,43.2l2.2,0.6l0.1-0.1l0.1-0.1
		c0,0,0.1-0.1,0.2-0.3s0.2-0.2,0.2-0.3c0.1-0.1,0.2-0.2,0.5-0.4s0.4-0.3,0.5-0.4c0-0.1-0.2-0.1-0.4-0.2s-0.4-0.2-0.7-0.2
		c-0.2-0.1-0.5-0.1-0.7-0.2c-0.2-0.1-0.4-0.1-0.5-0.1s-0.3,0.1-0.4,0.2c-0.2,0.1-0.3,0.2-0.5,0.4s-0.3,0.3-0.4,0.5
		C343.2,42.9,343.2,43.1,343.2,43.2L343.2,43.2z M345.2,29.4c0,0.9,0,1.6,0.1,2.4s0.3,1.4,0.6,2c0.3,0.6,0.7,1.2,1.2,1.8
		s1.2,1.2,2,1.8c0.3,0.2,0.7,0.3,1.3,0.4c0.5,0,1,0.1,1.4,0.1c0.1,0,0.2,0,0.5,0s0.4,0,0.5,0c0.1-0.2,0.2-0.3,0.4-0.5
		c0.1-0.2,0.3-0.3,0.4-0.5c0-0.1,0.1-0.2,0.2-0.5c0.1-0.2,0.2-0.5,0.3-0.7c0.1-0.2,0.2-0.5,0.3-0.7c0.1-0.2,0.1-0.4,0.2-0.4
		c0.3-0.6,0.5-1.2,0.5-1.7s-0.1-1-0.1-1.4c-0.1-0.7-0.2-1.5-0.3-2.4c-0.1-0.8-0.3-1.6-0.5-2.4s-0.6-1.5-1-2.3
		c-0.5-0.7-1.1-1.3-1.9-1.9c0,0-0.1-0.1-0.3-0.2c-0.1-0.1-0.2-0.1-0.3-0.1c-0.3,0-0.5-0.1-0.8-0.1s-0.5-0.1-0.8,0h-0.7l-0.2,0.1
		c-0.1,0.1-0.2,0.2-0.3,0.4c-0.1,0.2-0.3,0.4-0.4,0.5s-0.3,0.3-0.3,0.5s-0.2,0.2-0.2,0.3c-0.6,0.9-1,1.8-1.3,2.7
		C345.4,27.5,345.2,28.4,345.2,29.4z M346.3,43.8c0,0.1,0,0.2,0.1,0.3s0.2,0.1,0.3,0.1c0.1,0,0.3,0,0.4,0s0.3,0,0.4,0h0.6l0.1-0.1
		l0.1-0.1c0.1-0.1,0.3-0.2,0.6-0.5c0.3-0.2,0.5-0.4,0.6-0.5c-0.1,0-0.2-0.1-0.3-0.1c-0.1,0-0.3-0.1-0.5-0.1s-0.4-0.1-0.5-0.1
		c-0.2,0-0.3-0.1-0.3-0.1l0,0c0,0,0,0-0.1,0h-0.1l-1.3,1c0,0,0,0,0,0.1v0.1H346.3z M352,43c-0.1,0-0.2,0-0.4,0c-0.2,0-0.4,0-0.5,0
		c-0.2,0-0.4,0-0.7,0.1c0,0-0.2,0.1-0.4,0.2c-0.2,0.1-0.4,0.3-0.5,0.4c-0.3,0.2-0.4,0.4-0.4,0.6h0.6c0.1,0,0.2,0,0.4,0
		c0.2,0,0.3,0,0.5,0s0.3,0,0.5,0c0.1,0,0.2,0,0.3,0c0.4-0.1,0.7-0.2,0.8-0.4c0.1-0.2,0.3-0.5,0.4-0.7h-0.3H352V43z M350.2,20.9
		c-0.3,0.1-0.6,0.2-0.7,0.2c-0.2,0.1-0.3,0.2-0.3,0.5c0.1,0,0.2,0,0.4-0.1c0.2,0,0.3-0.1,0.4-0.1c0,0,0.1-0.1,0.2-0.3
		c0.1-0.1,0.1-0.2,0.1-0.3L350.2,20.9L350.2,20.9z M350.6,21.6c0,0,0.1,0,0.2,0.1s0.1,0.1,0.2,0.1h0.1h0.1c0.2-0.2,0.4-0.4,0.6-0.6
		s0.5-0.4,0.8-0.5c0,0-0.1,0-0.3,0c-0.1,0-0.2,0-0.3,0c-0.4,0-0.7,0.1-0.9,0.3C350.9,21,350.8,21.3,350.6,21.6z M351.7,21.9
		c0,0.2,0,0.3,0.1,0.3c0.1,0.1,0.2,0.1,0.4,0.2c0,0,0.1,0,0.1-0.1l0.1-0.1c0,0,0.1-0.1,0.2-0.2s0.2-0.2,0.2-0.2s0.2-0.1,0.4-0.3
		c0.2-0.2,0.3-0.2,0.3-0.3v-0.1V21v-0.1c0,0-0.1-0.1-0.3-0.2c-0.1-0.1-0.2-0.1-0.3-0.1c-0.1,0-0.3,0-0.4,0.1s-0.3,0.2-0.4,0.3
		c-0.1,0.1-0.2,0.2-0.3,0.3C351.7,21.7,351.7,21.8,351.7,21.9z M352.8,22.6c0,0.2,0.1,0.4,0.4,0.7c0,0,0.1-0.1,0.2-0.1
		c0.1-0.1,0.1-0.1,0.2-0.1c0,0,0.1-0.1,0.3-0.2c0.1-0.1,0.3-0.3,0.4-0.4s0.3-0.3,0.4-0.4s0.2-0.2,0.3-0.3v-0.1
		c0-0.1-0.1-0.2-0.2-0.2s-0.2,0-0.3,0c-0.2,0-0.3,0-0.5,0.1s-0.4,0.2-0.5,0.3c-0.2,0.1-0.3,0.2-0.4,0.4S352.8,22.5,352.8,22.6z
		 M355,42.7c-0.1,0-0.3,0-0.6,0c-0.3,0-0.5,0.1-0.5,0.1s-0.1,0.1-0.2,0.1c-0.1,0.1-0.2,0.2-0.3,0.3c-0.1,0.1-0.2,0.2-0.3,0.3
		c-0.1,0.1-0.2,0.1-0.2,0.2c0.2,0,0.5-0.1,0.7-0.2s0.4-0.2,0.6-0.3c0.1,0,0.3-0.1,0.6-0.2c0.2-0.1,0.3-0.2,0.3-0.2v-0.1H355z
		 M353.7,23.9c0,0.1,0,0.2,0,0.3c0,0.1,0.1,0.2,0.2,0.3c0,0,0.1-0.1,0.2-0.1c0.1-0.1,0.2-0.1,0.2-0.1s0.1-0.1,0.2-0.2
		s0.3-0.3,0.4-0.4s0.3-0.3,0.4-0.4s0.2-0.2,0.3-0.2c0,0,0.1-0.1,0.3-0.1c0.1-0.1,0.2-0.1,0.3-0.1v-0.1v-0.1c0-0.1-0.1-0.1-0.3-0.3
		c-0.1-0.1-0.2-0.2-0.2-0.2h-0.1c-0.1,0-0.1,0-0.2,0c-0.2,0-0.4,0.1-0.6,0.2s-0.4,0.3-0.5,0.5s-0.3,0.4-0.4,0.6
		C353.8,23.6,353.7,23.8,353.7,23.9z M357,34.6c0,0-0.1,0-0.2,0.1s-0.1,0.1-0.2,0.1c-0.2,0.1-0.5,0.2-0.8,0.4
		c-0.3,0.1-0.6,0.3-0.8,0.4s-0.5,0.3-0.7,0.5s-0.3,0.4-0.3,0.7c0.1,0,0.1-0.1,0.2-0.1l0.1-0.1c0.1-0.1,0.3-0.1,0.5-0.2
		c0.2-0.1,0.5-0.2,0.7-0.3c0.3-0.1,0.5-0.2,0.7-0.3s0.3-0.2,0.4-0.3c0,0,0.1-0.2,0.2-0.3c0.1-0.2,0.1-0.3,0.2-0.4L357,34.6L357,34.6
		z M355.9,36.2c-0.2,0.1-0.6,0.2-0.9,0.4c-0.4,0.2-0.7,0.4-0.8,0.5c0,0,0.2-0.1,0.4-0.2c0.2-0.1,0.4-0.2,0.4-0.2
		c0.1,0,0.2-0.1,0.3-0.1c0.1,0,0.2-0.1,0.3-0.1l0.4-0.2L355.9,36.2L355.9,36.2z M354.3,25.6c0,0,0.1,0.1,0.1,0.3
		c0,0.2,0.1,0.2,0.1,0.3h0.1h0.1c0,0,0.1-0.1,0.2-0.2s0.2-0.2,0.3-0.3c0.1-0.1,0.2-0.2,0.3-0.3s0.2-0.2,0.2-0.2c0.4-0.4,1-0.8,1.6-1
		c0-0.1-0.1-0.2-0.3-0.4c-0.1-0.2-0.2-0.4-0.3-0.4l-0.2-0.1c-0.2,0-0.4,0.1-0.6,0.2c-0.2,0.2-0.4,0.4-0.6,0.6s-0.4,0.5-0.6,0.7
		s-0.3,0.4-0.4,0.5v0.4l0,0L354.3,25.6L354.3,25.6z M358.1,32.5c-0.1,0-0.3,0.1-0.6,0.2c-0.3,0.1-0.6,0.3-0.9,0.4
		c-0.3,0.2-0.6,0.3-0.9,0.5s-0.4,0.3-0.4,0.3l-0.5,1.4c0.5-0.2,1-0.3,1.4-0.6c0.4-0.2,0.8-0.5,1.2-0.7c0.3-0.2,0.6-0.5,0.6-0.7
		S358.1,32.8,358.1,32.5L358.1,32.5z M354.9,27.4c0,0,0,0.1,0,0.2s0,0.2,0.2,0.2c0.3-0.2,0.6-0.5,0.9-0.8c0.2-0.3,0.5-0.6,0.9-0.8
		c0,0,0.1-0.1,0.2-0.1c0.1-0.1,0.2-0.1,0.3-0.2c0.1-0.1,0.2-0.1,0.3-0.2c0.1-0.1,0.2-0.1,0.2-0.1s0.1,0,0.1-0.1l0.1-0.1
		c0-0.1,0-0.2-0.1-0.3c0-0.1-0.1-0.3-0.1-0.4c-0.1-0.1-0.1-0.2-0.2-0.3c-0.1-0.1-0.2-0.2-0.2-0.2c-0.3,0-0.5,0.1-0.8,0.3
		c-0.3,0.2-0.5,0.4-0.7,0.6s-0.4,0.5-0.6,0.7c-0.2,0.3-0.3,0.5-0.4,0.6v0.4L354.9,27.4L354.9,27.4z M355.2,28.8
		c0,0.3,0.1,0.5,0.3,0.8c0.1-0.1,0.2-0.2,0.4-0.3s0.4-0.3,0.7-0.5c0.2-0.2,0.5-0.4,0.7-0.5s0.4-0.3,0.5-0.3c0,0,0.2-0.1,0.4-0.2
		c0.2-0.1,0.4-0.2,0.5-0.2v-0.1v-0.1c0-0.1,0-0.1-0.1-0.3c0-0.1-0.1-0.3-0.1-0.4s-0.1-0.3-0.1-0.4s-0.1-0.2-0.1-0.2h-0.1
		c0,0,0,0-0.1,0c0,0,0,0-0.1,0c-0.3,0.1-0.6,0.3-0.9,0.5s-0.6,0.4-0.8,0.6c-0.2,0.2-0.5,0.4-0.7,0.6s-0.3,0.4-0.4,0.5v0.3
		L355.2,28.8L355.2,28.8z M355.4,30.3c0,0.1,0,0.3-0.1,0.5c0,0.2,0,0.4,0.1,0.5c0.4-0.3,0.9-0.5,1.4-0.8s1-0.5,1.5-0.8
		c0,0,0.1-0.1,0.3-0.1c0.2-0.1,0.3-0.1,0.3-0.1v-0.4c0-0.2,0-0.4-0.1-0.6s-0.1-0.4-0.3-0.6c-0.2,0.1-0.5,0.2-0.6,0.4
		c-0.2,0.1-0.3,0.3-0.5,0.4s-0.4,0.3-0.6,0.4s-0.5,0.3-0.8,0.6c0,0-0.1,0.1-0.3,0.2c-0.1,0.1-0.2,0.2-0.2,0.2L355.4,30.3L355.4,30.3
		L355.4,30.3z M358.7,30.1c0,0-0.2,0.1-0.4,0.1c-0.2,0.1-0.3,0.1-0.4,0.1c-0.1,0.1-0.3,0.2-0.6,0.3c-0.3,0.1-0.4,0.2-0.5,0.3
		c-0.1,0.1-0.3,0.2-0.4,0.3c-0.2,0.1-0.3,0.2-0.5,0.4c-0.1,0.1-0.3,0.2-0.4,0.3s-0.2,0.2-0.2,0.2v1.3c0.4-0.3,0.9-0.5,1.4-0.7
		s1-0.4,1.5-0.5c0,0,0.1-0.1,0.1-0.2c0.1-0.1,0.1-0.2,0.1-0.2c0-0.1,0-0.2,0.1-0.3c0-0.2,0.1-0.3,0.1-0.5s0.1-0.3,0.1-0.5
		c0-0.1,0.1-0.2,0.1-0.3L358.7,30.1L358.7,30.1L358.7,30.1z"/>
</g>
<g class="st0">
	<path class="st1" d="M18.2,53.1c0.6-3.8,2.1-7.8,4.4-11.7c2.4-4,5.3-7.8,8.8-11.5s7.5-7.2,12-10.5s9.1-6.2,13.9-8.8
		s9.6-4.7,14.4-6.3s9.4-2.7,13.7-3.1c4.3-0.4,8.3-0.1,11.9,0.9s6.5,2.9,8.7,5.7s3.7,6.5,4.3,11.2c0.6,4.7,0.1,10.5-1.5,17.5
		c-0.8,3.3-1.9,6.6-3.3,10s-3.1,6.7-5,9.8c-1.9,3.2-4,6.2-6.2,9.1c-2.3,2.9-4.7,5.4-7.2,7.6c-0.4,0.4-1.1,0.7-2,1.1
		c-0.9,0.3-1.7,0.5-2.3,0.5c-0.7,0-1.1-0.1-1.4-0.4s0-0.8,0.8-1.5c2.1-2,4.1-4.3,6.1-6.9c1.9-2.6,3.7-5.5,5.2-8.5
		c1.6-3,2.9-6.2,4.2-9.4c1.2-3.3,2.2-6.5,2.8-9.8c1.5-7.2,1.7-12.9,0.6-17S98,14,95.2,12.3c-2.9-1.7-6.3-2.4-10.5-2.1
		c-4.1,0.4-8.5,1.5-13.1,3.3s-9.1,4.2-13.6,7.1s-8.6,6.1-12.2,9.5c-3.7,3.4-6.7,6.9-9,10.4c-2.4,3.5-3.6,6.8-3.7,9.9
		c-0.2,4.6,0.8,8.6,2.8,11.8c2,3.3,4.7,6.1,8,8.5c3.3,2.4,7.1,4.6,11.3,6.5S63.7,81,68,82.9c4.3,1.9,8.4,3.9,12.2,6.1
		c3.9,2.2,7.1,4.8,9.6,7.8c2.6,3,4.3,6.5,5.2,10.7s0.4,9.1-1.3,14.8c-1.3,4.2-3.4,7.9-6.2,11.1s-6,5.8-9.6,8s-7.4,4-11.4,5.4
		s-7.9,2.5-11.6,3.2c-3.7,0.8-7.2,1.3-10.3,1.6c-3.2,0.3-5.6,0.4-7.4,0.4c-7.1,0-13.1-0.7-17.8-2s-8.4-3.1-11.1-5.2
		c-2.7-2.1-4.5-4.5-5.4-7.2s-1-5.5-0.4-8.2c0.6-2.8,1.9-5.5,3.8-8.1s4.2-4.9,7-6.8c2.8-2,5.9-3.4,9.5-4.4c3.5-1,7.2-1.3,11.1-0.9
		c1.3,0.2,2.1,0.5,2.5,1s0.5,1.1,0.3,1.6c-0.2,0.6-0.7,1.1-1.3,1.6c-0.7,0.5-1.4,0.7-2.1,0.7c-5.4,0.1-9.7,0.9-13.1,2.6
		c-3.3,1.7-5.7,3.6-7,6c-1.3,2.3-1.7,4.8-1.1,7.5c0.6,2.7,2,5.2,4.4,7.4c2.3,2.2,5.5,4.1,9.5,5.5s8.9,2,14.5,1.8
		c7.1-0.2,13.3-1.2,18.5-2.8s9.5-3.6,12.9-5.9c3.4-2.3,6.1-4.7,7.9-7.2c1.8-2.6,3.1-4.9,3.7-7c1.1-4.1,0.9-7.6-0.5-10.4
		c-1.4-2.9-3.7-5.4-6.9-7.7s-6.9-4.3-11.2-6.1c-4.3-1.8-8.7-3.6-13.4-5.5c-4.6-1.8-9.1-3.9-13.5-6.1s-8.2-4.8-11.4-7.8
		s-5.7-6.6-7.4-10.7C17.6,63.6,17.3,58.8,18.2,53.1z"/>
	<path class="st1" d="M120.4,70.1c0.8-0.3,1.7-0.5,2.9-0.5c1.2,0,2.3,0,3.5,0.2c1.1,0.2,2.1,0.5,3,0.9c0.8,0.4,1.3,0.8,1.3,1.3
		c0,0.2-0.4,1.3-1.3,3.1c-0.8,1.8-1.9,4.2-3.1,7.1s-2.6,6.1-4.1,9.6s-2.9,7.2-4.2,10.8c-1.3,3.7-2.5,7.3-3.5,10.7
		c-1,3.5-1.6,6.5-1.9,9.2s0,4.8,0.6,6.4c0.7,1.6,2,2.3,3.9,2.2c2.4-0.1,4.7-1.4,7.1-3.9c2.4-2.5,4.8-5.7,7.1-9.4
		c2.4-3.8,4.6-7.9,6.8-12.3s4.2-8.7,6.2-12.7c1.9-4.6,3.7-8.5,5.4-11.6s2.8-4.8,3.3-5c0.8-0.3,1.7-0.5,2.9-0.5s2.3,0,3.5,0.2
		c1.1,0.2,2.1,0.5,3,0.9c0.8,0.4,1.3,0.8,1.3,1.3c0,0.2-0.4,1.3-1.2,3.1c-0.8,1.8-1.8,4.1-3,6.9s-2.5,5.9-3.8,9.4
		c-1.4,3.5-2.7,7-4,10.6s-2.3,7.1-3.2,10.5s-1.4,6.4-1.6,9c-0.2,2.6,0,4.7,0.8,6.2c0.7,1.6,2,2.3,4,2.1s4.1-1.2,6.4-3.1
		c2.2-1.9,4.5-4.3,6.7-7.3s4.4-6.3,6.6-10c2.1-3.7,4.2-7.4,6.1-11.2c1.9-3.8,3.6-7.4,5.2-10.8c1.6-3.4,2.9-6.3,4-8.8
		c0.3-0.5,0.6-0.8,1.1-1.1c0.5-0.3,1-0.5,1.5-0.5c0.5-0.1,0.9,0,1.3,0.1c0.3,0.2,0.5,0.5,0.5,0.9c0,0.3-0.6,2-1.7,4.9
		c-1.1,3-2.7,6.6-4.7,11c-2,4.3-4.3,9-6.9,13.9c-2.6,4.9-5.5,9.6-8.6,13.8c-3.1,4.3-6.3,7.9-9.6,10.7c-3.4,2.9-6.7,4.4-10.1,4.5
		c-3.3,0.2-5.9-0.4-7.8-1.6c-1.9-1.3-3.4-3-4.4-5.2s-1.5-4.8-1.5-7.8s0.2-6.1,0.8-9.4c-3.1,4.7-6.4,8.7-9.9,11.8
		c-3.5,3.2-7.1,4.9-10.8,5c-4,0.2-6.9-0.6-9-2.4s-3.3-4.1-4-7.1c-0.6-3-0.7-6.4-0.3-10.4c0.5-3.9,1.3-7.9,2.5-12s2.5-8.1,4.1-12.1
		s3.1-7.5,4.6-10.7s2.9-5.8,4-7.8C119.2,71.3,120,70.2,120.4,70.1z"/>
	<path class="st1" d="M334.4,64.3c3.1-0.1,5.3,0.7,6.4,2.5c1.2,1.7,1.7,4,1.6,7c-0.1,2.9-0.7,6.3-1.8,10.1
		c-1.1,3.9-2.3,7.9-3.7,12.1c-1.3,4.2-2.7,8.4-4,12.7c-1.3,4.3-2.4,8.3-3,12.1c-0.2,1.1-0.3,2.2-0.5,3.2s-0.1,1.7,0.1,2.2
		c0.2,0.4,0.7,0.4,1.4,0c0.7-0.4,1.9-1.5,3.6-3.4c1.9-2.1,3.9-4.4,5.8-6.8s4.1-5.3,6.5-8.5s5.1-7,8.1-11.2s6.6-9.2,10.6-14.8
		c0.3-0.5,0.8-0.9,1.3-0.9c0.5-0.1,1,0,1.5,0.2s0.8,0.6,0.9,1.1s0,1-0.3,1.5c-1.4,2-3.2,4.8-5.3,8.2c-2.1,3.4-4.5,7.1-7.1,11
		s-5.4,7.8-8.3,11.7c-2.9,3.9-5.8,7.4-8.6,10.5c-2.9,3.1-5.7,5.5-8.4,7.2c-2.8,1.8-5.3,2.4-7.7,1.9c-2-0.4-3.3-1.6-4-3.5
		c-0.6-2-0.8-4.5-0.5-7.5s0.9-6.4,2-10.1c1-3.7,2.1-7.5,3.4-11.4s2.5-7.7,3.8-11.4c1.3-3.7,2.4-7.1,3.2-10.1c0.8-3,1.4-5.4,1.6-7.3
		s-0.1-3-1.1-3.3c-0.9-0.2-2.1,0.3-3.5,1.7c-1.4,1.4-3,3.3-4.7,5.7c-1.7,2.4-3.5,5.2-5.4,8.4c-1.9,3.2-3.7,6.4-5.5,9.7
		c-1.8,3.3-3.5,6.4-5.1,9.5s-2.9,5.8-4,8c-1.3,3.8-2.5,6.9-3.6,9.3s-1.7,3.8-2.1,4.2c-0.5,0.6-1.3,1-2.4,1.2s-2.1,0.1-3.2-0.2
		c-1-0.3-1.8-0.7-2.5-1.4c-0.7-0.6-0.9-1.4-0.6-2.4c0-0.2,0.3-1.1,1-2.9s1.5-4,2.5-6.8s2-5.9,3.2-9.4s2.3-7,3.5-10.5
		c1.1-3.5,2.2-7,3.2-10.4s1.7-6.4,2.1-9.1c0.5-2.6,0.7-4.8,0.6-6.4s-0.6-2.4-1.5-2.3c-1.8,0.1-3.6,1.2-5.6,3.3c-2,2.1-4,4.9-6.1,8.2
		c-2.1,3.4-4.1,7.2-6.1,11.5s-4,8.6-5.8,13c-1.9,4.4-3.6,8.7-5.2,12.8c-1.6,4.2-3,7.8-4.2,11c-1.2,3.9-2.2,7.3-3.1,10
		s-1.5,4.4-1.8,5.1c-0.7,1.1-1.5,1.8-2.4,2s-1.8,0.2-2.7,0c-0.9-0.2-1.7-0.6-2.3-0.9c-0.7-0.4-1.1-0.6-1.3-0.7
		c-0.1-0.1,0.1-1.1,0.6-3s1.1-4.4,2-7.5c0.8-3.1,1.8-6.7,2.9-10.7s2.3-8.2,3.5-12.4c-3.2,4.6-6.5,9.3-10,13.9
		c-3.4,4.6-6.9,8.8-10.3,12.4c-3.4,3.7-6.6,6.5-9.6,8.7c-3,2.1-5.7,3-7.9,2.6c-2-0.4-3.2-1.7-3.7-4c-0.4-2.3-0.3-5.2,0.4-8.7
		s1.8-7.5,3.3-11.8c1.5-4.4,3.1-8.8,4.9-13.3c1.8-4.5,3.5-9,5.3-13.3s3.3-8.3,4.5-11.7c1.2-3.5,2-6.3,2.5-8.5
		c0.4-2.2,0.2-3.5-0.8-3.8c-0.9-0.3-2.2,0.4-3.9,2.1s-3.5,4-5.5,6.9s-4.1,6.2-6.3,9.9c-2.2,3.7-4.4,7.4-6.4,11
		c-2.1,3.7-4,7.1-5.7,10.4s-3.1,6-4.2,8.1c-1.2,3.2-2.2,5.9-3.2,8c-0.9,2.1-1.5,3.4-1.8,3.8c-0.6,0.6-1.4,1-2.5,1.2
		s-2.1,0.1-3.1-0.2s-1.9-0.7-2.6-1.4c-0.7-0.6-0.9-1.4-0.7-2.4c0.1-0.2,0.6-1.7,1.6-4.4c1-2.7,2.1-6,3.4-9.8c1.3-3.9,2.6-8,4-12.4
		s2.5-8.5,3.4-12.3s1.4-6.9,1.5-9.4s-0.5-3.7-1.8-3.6c-2.1,0.1-4.2,1.1-6.2,3.1s-3.9,4.4-5.7,7.3s-3.5,6.1-5.1,9.7
		c-1.6,3.5-3,6.9-4.2,10.2c-1.2,3.3-2.3,6.2-3.2,8.8c-0.9,2.6-1.6,4.5-2,5.6c-1.2,4.2-2.2,7.7-3,10.5c-0.8,2.8-1.4,4.6-1.8,5.2
		c-0.7,1.1-1.5,1.8-2.4,2s-1.8,0.3-2.7,0.1s-1.7-0.5-2.4-0.9s-1.2-0.6-1.3-0.7c-0.1-0.1,0.1-1.1,0.6-3.2c0.5-2,1.1-4.7,2-8.1
		c0.8-3.3,1.8-7.1,2.9-11.4c1.1-4.3,2.2-8.7,3.5-13.1c1.2-4.5,2.4-8.9,3.6-13.3c1.2-4.4,2.3-8.3,3.3-11.7c1.1-3.5,2-6.3,2.7-8.6
		c0.8-2.3,1.3-3.6,1.6-3.9c0.6-0.6,1.3-1,2.3-1c0.9,0,1.8,0.1,2.6,0.5s1.5,0.8,2,1.4s0.7,1.2,0.6,1.7c-0.1,0.2-0.3,1.1-0.6,2.5
		s-0.8,3.2-1.3,5.5c-0.5,2.2-1.2,4.8-2,7.7c-0.8,2.9-1.6,6-2.4,9.2c1.3-2.5,2.8-4.9,4.3-7.2c1.5-2.3,3.1-4.4,4.8-6.1
		c1.7-1.8,3.4-3.2,5.3-4.2c1.8-1.1,3.7-1.6,5.7-1.7c2.4-0.1,4.3,0.6,5.5,2.1c1.3,1.5,2.1,3.5,2.5,6s0.4,5.4,0,8.7
		c-0.4,3.3-0.9,6.6-1.7,10.1c2.1-3.8,4.4-7.6,6.7-11.5c2.4-3.9,4.9-7.5,7.4-10.6s5-5.7,7.4-7.8c2.4-2,4.7-3.1,6.9-3.1
		c2.4-0.1,4,0.5,5,1.8s1.4,3.1,1.4,5.3s-0.4,4.9-1.2,7.9s-1.8,6.3-3,9.8s-2.6,7.1-4.1,10.9s-3,7.5-4.3,11.2
		c-1.4,3.7-2.6,7.2-3.8,10.7s-2,6.5-2.5,9.4c-0.2,1.1-0.3,2.2-0.5,3.2s-0.1,1.7,0.1,2.1c0.2,0.4,0.7,0.4,1.4,0s1.9-1.5,3.6-3.3
		c1.6-1.7,3.5-4,5.7-6.7c2.2-2.8,4.6-5.9,7.3-9.4c2.6-3.5,5.5-7.3,8.5-11.5s6.2-8.5,9.5-13c0.9-3.1,1.8-6.1,2.7-8.9
		c0.9-2.8,1.7-5.3,2.4-7.4c0.7-2.2,1.3-3.9,1.8-5.3s0.9-2.2,1.1-2.4c0.6-0.6,1.3-0.9,2.3-0.9c0.9,0,1.8,0.2,2.6,0.5
		c0.8,0.4,1.5,0.8,2.1,1.4s0.8,1.2,0.7,1.7L280.5,91c1.8-3.9,3.8-7.7,5.9-11.4c2.1-3.7,4.1-6.9,6.2-9.7c2.1-2.8,4.2-5,6.3-6.7
		c2.1-1.7,4.2-2.6,6.2-2.7c2.4-0.1,4.3,0.7,5.5,2.4c1.2,1.6,2,3.9,2.2,6.7c0.3,2.8,0.1,6-0.4,9.6s-1.2,7.3-2.1,11.2
		c1.8-3.2,3.7-6.4,5.7-9.5c2.1-3.1,4.1-5.9,6.2-8.4c2.1-2.4,4.1-4.4,6.2-6C330.5,65.1,332.5,64.3,334.4,64.3z"/>
	<path class="st1" d="M384.6,69.8c2.8-0.1,5,0.2,6.7,0.9c1.7,0.7,3.1,1.6,4,2.7c1,1.1,1.6,2.4,2,3.8c0.3,1.5,0.5,2.8,0.5,4.2
		c0,1.3-0.1,2.6-0.4,3.8c-0.3,1.2-0.5,2-0.6,2.6c-1.8,4.9-4.2,8.7-7.4,11.4c-3.2,2.7-6.5,4.7-10,6.1c-3.5,1.3-6.8,2.1-10,2.4
		s-5.7,0.4-7.4,0.4c-0.4,3.2-0.6,6.3-0.4,9.1c0.1,2.9,0.6,5.4,1.5,7.5c0.8,2.2,2,3.9,3.5,5.1s3.4,1.8,5.7,1.6c2.4-0.2,5-1.4,7.8-3.6
		c2.9-2.2,5.8-5.1,8.8-8.5s6-7.1,9-11.2c3-4,5.7-8,8.3-11.8c2.5-3.8,4.7-7.3,6.6-10.4c1.8-3.1,3.2-5.4,4-6.8
		c0.2-0.3,0.5-0.5,1.1-0.6c0.5-0.1,1.1-0.1,1.6,0s0.9,0.3,1.2,0.6c0.3,0.3,0.3,0.7-0.1,1.3c-0.3,0.4-0.9,1.6-2,3.5s-2.4,4.3-4.1,7.1
		c-1.7,2.8-3.6,6-5.9,9.5c-2.2,3.5-4.6,7.1-7.2,10.7s-5.2,7.1-8,10.5s-5.6,6.4-8.4,9s-5.6,4.8-8.4,6.4c-2.8,1.6-5.5,2.4-8,2.3
		c-4.4-0.1-7.9-1.1-10.7-3.1c-2.8-2-4.8-4.6-6.2-7.8c-1.3-3.2-2-6.9-2-11s0.5-8.3,1.6-12.6c1.1-4.3,2.7-8.5,4.8-12.6
		c2.1-4.1,4.6-7.8,7.5-11.1s6.1-6,9.7-8.1C376.8,71.1,380.6,70,384.6,69.8z M384.2,74c-2.7,0.4-5.2,1.5-7.6,3.4s-4.5,4.3-6.4,7.1
		c-1.9,2.9-3.5,6.1-4.9,9.5c-1.3,3.5-2.4,7.1-3,10.7c1.2,0,2.9-0.1,5-0.4c2.2-0.2,4.5-0.9,7-2s4.9-2.8,7.1-5
		c2.3-2.2,4.1-5.4,5.5-9.4c1.1-3.2,1.7-5.8,1.7-7.7c0-1.9-0.2-3.3-0.6-4.3c-0.5-1-1.1-1.6-1.9-1.8C385.5,74,384.8,73.9,384.2,74z"/>
	<path class="st1" d="M426.6,46.1c1.4-0.1,2.6,0.2,3.6,0.8s1.7,1.4,2.3,2.4c0.6,1,1,2,1.1,3.2c0.2,1.1,0.1,2.2-0.1,3.1
		c-0.6,2.1-1.4,4.2-2.4,6.3s-2.1,4.1-3.2,6c-1.1,1.9-2.2,3.6-3.3,5.1c-1.1,1.5-2,2.8-2.6,3.8c1.3,0.8,2.9,1.4,4.7,1.7
		s3.6,0.5,5.4,0.4s3.5-0.4,5.2-0.9c1.6-0.5,3-1.2,4.2-2.2c0.6-0.5,1.2-0.5,1.8-0.1c0.6,0.4,1.2,1,1.6,1.7c0.5,0.7,0.7,1.6,0.8,2.5
		c0.1,0.9-0.1,1.6-0.6,2.2c-0.3,0.3-0.9,1.3-1.9,2.8c-1,1.6-2.2,3.5-3.5,5.9s-2.8,5-4.3,7.9s-2.9,5.8-4.3,8.8
		c-1.3,2.9-2.5,5.8-3.5,8.6c-1,2.8-1.7,5.3-2,7.4c-0.3,2.2-0.3,3.9,0.3,5.1c0.5,1.3,1.6,1.8,3.3,1.6c0.8-0.1,2-0.8,3.5-2.2
		c1.5-1.4,3.2-3.2,5.1-5.5s4-4.9,6.2-7.8s4.5-5.9,6.7-9s4.4-6.1,6.4-9.1c2.1-3,3.9-5.7,5.6-8.1s3.1-4.4,4.2-6s1.8-2.6,2.1-2.9
		c0.6-0.7,1.2-1.2,1.8-1.4c0.6-0.2,1.2-0.2,1.7-0.1s0.9,0.4,1.1,0.8s0.2,0.9-0.1,1.5c-0.2,0.4-1.1,2.1-2.9,5.1s-4.1,6.6-6.9,10.8
		c-2.8,4.2-5.9,8.8-9.4,13.6c-3.4,4.8-6.9,9.2-10.3,13.2s-6.7,7.2-9.9,9.7s-5.8,3.5-7.9,3.1c-3.2-0.5-5.5-1.7-7.1-3.5
		c-1.5-1.8-2.4-3.9-2.8-6.4c-0.3-2.5-0.2-5.2,0.4-8.1s1.5-5.9,2.6-8.9c2.7-7,6.8-14.7,12.2-23.2c-3,0.7-6,0.8-9,0.4
		c-3-0.5-5.6-1.6-7.9-3.4s-4-4.1-5-7.1c-1.1-2.9-1.3-6.5-0.5-10.8c0.5-2.7,1.5-5.3,3.1-7.6s3.3-4.3,5.1-6.1c1.8-1.7,3.6-3.1,5.4-4
		C424.5,46.7,425.8,46.2,426.6,46.1z M417.5,67.5c-0.3,1.3-0.3,2.6,0,3.7s0.7,2.1,1.4,3c0.8-1.6,1.9-3.7,3.2-6.2
		c1.3-2.5,2.5-4.9,3.5-7.2s1.8-4.2,2.2-5.9c0.4-1.6,0.2-2.5-0.8-2.5c-0.5,0-1.2,0.4-2.1,1.2s-1.9,1.9-2.9,3.3c-1,1.4-1.9,3-2.8,4.8
		C418.5,63.5,417.9,65.4,417.5,67.5z"/>
</g>
<g class="st0">
	<path class="st1" d="M126.6,30.5c0-0.1,0-0.1,0-0.2s0-0.2,0-0.2c0.1-0.6,0.4-1.2,0.8-1.7s0.8-0.9,1.4-1.3s1.2-0.6,1.9-0.7
		s1.4-0.2,2.2-0.1c0.4,0.1,0.9,0.2,1.3,0.3c0.5,0.2,0.9,0.4,1.3,0.6c0.4,0.2,0.7,0.5,1,0.9c0.3,0.3,0.4,0.7,0.4,1.1
		c0,0.3,0,0.7,0,1.1s-0.1,0.7-0.3,1.1c-0.1,0.3-0.3,0.5-0.5,0.8s-0.4,0.5-0.5,0.6c-0.6,0.3-1.2,0.6-1.7,0.8
		c-0.6,0.2-1.2,0.3-1.9,0.3c-0.8,0-1.6-0.1-2.3-0.4c-0.7-0.3-1.3-0.6-1.9-1.1c-0.3-0.2-0.6-0.6-0.7-0.9
		C126.7,31.1,126.6,30.8,126.6,30.5z M128.5,29.1L128.5,29.1c-0.1,0-0.2,0.1-0.4,0.1c-0.1,0.1-0.2,0.1-0.3,0.1
		c-0.2,0.1-0.4,0.2-0.4,0.4c0,0.1-0.1,0.3-0.1,0.5v0.3c0.1,0,0.3-0.1,0.6-0.3c0.3-0.2,0.4-0.3,0.5-0.4c0-0.1,0.1-0.2,0.1-0.4
		C128.6,29.3,128.6,29.2,128.5,29.1L128.5,29.1z M127.5,31.3c0,0.1,0,0.1,0,0.2s0.1,0.1,0.2,0.1h0.1c0.3-0.2,0.5-0.3,0.7-0.5
		c0.1-0.1,0.2-0.4,0.2-0.6h-0.3L127.5,31.3C127.5,31.2,127.5,31.3,127.5,31.3z M129.9,27.3c-0.2,0-0.4,0-0.6,0.1
		c-0.2,0.1-0.5,0.2-0.7,0.4c-0.2,0.2-0.4,0.3-0.6,0.5c-0.1,0.2-0.2,0.3-0.2,0.5v0.1c0.5-0.1,0.9-0.4,1.2-0.7
		C129.4,27.9,129.7,27.6,129.9,27.3L129.9,27.3z M128.2,32c0,0.1,0,0.2,0.1,0.3s0.2,0.1,0.4,0.1s0.3,0,0.4-0.1
		c0.1-0.1,0.2-0.2,0.3-0.3v-0.1c0-0.1-0.1-0.2-0.2-0.3c-0.1-0.1-0.2-0.1-0.4-0.1s-0.3,0-0.5,0.1C128.3,31.8,128.2,31.9,128.2,32z
		 M129.5,32.8c0,0.1,0.1,0.1,0.3,0.2c0.1,0,0.2,0.1,0.3,0.1h0.2c0,0,0-0.1,0.1-0.1c0-0.1,0.1-0.1,0.1-0.2v-0.1c0,0,0-0.1-0.1-0.1
		s-0.2-0.1-0.2-0.1h-0.1c-0.1,0-0.2,0.1-0.3,0.2C129.5,32.7,129.5,32.8,129.5,32.8z M130.9,33.2c0,0.2,0.1,0.2,0.3,0.3
		c0.2,0,0.3,0,0.5,0c0.1,0,0.2,0,0.3-0.1c0.1,0,0.1-0.1,0.2-0.3c-0.1-0.1-0.2-0.2-0.4-0.2s-0.4,0-0.5,0
		C131,33,130.9,33.1,130.9,33.2z M133,33.1c-0.1,0-0.2,0-0.3,0.1s-0.2,0.2-0.2,0.3h0.3c0.1,0,0.2-0.1,0.4-0.2
		c0.2-0.1,0.4-0.2,0.4-0.3L133,33.1z"/>
	<path class="st1" d="M385.3,30.5c0-0.1,0-0.1,0-0.2s0-0.2,0-0.2c0.1-0.6,0.4-1.2,0.8-1.7s0.8-0.9,1.4-1.3s1.2-0.6,1.9-0.7
		c0.7-0.1,1.4-0.2,2.2-0.1c0.4,0.1,0.9,0.2,1.3,0.3c0.5,0.2,0.9,0.4,1.3,0.6s0.7,0.5,1,0.9s0.4,0.7,0.4,1.1c0,0.3,0,0.7,0,1.1
		s-0.1,0.7-0.3,1.1c-0.1,0.3-0.3,0.5-0.5,0.8s-0.4,0.5-0.5,0.6c-0.6,0.3-1.2,0.6-1.7,0.8c-0.6,0.2-1.2,0.3-1.9,0.3
		c-0.8,0-1.6-0.1-2.3-0.4c-0.7-0.3-1.3-0.6-1.9-1.1c-0.3-0.2-0.6-0.6-0.7-0.9C385.4,31.1,385.3,30.8,385.3,30.5z M387.2,29.1
		L387.2,29.1c-0.1,0-0.2,0.1-0.4,0.1c-0.1,0.1-0.2,0.1-0.3,0.1c-0.2,0.1-0.4,0.2-0.4,0.4c0,0.1-0.1,0.3-0.1,0.5v0.3
		c0.1,0,0.3-0.1,0.6-0.3s0.4-0.3,0.5-0.4c0-0.1,0.1-0.2,0.1-0.4C387.3,29.3,387.3,29.2,387.2,29.1L387.2,29.1z M386.2,31.3
		c0,0.1,0,0.1,0,0.2s0.1,0.1,0.2,0.1h0.1c0.3-0.2,0.5-0.3,0.7-0.5s0.2-0.4,0.2-0.6h-0.3L386.2,31.3L386.2,31.3L386.2,31.3z
		 M388.6,27.3c-0.2,0-0.4,0-0.6,0.1s-0.5,0.2-0.7,0.4c-0.2,0.2-0.4,0.3-0.6,0.5s-0.2,0.3-0.2,0.5v0.1c0.5-0.1,0.9-0.4,1.2-0.7
		C388.1,27.9,388.4,27.6,388.6,27.3L388.6,27.3z M386.9,32c0,0.1,0,0.2,0.1,0.3s0.2,0.1,0.4,0.1c0.2,0,0.3,0,0.4-0.1
		s0.2-0.2,0.3-0.3v-0.1c0-0.1-0.1-0.2-0.2-0.3c-0.1-0.1-0.2-0.1-0.4-0.1c-0.2,0-0.3,0-0.5,0.1C387,31.8,386.9,31.9,386.9,32z
		 M388.2,32.8c0,0.1,0.1,0.1,0.3,0.2c0.1,0,0.2,0.1,0.3,0.1h0.2c0,0,0-0.1,0.1-0.1c0-0.1,0.1-0.1,0.1-0.2v-0.1c0,0,0-0.1-0.1-0.1
		c-0.1-0.1-0.2-0.1-0.2-0.1h-0.1c-0.1,0-0.2,0.1-0.3,0.2C388.2,32.7,388.2,32.8,388.2,32.8z M389.6,33.2c0,0.2,0.1,0.2,0.3,0.3
		c0.2,0,0.3,0,0.5,0c0.1,0,0.2,0,0.3-0.1s0.1-0.1,0.2-0.3c-0.1-0.1-0.2-0.2-0.4-0.2c-0.2,0-0.4,0-0.5,0
		C389.7,33,389.6,33.1,389.6,33.2z M391.7,33.1c-0.1,0-0.2,0-0.3,0.1s-0.2,0.2-0.2,0.3h0.3c0.1,0,0.2-0.1,0.4-0.2
		c0.2-0.1,0.4-0.2,0.4-0.3L391.7,33.1z"/>
</g>
</svg>
